<svg xmlns="http://www.w3.org/2000/svg" viewBox="0 0 80.12 79.92"><g id="Layer_2" data-name="Layer 2"><g id="Layer_1-2" data-name="Layer 1"><path d="M41,0c1.16.45,2.49.23,3.59.94.56.37,1.2.62,1.75,1a2.16,2.16,0,0,1,1,2.58c-.27.79.06,1.1.74,1.24a48.25,48.25,0,0,1,5.27,1.83c.77.26,1,.62.75,1.4-.67,2.45-1.27,4.91-1.89,7.37a3.26,3.26,0,0,0,.12,2.78,2.25,2.25,0,0,0,2.35,1.08,2.59,2.59,0,0,0,2.12-2.16c.6-2.38,1.18-4.77,1.82-7.35A32.2,32.2,0,0,1,71,28.66a1.81,1.81,0,0,1-1.14.14H10.23c-1.32,0-1.28,0-.88-1.34a31,31,0,0,1,6.84-12.14,28.57,28.57,0,0,1,4.37-4.07c.56-.41.91-.52,1.06.41a55.09,55.09,0,0,0,1.62,6.59,2.4,2.4,0,0,0,2.93,1.92A2.47,2.47,0,0,0,27.88,17c-.71-2.72-1.4-5.45-2.14-8.17-.21-.75.17-1,.75-1.19a41.29,41.29,0,0,1,5.28-1.85c.75-.17,1-.48.87-1.29a2.51,2.51,0,0,1,1.58-3A8.43,8.43,0,0,1,38.5.23.31.31,0,0,0,38.86,0Z" fill="#095f67"/><path d="M0,37.18c1-2.68,3-3.62,5.83-3.61q34,.07,67.92,0c4,0,5,.66,6.37,4.3v1a17.07,17.07,0,0,1-.78,1.68,4.8,4.8,0,0,1-4.5,2.39H46.45c-13.54,0-27.08,0-40.62,0C3,43,1,42,0,39.34Z" fill="#095f67"/><path d="M46.78,79.89l-13.47,0a2.27,2.27,0,0,1-1.85-2.08,3.84,3.84,0,0,1,0-.59c-.07-1.11.44-2.48-.21-3.25s-2-.78-3-1.34c-1.43-.85-2.37-.4-3.26.77a7.38,7.38,0,0,1-1.18,1.19,2.19,2.19,0,0,1-3,0q-4.61-4.55-9.14-9.14a2.21,2.21,0,0,1,.2-3,22.64,22.64,0,0,1,2-2A1,1,0,0,0,14.1,59a16.58,16.58,0,0,1-1.46-3.51.73.73,0,0,0-.85-.61c-.92,0-1.84,0-2.76,0-1.76,0-2.56-.83-2.57-2.55,0-1.2,0-2.4,0-3.59-.05-.82.16-1.09,1-1.08,4,.05,7.91.07,11.87,0,.94,0,1.21.37,1.23,1.11a15.36,15.36,0,0,0,1,4.39,19.65,19.65,0,0,0,28,10.31,19.2,19.2,0,0,0,9.85-15c.09-.69.29-.84.93-.84,4.11,0,8.23,0,12.34,0,.77,0,1,.24.92,1-.06,1.19,0,2.39,0,3.59a2.44,2.44,0,0,1-2.68,2.67c-1.11,0-2.46-.32-3.27.19s-.83,1.87-1.25,2.84c-.87,2-.89,2,.64,3.49.31.31.65.59,1,.91,1.14,1.18,1.18,2.27,0,3.44q-4.28,4.35-8.63,8.63c-1.13,1.12-2.36,1-3.57,0-.84-.77-1.42-2.15-2.5-2.24s-2,.78-3.05,1.19c-1.81.75-1.81.74-1.81,2.74,0,.52,0,1,0,1.56A2.15,2.15,0,0,1,46.78,79.89Z" fill="#095f67"/></g></g></svg>