<svg xmlns="http://www.w3.org/2000/svg" viewBox="0 0 73.21 60.49"><g id="Layer_2" data-name="Layer 2"><g id="Layer_1-2" data-name="Layer 1"><path d="M18.55,29.39a22.89,22.89,0,0,1-4.17-6.7,16.81,16.81,0,1,1,16.11,11,23.55,23.55,0,0,0-17.66,7.72A21.71,21.71,0,0,0,7.25,52.06C7,53.59,7,53.74,8.58,53.75c4.23,0,8.47,0,12.71,0a23.76,23.76,0,0,1,2.39.06,3,3,0,0,1,2.85,2.74,3.21,3.21,0,0,1-2.14,3.58,7.17,7.17,0,0,1-2.6.34h-17a10.06,10.06,0,0,1-1.9-.13C.75,59.92,0,59.07,0,56.88a28.84,28.84,0,0,1,6.76-19A28.52,28.52,0,0,1,18.55,29.39ZM40,17.16a10.05,10.05,0,1,0-20.1-.34A9.85,9.85,0,0,0,29.89,27,9.81,9.81,0,0,0,40,17.16Z" fill="#126068"/><path d="M73.21,32.12a3.7,3.7,0,0,1-1.37,2.68q-7,6.93-13.89,13.89c-2,2-4,3.92-5.93,5.94a7.08,7.08,0,0,1-3,1.88c-3.63,1.18-7.27,2.38-10.87,3.67A3.79,3.79,0,0,1,34,59.32c-1.15-1.08-1-2.39-.54-3.77,1.27-3.7,2.47-7.42,3.71-11.13a6.53,6.53,0,0,1,1.65-2.59q10-10,20-20c2-2,3.53-2.06,5.55-.09,2.58,2.5,5.08,5.08,7.64,7.61A3.66,3.66,0,0,1,73.21,32.12Zm-7.87.14a2.86,2.86,0,0,0-.28-.63c-.67-.68-1.36-1.34-2-2-1.39-1.34-1.41-1.36-2.73,0q-7.9,7.83-15.77,15.7c-1.17,1.16-2.19,4.17-2.17,6.23,3.91-.69,4.69-1.08,7.26-3.63,1.13-1.12,2.25-2.26,3.38-3.38Z" fill="#126068"/></g></g></svg>