<svg xmlns="http://www.w3.org/2000/svg" viewBox="0 0 86.91 76.06"><g id="Layer_2" data-name="Layer 2"><g id="Layer_1-2" data-name="Layer 1"><path d="M86.91,38.06A38.08,38.08,0,0,1,56.35,75.21a38.21,38.21,0,0,1-29.7-5.83A19,19,0,0,1,24.73,68a4.19,4.19,0,0,1-.84-5.6A4.25,4.25,0,0,1,29.41,61,13.91,13.91,0,0,1,31,62.09c17.5,12.33,42.36,3.1,46.84-18.36C80.45,31.28,73.94,18,62.11,11.91a30,30,0,0,0-43.34,21.4c-.19,1.1-.17,2.23-.3,3.34s.28,1.45,1.33,1.43c1.91,0,3.83,0,5.75,0a2.54,2.54,0,0,1,2.16.82c.77,1,.66,1.94-.53,3.15-2.19,2.22-4.43,4.39-6.64,6.58-1.48,1.46-2.92,3-4.43,4.39s-2.4,1.49-3.89,0C8.5,49.45,4.81,45.79,1.13,42.13.39,41.4-.36,40.64.19,39.42a2.47,2.47,0,0,1,2.58-1.35c1.68,0,3.35,0,5,0,2,0,2,0,2.1-2.16a35.81,35.81,0,0,1,9.33-22.58C29.87,1.7,43.17-2.59,58.32,1.53S83,16,86.36,31.54A35.77,35.77,0,0,1,86.91,38.06Z" fill="#126068"/><path d="M50.28,31c0,1.84.13,3.69,0,5.51a3.31,3.31,0,0,0,2.06,3.56c3,1.67,5.9,3.51,8.84,5.29a11.36,11.36,0,0,1,1.79,1.19,3.28,3.28,0,0,1,.45,4.16,3.07,3.07,0,0,1-3.81,1.06,20.64,20.64,0,0,1-2.29-1.29c-3.49-2.09-6.94-4.25-10.47-6.28A5.07,5.07,0,0,1,44,39.32c.07-4.71,0-9.43,0-14.14a9.56,9.56,0,0,1,0-1.2,3.21,3.21,0,0,1,3-2.9,3.12,3.12,0,0,1,3.18,3c.11,1.67,0,3.36,0,5C50.29,29.7,50.28,30.34,50.28,31Z" fill="#126068"/></g></g></svg>