<svg xmlns="http://www.w3.org/2000/svg" viewBox="0 0 76.38 75.95"><g id="Layer_2" data-name="Layer 2"><g id="Layer_1-2" data-name="Layer 1"><path d="M54.64,8c0,1.92.07,3.84,0,5.76a3.26,3.26,0,0,0,2.1,3.4c1.58.74,3.09,1.7,5,.84,4-1.8,3.91-2.3,3.87-5.68s0-6.72,0-10.08c0-2.58.42-2.79,2.74-1.49a16.41,16.41,0,0,1,7.88,16.51,15.51,15.51,0,0,1-3.79,8.14,5.57,5.57,0,0,0-1.47,4.11c0,11.59,0,23.19,0,34.79,0,4.41-1.64,7.93-5.56,10.17a10.72,10.72,0,0,1-16.08-8.79c-.19-5-.05-10.08-.06-15.12,0-7,0-14.07,0-21.11a5.78,5.78,0,0,0-1.53-4.1C41.46,18.06,42.45,7,51.67.87a5.45,5.45,0,0,1,.62-.35c1.9-.94,2.32-.68,2.34,1.51C54.66,4,54.64,6,54.64,8ZM64.31,65a4.21,4.21,0,0,0-4.38-4.11,4.14,4.14,0,0,0-4,4.43,4.05,4.05,0,0,0,4.23,4A4.15,4.15,0,0,0,64.31,65Z" fill="#126068"/><path d="M38.46,11a45.83,45.83,0,0,0,0,6.83C38.61,19,37.83,19,37.07,19c-4.63,0-9.27.12-13.9-.05-2.29-.09-3.58.71-4.39,2.79-1,2.59-2.19,5.1-3.32,7.68a4,4,0,0,0,2.2.26c8.07,0,16.15,0,24.22,0,1.84,0,1.87,0,1.88,1.79,0,2.56,0,5.12,0,7.67,0,1.18-.43,1.51-1.55,1.49-3.43-.06-6.87,0-10.31,0a17.57,17.57,0,0,0-1.92,0,2.6,2.6,0,0,0-2.54,2.87,2.53,2.53,0,0,0,2.68,2.46c3.59,0,7.19,0,10.79,0,.56,0,1.12,0,1.68,0,.79-.05,1.16.25,1.16,1.09,0,2.88,0,5.76,0,8.64,0,1.18-.67,1.22-1.55,1.22H27.6c-.56,0-1.13,0-1.68,0-.94-.07-1.28.37-1.27,1.27,0,2.23,0,4.47,0,6.71a5.25,5.25,0,0,1-5.54,5.56c-2.56,0-5.12-.11-7.67,0a5.51,5.51,0,0,1-5.75-5.7c0-2.56-.06-5.12,0-7.68a2.82,2.82,0,0,0-1.27-2.61,10.12,10.12,0,0,1-4-6.59,25.4,25.4,0,0,1,.06-9.52,10.27,10.27,0,0,1,4.4-6.61A5,5,0,0,0,6.74,29.4C8.3,25.65,10,21.94,11.52,18.18c2-5,5.69-7.51,11.1-7.49,4.79,0,9.59,0,14.38,0A1.8,1.8,0,0,1,38.46,11ZM22.08,43.23a6.78,6.78,0,0,0-7-6.85,6.93,6.93,0,0,0,.15,13.85A6.75,6.75,0,0,0,22.08,43.23Z" fill="#126068"/></g></g></svg>