<svg xmlns="http://www.w3.org/2000/svg" viewBox="0 0 321.76 123.42"><g id="Layer_2" data-name="Layer 2"><g id="Layer_1-2" data-name="Layer 1"><path d="M54.76,108.31c-10.56,0-10.66-.08-12-10.14-.19-1.48-.39-3-.65-4.42-.66-3.85-3.51-5.19-6.74-3s-6.56,4.55-9.71,7a2.56,2.56,0,0,1-3.68,0A66.58,66.58,0,0,1,10.79,86.66a2.4,2.4,0,0,1-.11-3.43c2.34-3.1,4.59-6.27,6.85-9.42,2.65-3.69,1.34-6.77-3.19-7.46-3.55-.54-7.1-1-10.67-1.47-2-.24-2.84-1.11-3-3.23a74.09,74.09,0,0,1,0-14.89c.23-2.23,1.34-2.8,3.2-3.07,3.75-.55,7.51-1.09,11.22-1.82,3.88-.76,5.05-3.54,2.83-6.85S13.36,28.68,11,25.6c-1.14-1.49-1.22-2.55.05-4.12A71.15,71.15,0,0,1,22.34,10.42c1.23-1,2-.73,3.11.1,3.1,2.34,6.24,4.61,9.42,6.85,3.59,2.54,6.59,1.3,7.31-3,.64-3.82,1.24-7.63,1.77-11.46A2.33,2.33,0,0,1,46.16.6a58.4,58.4,0,0,1,16.7,0c1.37.16,1.84.91,2,2.14.59,3.83,1.26,7.64,1.82,11.48.64,4.42,3.72,5.71,7.46,3,3.17-2.25,6.35-4.48,9.44-6.83a2,2,0,0,1,2.86,0A62.79,62.79,0,0,1,98.33,22.18c1,1.17.71,2-.16,3.13-2.32,3-4.52,6.05-6.74,9.11-2.73,3.75-1.65,6.72,2.85,7.58,3.62.7,7.27,1.21,10.93,1.73,1.87.26,2.85.9,3.11,3.08a61.58,61.58,0,0,1-.12,15.76c-.18,1.4-.81,1.82-2.07,2-3.65.52-7.27,1.21-10.93,1.67-1.86.24-3.56.56-4.58,2.32-.61,1-1.21.69-1.85,0-2.07-2.15-4.11-4.32-6.25-6.41-1-.94-.77-1.93-.59-3C84.21,45,76.42,32,63.08,27.63A28.14,28.14,0,0,0,29.86,41.05c-6.95,12.52-2.72,28.12,9.35,36.56,6.32,4.43,13,4.73,20.1,3.81,1.5-.19,2.7-.1,3.75,1.13s2.24,2.27,3.36,3.4c1.74,1.78,3.75,2.92,1.09,6.17-1.76,2.15-1.39,6.06-2,9.18-.25,1.38-.49,2.75-.63,4.14a2.32,2.32,0,0,1-2.26,2.3A44.69,44.69,0,0,1,54.76,108.31Z" fill="#196c78"/><path d="M160.62,123.25q-78.69,0-157.38,0c-1.15,0-3.06,1.11-3.23-1.66S1.27,119,3.11,119q74.34.06,148.68.05,83.34,0,166.67.07c1.12,0,2.91-1,3.24,1.4s-.66,2.73-2.81,2.73q-55.45-.1-110.91,0H160.62Z" fill="#282a59"/><path d="M98.6,107.74c-8.69,2.89-20-4.74-17.82-16a3.07,3.07,0,0,0-1.09-3.12C73,82,66.38,75.4,59.81,68.73a3.52,3.52,0,0,0-3.49-1.06c-9,1.71-18.85-6.86-15.75-17.44,1.87.51,2.62,2.29,3.91,3.42,1.12,1,2.1,2.11,3.21,3.1,2.8,2.53,6.34,2.67,8.9.39a6.25,6.25,0,0,0,.6-8.84c-1.66-2.09-3.75-3.84-5.61-5.77-.54-.55-1.54-1-1.31-1.85.3-1.08,1.52-.72,2.32-.83,8.53-1.26,16.34,6.25,15.43,15a6.19,6.19,0,0,0,2,5.75c6.3,6.08,12.47,12.29,18.62,18.52a3.83,3.83,0,0,0,3.94,1.14c10.07-1.76,18.76,8.5,15.26,18.06-2.53-1.38-4-3.85-6-5.67-1.43-1.26-2.75-2.69-4.73-3-2.66-.36-5,.35-6.44,2.78-1.55,2.58-1.54,5.15.5,7.43C93.47,102.5,95.93,105,98.6,107.74Z" fill="#196c78"/><path d="M219.94,42.58c.13-8.92-.23-17.3,1.51-25.55C222.73,11,226.18,8,232.12,7.77c7.11-.22,10.75,2.22,12.44,8.55a33.62,33.62,0,0,1,1.2,7c.56,13.22.93,26.45-.32,39.64-.29,3.09-1.48,6.1-2.37,9.12a6.24,6.24,0,0,1-2.4,3,12.14,12.14,0,0,1-19.18-7.19C219.86,59.32,220.05,50.66,219.94,42.58Zm17.92-.78c0-2,0-4,0-6-.13-5.86.41-11.74-.72-17.56-.57-3-2.06-4.3-4.61-3.89-3.17.51-3.58,3.1-3.81,5.61-1.09,11.81-.46,23.65-.5,35.48a63.22,63.22,0,0,0,.61,8.91c.33,2.32,1.12,4.47,4.23,4.43s3.81-1.82,4.19-4.37C238.39,56.91,237.55,49.34,237.86,41.8Z" fill="#282a59"/><path d="M266.42,42.41c.14,6.64-.38,14,.63,21.35.27,1.95.4,4.1,2.72,4.89,2.65.9,4.78-.25,5.48-3.06,1.38-5.58.67-11.29.83-16.94,0-1.81-1.52-1.41-2.43-1.24-3.4.61-2.91-1.54-3.12-3.69-.29-2.92,1.4-2.66,3.27-2.62q4.18.09,8.39,0c1.29,0,1.75.41,1.71,1.71-.22,8.35.42,16.72-1.25,25-1.39,6.84-4.74,9.45-12.3,9.31-6-.1-9.34-3.3-10.48-9.64C258,57.3,258.84,47,258.7,36.82c-.09-6.55-.17-13.1,1.14-19.6,1.22-6,4.36-9.15,10.1-9.43,7.06-.35,10.59,2,12.4,8.17a29.49,29.49,0,0,1,.94,4.67c.63,5.14.59,5-4.67,5.15-2.1,0-2.72-.56-2.7-2.64A16,16,0,0,0,275,17a3.82,3.82,0,0,0-4.17-2.66c-1.94.1-2.81,1.31-3.25,3a40.5,40.5,0,0,0-1.11,10.05C266.38,32.14,266.42,36.91,266.42,42.41Z" fill="#282a59"/><path d="M142.58,76.44c-5.14,0-5,0-5.7-5.15-1.88-14-3.88-28-5.83-41.94-.83-6-1.63-12-2.52-18-.33-2.15.18-2.92,2.59-2.86,6,.16,5.85,0,6.43,6,1.22,12.48,2.58,25,3.86,37.43.18,1.68.24,3.37.39,5.06,0,.64-.13,1.59.91,1.52.75,0,.68-.85.73-1.43.62-6.83,1.17-13.68,1.87-20.51.88-8.7,1.93-17.39,2.79-26.1.16-1.61.83-1.89,2.26-1.94,6.4-.23,6.66-.23,5.73,5.9-1.09,7.23-2.42,14.48-3.22,21.68-1.32,11.76-3.27,23.43-4.54,35.18C147.78,76.42,147.78,76.42,142.58,76.44Z" fill="#282a59"/><path d="M302.87,26.73c-1.56,5.57,2.59,9.43,7.76,12.54,6.58,3.94,9.33,9.74,9.25,17.18-.05,4.47.08,9-1.23,13.3-1.47,4.87-4.83,7.22-10.33,7.36-6.73.17-9.9-1.67-11.78-6.89-1.47-4.08-1.65-8.37-1.85-12.65,0-.7-.1-1.57.85-1.62,2.19-.09,4.39-.12,6.57,0,1.14,0,.93,1.12.93,1.88a38.35,38.35,0,0,0,.64,7.71c.39,1.91,1.14,3.35,3.49,3.29s3.38-1.24,3.75-3.41a55.26,55.26,0,0,0,.49-9.53c0-4.88-2.85-8-6.44-10.83-2.87-2.25-6.13-4.1-8-7.48a12.87,12.87,0,0,1-1.63-3.81c-1.17-6.44-1.27-12.89.75-19.18,1.47-4.57,5.13-6.46,9.62-6.73,4.78-.28,9.13.53,11.66,5.42,1.85,3.59,1.6,7.53,2.36,11.29.08.39.06,1-.38,1-2.48.07-5,.16-7.44,0-.83-.06-.48-1.17-.6-1.8-.44-2.14-.26-4.35-.92-6.48-.51-1.66-1.26-2.9-3.2-2.92s-2.92,1.12-3.51,2.72C302.69,19.76,303.14,22.59,302.87,26.73Z" fill="#282a59"/><path d="M190.87,42.43c0-10.47,0-20.93,0-31.39,0-1.91.43-2.54,2.46-2.52,5.9.06,5.91,0,5.91,5.75,0,17.14,0,34.27,0,51.41,0,2,.61,2.69,2.53,2.46a19.2,19.2,0,0,1,2.4,0c6.68,0,6.64,0,6.12,6.63-.1,1.26-.45,1.71-1.76,1.7-5.29-.06-10.59-.08-15.89,0-2.25,0-1.67-1.49-1.68-2.65q0-15.69,0-31.38Z" fill="#282a59"/><path d="M168.49,42.41c0-10.34,0-20.69-.05-31,0-2.13.42-2.93,2.75-2.87,5.49.13,5.49,0,5.49,5.45,0,19.8-.05,39.6,0,59.4,0,2.36-.38,3.28-3,3.15-5.22-.26-5.23-.09-5.23-5.43V42.41Z" fill="#282a59"/><text transform="translate(125.36 102.86) scale(0.78 0.87)" font-size="13" fill="#282a59" font-family="Calibri">FAST PASS TICKET TO YOUR VEHICLE</text></g></g></svg>