<svg xmlns="http://www.w3.org/2000/svg" viewBox="0 0 86.94 73.42"><g id="Layer_2" data-name="Layer 2"><g id="Layer_1-2" data-name="Layer 1"><path d="M32.79,73.42H6.65A12.73,12.73,0,0,1,4,73.25c-2.61-.52-4-2.34-4-5.15,0-7.67,0-15.34,0-23q0-9.34,0-18.7c0-3.82,1.89-5.66,5.74-5.76,1.4,0,3.25.66,4.08-.4.67-.85.21-2.6.25-3.95.09-3.82,2.11-5.84,6-5.94,1.12,0,2.24,0,3.36,0,.78,0,1.17-.31,1.16-1.13,0-1.28.09-2.57,0-3.83a5.22,5.22,0,0,1,5-5.35C31.72,0,37.87,0,44,0a5,5,0,0,1,4.55,3c.77,1.49,1.54,3,2.18,4.53a2.52,2.52,0,0,0,2.75,1.69c8.71-.07,17.43.08,26.13-.08,5.13-.09,7.39,2,7.29,7.33-.18,9.67-.05,19.34-.05,29a17.69,17.69,0,0,1-.11,2.63,5.06,5.06,0,0,1-5,4.54c-1.36.05-2.72,0-4.07,0-.7,0-1,.29-1,1,0,1.12,0,2.24,0,3.36-.07,3.71-2.22,6-5.92,6.15-1.12,0-2.24,0-3.36,0-.95,0-1.25.39-1.22,1.29,0,1.2,0,2.4,0,3.59a5.13,5.13,0,0,1-4.82,5.28c-.71.08-1.43,0-2.15.06Zm.09-5H58.52c2.79,0,2.66.16,2.65-2.55V37.57c0-3,0-2.56-2.6-2.56-8.86,0-17.73,0-26.6,0a5.89,5.89,0,0,1-5.9-3.65c-.66-1.44-1.5-2.82-2.1-4.29a2,2,0,0,0-2.21-1.32q-7.67.06-15.33,0c-1.18,0-1.86.26-1.66,1.59a8,8,0,0,1,0,1.2V65.71c0,.47,0,1,0,1.43-.06.93.37,1.31,1.28,1.27.55,0,1.11,0,1.67,0ZM71.47,41.33V30.05c0-1.36-.06-2.72,0-4.08.07-1.19-.44-1.57-1.55-1.46a15.69,15.69,0,0,1-1.68,0c-8.87,0-17.75,0-26.62,0a5.1,5.1,0,0,1-5-3c-.78-1.57-1.62-3.11-2.31-4.73a2.18,2.18,0,0,0-2.4-1.45c-4.31.06-8.63,0-13,0-4,0-3.93,0-3.78,4,0,1.11.49,1.32,1.44,1.3,1.92,0,3.84,0,5.76,0a5.58,5.58,0,0,1,5.52,3.45c.57,1.31,1.4,2.52,1.89,3.86.62,1.72,1.72,2.12,3.46,2.11,8.8-.09,17.59,0,26.38,0,4.56,0,6.43,1.85,6.44,6.33q0,9,0,18c0,3.84,0,3.78,3.8,3.75,1.29,0,1.61-.44,1.59-1.65C71.44,51.4,71.47,46.36,71.47,41.33ZM81.89,31c0-4.72,0-9.44,0-14.16,0-2.7.29-2.54-2.62-2.54-8.87,0-17.75,0-26.62,0a6,6,0,0,1-6-3.8C46,9.28,45.33,8.1,44.86,6.83a2.42,2.42,0,0,0-2.72-1.71c-4.32.08-8.64,0-12.95,0-4,0-3.41-.81-3.53,3.54,0,1.24.35,1.73,1.64,1.68,1.91-.09,3.83,0,5.75,0a5.42,5.42,0,0,1,5.31,3.38c.58,1.31,1.44,2.52,1.89,3.87.56,1.69,1.59,2,3.23,2,8.79-.07,17.59,0,26.38,0a11.4,11.4,0,0,1,2.62.18c2.66.66,4.11,2.78,4.12,6,0,6.07,0,12.15,0,18.23,0,3.6,0,3.6,3.5,3.52,1.75-.05,1.77-.05,1.78-1.92C81.9,40.73,81.89,35.85,81.89,31Z" fill="#126068"/><path d="M47.86,60.49c0,1.86-1,3.16-2.52,3.18s-2.7-1.54-2.64-3.35a2.89,2.89,0,0,1,2.69-3C46.86,57.34,47.87,58.67,47.86,60.49Z" fill="#126068"/><path d="M55.21,60.48a3.16,3.16,0,0,1-.7,2.43A2.39,2.39,0,0,1,51.1,63c-1.1-1-1.08-4,0-5a2.35,2.35,0,0,1,3.39.08A3,3,0,0,1,55.21,60.48Z" fill="#126068"/></g></g></svg>