<svg xmlns="http://www.w3.org/2000/svg" viewBox="0 0 331.45 523.47"><g id="Layer_2" data-name="Layer 2"><g id="Layer_1-2" data-name="Layer 1"><rect x="233.28" y="99.43" width="46.9" height="28.6" fill="#085e66"/><g id="Layer_2-2" data-name="Layer 2"><rect x="61.28" y="100.83" width="31.9" height="28.4" fill="#085e66"/><g id="Layer_1-2-2" data-name="Layer 1-2"><path d="M101.28,84a47.12,47.12,0,0,1,15.6,16.1.82.82,0,0,0,.5.5.91.91,0,0,0,.3.7,72.82,72.82,0,0,1,3.1,7.7,44.71,44.71,0,0,1,2,12.5,9.85,9.85,0,0,0,.2,1.7v.8c-.5,1.2-.1,2.6-.4,3.9a13.33,13.33,0,0,0-.3,2.8l-.1.5-.1.7a.76.76,0,0,0-.2.4,46.07,46.07,0,0,1-5,12.9c-.2.3-.4.5-.3.9a2.54,2.54,0,0,0-.8,1,53.93,53.93,0,0,1-4.7,6q-16.65,17.55-40.7,14.6a45,45,0,0,1-28-14.9c-1.8-1.9-3.2-4.2-4.9-6.2l-.2-.5a1.64,1.64,0,0,0-.8-1.2c-.7-1.5-1.4-3-2-4.4a61.81,61.81,0,0,1-2.7-8.3l-.1-.5a.66.66,0,0,0-.2-.7c-.4-2.6-.6-5.3-.8-7.9v-.8a47.67,47.67,0,0,1,5-20,1.27,1.27,0,0,0,.1-.6c.2-.1.3-.2.3-.4,1.2-1.8,2.4-3.7,3.7-5.5a42.7,42.7,0,0,1,10.8-10.4,1.21,1.21,0,0,0,.5-.5c.1-.2.5-.2.5-.5.3.1.5-.1.8-.3A47.87,47.87,0,0,1,66,78.43c.8-.2,1-.5.8-1.2-1-4.2-1.7-8.5-2.5-12.7-.4-1.9-.7-3.8-1-5.6-.2-.9-.1-1.8,1.1-2s1.6.5,1.8,1.5c.7,3.7,1.5,7.4,2.2,11.1.5,2.5.9,4.9,1.3,7.4.1.7.4.9,1.2.8,1.5-.2,3-.3,4.5-.5h.8a47.07,47.07,0,0,1,24,6.3Zm-36.5,23.8a4.1,4.1,0,0,0-1.6,4.1c.1.5.2,1.1.9,1.2a6.36,6.36,0,0,1,2.2,1.4,1.2,1.2,0,0,1,.5,1.7c0,.1-.1.1-.1.2a2.23,2.23,0,0,0,.7,3h0c.4.3.9.6.9,1.2a9.19,9.19,0,0,1-3.7-.4c-.2,1.7-.2,1.7,1.3,2,1.1.1,2.3.2,3.4.2-.6,1.2-1.7.9-2.8.9a2.16,2.16,0,0,0-2.5,2,2.92,2.92,0,0,0,2,3c1.3.4,2.6,0,3.9,0,2.5.1,4-1.7,5.7-3,1.2-1,1.3-2.5,1.1-4-.1-.5,0-1.2.6-1.3a1.2,1.2,0,0,1,1.6.6c-.5,0-1-.1-1,.7s.2.9,1,1c4.3.3,7.3-1.7,8.5-5.9a14.38,14.38,0,0,0,.1-7.7c-.8-2.9-3-4.6-5.6-4.4-2.8.2-4.7,2-5.2,5l-2.6-.3c-.2-3.1-1.6-4.6-4.6-4.7a11.53,11.53,0,0,0-2.6.3c-2.1.6-2.1.6-2.2,2.8C64.78,107.53,64.78,107.63,64.78,107.83ZM76.28,132h30c.4,0,.5-.2.5-.5a.47.47,0,0,0-.5-.5H46.18a.37.37,0,0,0-.4.4.47.47,0,0,0,.5.5l30,.1Zm-5,13.8h.4v5.5c0,.4.1.9-.5.8-.3,0-.4.2-.4.5s.2.4.5.4h2a.51.51,0,0,0,.5-.4v-.1c0-.3-.1-.5-.4-.5-.7,0-.7-.4-.7-.8,0-2-.1-4-.1-6,0-.4-.1-.8.5-.8a.55.55,0,0,0,.5-.3v-.2c-.1-.4-.4-.3-.7-.4-1.7-.2-1.8-.1-2.4,1.5l-1.5,4.3-.8,2-2.4-6.3c-.5-1.4-1-1.6-2.5-1.4-.2,0-.5.1-.5.4s.1.5.4.5c.6,0,.6.3.6.8-.1,2-.1,4.1-.2,6.1,0,.3.1.7-.4.7s-.6,0-.6.5.4.4.7.4h1c.4,0,.9.2,1-.3s-.2-.6-.6-.6c-.1,0-.1-.2-.1-.3v-5.6H65l2.4,6.1c.2.4.1.9.8.9s.6-.5.7-.9c.8-2.2,1.6-4.3,2.4-6.5Zm15,2c-2.4,0-2.4,0-2.3-2.2,0-.5-.2-1.1.7-1,.3,0,.3-.3.3-.5s-.3-.4-.5-.4h-2c-.3,0-.6,0-.6.4,0,.2.1.4.3.4h.1c.7,0,.6.4.6.9v5.9c0,.5,0,.9-.7.8a.37.37,0,0,0-.4.4.43.43,0,0,0,.4.4h2.4c.3,0,.4-.2.4-.5s-.1-.4-.3-.4c-.9.1-.7-.5-.7-1,0-2.4,0-2.4,2.4-2.4h.2c2,0,2,0,2,2,0,.6.4,1.5-.8,1.4-.2,0-.2.3-.2.5a.43.43,0,0,0,.4.4h2.2c.2,0,.4-.1.4-.3v-.1c0-.3-.1-.5-.4-.5-.7.1-.6-.4-.6-.9v-5.9c0-.4-.1-.9.6-.9.3,0,.4-.2.4-.5s-.2-.4-.5-.4h-2.2c-.2,0-.5,0-.5.4s.1.5.4.5c.6,0,.6.4.6.8.4,2.7.4,2.7-2.1,2.7Zm-9.5-4.1h-1.5c-.3,0-.6,0-.6.4s.1.5.4.5c.6,0,.6.3.6.8v6.1c0,.4,0,.8-.5.7-.3,0-.5.1-.5.5s.3.4.6.4h2.2c.3,0,.6,0,.6-.4s-.2-.5-.5-.5-.6.1-.7-.3a6.47,6.47,0,0,1,.1-2.4c.1-.5.9-.2,1.4-.3a2.72,2.72,0,0,0,2.5-3v-.1c-.1-1.6-1-2.3-2.8-2.4Z" fill="#085e66"/><path d="M230.58,84.33a1.85,1.85,0,0,0,.7-.2,44.37,44.37,0,0,1,13.9-5.7c.8-.2.8-.6.7-1.2-.9-4.3-1.7-8.7-2.6-13-.4-1.8-.7-3.6-1-5.4-.2-.9-.2-1.8,1-2s1.6.5,1.8,1.4c.6,2.7,1.1,5.4,1.6,8.2.6,3.4,1.2,6.7,1.9,10.1.1.8.4,1.3,1.5,1.1a29.84,29.84,0,0,1,4.2-.4h.8a49,49,0,0,1,16.1,2.7,59.23,59.23,0,0,1,8.1,3.7.38.38,0,0,0,.6.1h0c.1.5.6.7.9.9a44.51,44.51,0,0,1,14.9,15.6c.2.3.3.6.6.7a.71.71,0,0,0,.3.6,65.13,65.13,0,0,1,3.1,7.7,47,47,0,0,1,2.1,12.9c0,.4.1.9.1,1.3v.8a10.21,10.21,0,0,0-.3,3c-.1,1.2-.3,2.4-.5,3.6l-.1.5-.1.7a.44.44,0,0,0-.1.5l-.1.7a.76.76,0,0,0-.2.4,45.52,45.52,0,0,1-4.7,11.7c-.1.3-.4.5-.3.9l-.8,1v.2a1.38,1.38,0,0,1-.4.3c-10.7,15.3-25.5,22.1-44,20.3-11.5-1.1-21.1-6.4-28.9-14.9-1.6-1.8-3-3.7-4.4-5.6h0a1.37,1.37,0,0,0-.5-.8l-.3-.6-.8-1a8.56,8.56,0,0,0-1.1-2.4,53.58,53.58,0,0,1-3.7-10.4l-.1-.7c.1-.2,0-.3-.1-.4-.4-2.6-.6-5.3-.8-7.9v-.8a48.82,48.82,0,0,1,4.4-18.8c.3-.6.7-1,.7-1.7.2-.1.3-.2.3-.4,1.2-1.9,2.4-3.8,3.8-5.6a48.32,48.32,0,0,1,11.3-10.8C230.28,84.63,230.58,84.63,230.58,84.33Zm16.9,24.7c-1.1.2-2.2.7-3.1-.5-.1-.1-.2,0-.4,0,0-1-.1-2.1-.1-3.1,0-.6-.1-.9-.8-.8h-2.6c-.6,0-.8.1-.8.8-.1,1,.5.9,1.1.8.8-.1,1.3.1,1.1,1.1-1,.2-2.1.4-2.4,1.7a5.66,5.66,0,0,0,.1,2.6,11.33,11.33,0,0,1,.6,3.6v5.4a3.76,3.76,0,0,0,1.7,3c1.9.7,2.7-.3,3.7-1.7.8-1.2.8-1.2,1.8-.1,1.8,2.1,4.1,3.4,6.9,3a6.92,6.92,0,0,0,5.4-3.9c.9-1.9,2.5-2,3.6-.3h-.7c-.5-.1-.8.1-.7.6s-.2,1,.6,1c2.6.2,5-.2,6.8-2.2,2.9-3.1,3.5-9.8,1.2-13.4a4.94,4.94,0,0,0-5-2.3,5.12,5.12,0,0,0-4.6,3.7,10.68,10.68,0,0,0-.3,2.5,4.14,4.14,0,0,0-1.9,1.8c-1.5-3.9-5.1-5-8.6-2.5-.1.1-.3.3-.5.1,0-4.6,2.6-7.2,6.8-6.8.4,0,1,.5,1-.4,0-.7-.1-1.1-.9-1.2a7.59,7.59,0,0,0-7.9,4A12,12,0,0,0,247.48,109Zm7.7,22.1h-30c-.4,0-.4.2-.4.6,0,.2.1.4.3.4h60.3c.3,0,.4-.2.4-.5s0-.5-.4-.5Zm11.2,14.9h.5v5.2c0,.4.2,1-.6,1-.2,0-.3.2-.2.4a.43.43,0,0,0,.4.4h2.1a.51.51,0,0,0,.5-.4v-.1c0-.3-.1-.5-.4-.5-.8.1-.7-.5-.7-1,0-1.9-.1-3.8-.1-5.8,0-.4-.1-.9.6-.9.5,0,.5-.5.2-.8-.6-.5-2.4.1-2.7.8l-2.5,6.6c-.1-.1-.2-.1-.2-.2l-2.3-5.9c-.6-1.4-1-1.6-2.5-1.4-.3,0-.5.1-.5.4s.1.5.4.5c.7,0,.6.4.6.9-.1,2-.1,4-.2,6,0,.4,0,.8-.5.7s-.5.1-.5.5.3.4.6.4h1.4c.3,0,.6.1.7-.3s0-.6-.5-.6c-.3,0-.3-.2-.3-.4V146h.4l2.5,6.3c.1.3.1.8.7.8s.6-.5.7-.8Zm-19.3,2.6c.3-.2.7-.4,1-.6a2.29,2.29,0,0,0,1-2.4,2,2,0,0,0-1.7-1.8,17.85,17.85,0,0,0-4-.1c-.2,0-.5.1-.5.4s.1.5.4.5c.6,0,.5.4.6.8v6c0,.4.1.8-.6.8-.3,0-.4.1-.4.4a.47.47,0,0,0,.5.5h2c.3,0,.6-.1.6-.4s-.1-.5-.4-.4c-.7.1-.6-.4-.6-.9V150c0-.4-.3-1,.4-1.1a1.09,1.09,0,0,1,1.2.7,26.94,26.94,0,0,1,1.6,2.9c.4.9,1.1.6,1.7.6.2,0,.3-.2.3-.4s0-.4-.3-.4c-.8.1-.9-.6-1.1-1.1a29.36,29.36,0,0,0-1.7-2.6Zm4.5-.2h0v2.9c0,.4.1.9-.6.9-.3,0-.4.1-.4.4s.3.4.6.4h2.3c.4,0,.5-.2.5-.5s-.2-.4-.5-.4-.8.1-.8-.5a8.13,8.13,0,0,1,.1-2.2c.2-.4,1-.1,1.5-.3.2-.1.5-.1.7-.2a3,3,0,0,0,1.7-2.9,2.35,2.35,0,0,0-1.8-2.3,17,17,0,0,0-3.9-.1c-.3,0-.5.1-.5.4s0,.4.3.4c1,0,.8.7.8,1.3v2.7Z" fill="#085e66"/><path d="M168.08,455H38.38c-.7,0-1.7.5-1.8-.9,0-.3-.6-.2-.9-.1-.8.1-1.1-.3-1-1V333.43c0-.5-.5-1.3.7-1.4s1.2.3,1.2,1.3v118.3c0,1.3.4,1.5,1.6,1.5h260.5c.8-.1,1,.2,1,1s-.2,1-1,1h-31.6Z" fill="#12626a"/><path d="M223.68,357.93c.1,1.1-.5,2.2-.6,3.3,0,.7-.6.6-1.1.3-1.1-.7-1.9-1.8-3.3-1.8-.5,0-.6-.7-.6-1.2a13,13,0,0,0-.8-3.4.47.47,0,0,0-.4.5,3.93,3.93,0,0,1-2.4,3.3c-1.8.7-1.9,2.6-2.1,4.1-.2,1.9-.6,3.8-.8,5.7a6.55,6.55,0,0,1-2.1,4.3,13.41,13.41,0,0,0-2.3,4c-.4.8-.9,1.6-1.3,2.5s-1.5,1.3-2.4,1.8c-.3.2-.7-.2-.9-.6v-.6a1.71,1.71,0,0,0-.7-1.3c-.4-.2-.8.4-1.2.6-1.8.9-2.2,2.4-2.3,4.2-.1,1.1-.2,2.1-.4,3.2,0,.3-.1.6-.4.6a.63.63,0,0,1-.6-.5c-.1-.9-.4-.9-1-.3-.7.9-.9.1-1.1-.4-.5-1.5-.9-3-1.4-4.5-.8-2.2-1.1-4.5-2.2-6.6,0-.1-.1-.1-.1-.2-.1-.5.2-1.2-.6-1.2s-.8.7-.9,1.1a2.77,2.77,0,0,1-1.7,1.8c-.9.3-1.6,1-2.6.8-.4-.1-.4.2-.5.5-.3,1.6-1.5,2.6-2.2,4-.4.9-1.6.9-2.5,1.3s-1.7-.1-2.3-1c-.2-.2-.5-.7-1-.4s-.4.5-.4.8a11.24,11.24,0,0,1-2.6,6.8,18.69,18.69,0,0,0-1.7,3.1c-.6,1.2-1.8,2-2,3.5,0,.3-.3.3-.5.3-1,0-1.9.5-2.9.5s-2.6,1.7-2.8,2.6a11.69,11.69,0,0,1-.6,2c-.1.3-.4.5-.6.4-1.1-.6-1.9.2-2.6.8a1.14,1.14,0,0,1-1.9-.3q-.75-1.2-1.5,0c-.1.2-.1.7-.5.4a1.06,1.06,0,0,1-.6-.7,25,25,0,0,0-.5-2.9c0-.3.1-.6-.2-.7h0c-.7-1-1.8-.3-2.6-.5-1.2-.9-1.3-.9-1.9.6-.3.8-.5,1.8-1.7.8-.4-.3-.7.2-1,.5-.8,1-1.6,2.1-2.4,3.1-.6.7-1.1,1.5-2.2.7-.5-.4-.5.1-.6.4a1,1,0,0,1-1.5.4c-1.4-.6-1.5-.5-1.7,1-.5,5.6-1.1,11.3-1.6,16.9,0,.4-.2.7-.2,1-.1.6-.5.5-.9.5a.62.62,0,0,1-.8-.5v-.1a13.32,13.32,0,0,1-.5-3.4c0-2-.4-4-.5-6.1,0-.9-.8-.9-1.3-1.2-.8-.5-1.8-.9-1.8-2.2a2.06,2.06,0,0,0-1,1.7,70.74,70.74,0,0,0-1.3,10.3,29.84,29.84,0,0,1-.4,4.2,1.74,1.74,0,0,1-.6,1.1,23.92,23.92,0,0,1-2.1,1.3c-.5.3-.8.4-1.2-.1s-.6-.3-.7.2-.3,1.1-1.1,1c-.4,0-.5.3-.6.6a2.13,2.13,0,0,0,0,.8,2.72,2.72,0,0,1-2.5,2.7,4.25,4.25,0,0,1-1.1-.2.88.88,0,0,1-.7-.9,2.69,2.69,0,0,0-.5-1.5c-.6,1.5-.7,3-1.4,4.3-.1-.3.1-.7-.2-1,0,0-.3.2-.5.3a53.2,53.2,0,0,0,1.4-8.9c0-.5.2-1.5.7-1.5.8,0,.7.9.8,1.5a56,56,0,0,0,.7,5.9c.1.4,0,.9.6.8s1.1.3,1.4-.4a3.19,3.19,0,0,0,.3-1.4,17.73,17.73,0,0,1,.5-3.2c0-.4.3-.5.7-.5.9.2,1-.3,1-1V426a1,1,0,0,1,.7-.9c.4-.1.5.4.6.7a1.69,1.69,0,0,1,.2.5c.2.4-.2,1.2.7,1.1A1.92,1.92,0,0,0,128,426c.4-3.2.7-6.3.9-9.5A53.51,53.51,0,0,1,130,411c.2-1.4.5-2.7.7-4.1,0-.3.1-.6.1-.9a.63.63,0,0,1,.6-.5c.2,0,.4.3.4.6.2,1.2.5,2.4.7,3.6a2.37,2.37,0,0,0,1.6,2,2.44,2.44,0,0,1,1.6,2.7,16.28,16.28,0,0,0,.8,4.4,4.28,4.28,0,0,0,.6-2.2l.9-9.9c.1-1.1.3-2.2.4-3.3.1-.6.4-.9,1.1-.6a4.18,4.18,0,0,1,1,.4c.8.4,1.2,0,1.4-.7,0-.2.1-.3.1-.5.1-.5.3-1,.7-1a1,1,0,0,1,.8,1c0,.5.2.6.6.6a.55.55,0,0,0,.6-.4,28.83,28.83,0,0,1,3-3.9c.8-.7,2.1-.7,2.5-2a1.53,1.53,0,0,1,1.9.3,2.29,2.29,0,0,0,2.1.7c1.4-.1,1.7.7,1.8,1.8,0,.7.1,1,.9,1,1,0,1.3.9,1.9,1.5.3.4.5.4.8.2a6.38,6.38,0,0,1,2.8-1.5c.5-.1.4-.6.4-1a5.15,5.15,0,0,1,3.9-3.5,4,4,0,0,0,3.4-2c1.3-2.1,2.2-4.5,3.9-6.4a5.1,5.1,0,0,0,1.1-3.1,23.36,23.36,0,0,1,.4-2.6c.1-.5,0-1.1.7-1.3a1.67,1.67,0,0,1,1.9.8,2.35,2.35,0,0,0,3.1.7,1.76,1.76,0,0,0,.5-.4,10.78,10.78,0,0,0,2.1-3.4,7.94,7.94,0,0,0,.6-2.2c.1-.8.7-.6.9-.4.4.4.6.8,1.2.6a3.9,3.9,0,0,0,2-1.3,21.3,21.3,0,0,0,1.4-3.5c.2-.4.3-.7.7-.7s.4.5.5.8c.7,2.4,1.4,4.8,2.2,7.1.4,1.3.9,2.5,1.2,3.8.1.3.2,1,.8.9s.2-.6.3-.9c.2-.6.2-1.5,1.2-.6.4.4.6-.1.6-.4.2-1.1.4-1.9,1.9-2,.7,0,1.4-1,1.9-1.6.7-.8,1.1-.5,1.4.3.2.4.2.9.4,1.4s.1.8.6.8a1.1,1.1,0,0,0,1-.6c.9-1.8,1.9-3.5,2.8-5.2a14.29,14.29,0,0,1,1.4-2,4.34,4.34,0,0,0,1.3-3,44.07,44.07,0,0,1,1.7-9.5c.4-1,1.4-1.2,2.2-1.7a2.47,2.47,0,0,0,1.2-1.9,9.46,9.46,0,0,1,.5-1.8c.2-.4.2-.9.8-.9a1.52,1.52,0,0,1,1.2.7,2.6,2.6,0,0,1,.4,1.5,14.68,14.68,0,0,0,.5,2.9c0,.3.2.5.4.4.6-.1.9.4,1.3.7,1.2.8,1.5.7,1.7-.6.4-2.3.8-4.5,1.1-6.8.1-.4,0-.9.6-1s.8.4.9.9c.2,1.6.4,3.2.5,4.9.1.6.1,1.1.8,1.4s.8,1.2,1.1,1.9c.7,1.5,1.3,3,2,4.7a10.3,10.3,0,0,0,1.4-5.1c.1-1.3.5-2.6.6-3.9,0-.6.4-1.1,1-.4.7.9,1,.3,1.4-.2a24.3,24.3,0,0,0,2-3.5c.2-.4.3-.9.9-.6s.1.6,0,1a24.66,24.66,0,0,1-3.1,5.2c-.1.1-.1.3-.3.3-1.6.2-1.3,1.4-1.4,2.4a43.56,43.56,0,0,1-1.1,5.2c-.1.4-.3.8-.8.8s-1.1,0-1.3-.6c-.6-1.3-1.1-2.6-1.7-3.8-.3-.7-.2-1.9-1.6-1.1-.3.2-.7-.1-.6-.6a8.53,8.53,0,0,0,0-1.6,4.45,4.45,0,0,0-.3-2.3C223.88,356.33,223.48,357.13,223.68,357.93Zm-93.9,57.5h-.1V420h.1Z" fill="#33767d"/><path d="M142.28,164.23c1.5-2.5,3.1-4.9,4.4-7.5a78.41,78.41,0,0,0,5.8-14.8,8,8,0,0,1-.6,3.7c-1,2.8-1.9,5.7-2.9,8.5a51.68,51.68,0,0,1-3.6,7.5,73.93,73.93,0,0,1-4.7,7.6,49.06,49.06,0,0,1-3.9,5.1,76.77,76.77,0,0,1-5.5,5.9,79.29,79.29,0,0,1-13.3,10.4,71.94,71.94,0,0,1-12.7,6.4c-2.1.8-4.3,1.6-6.5,2.2a94.07,94.07,0,0,1-10.2,2.4,42.93,42.93,0,0,1-5,.7c-2.7.1-5.4.5-8.1.4a13.68,13.68,0,0,1-3.5-.1c-2.1-.7-4.2-.1-6.2-.7-1.3-.4-2.9-.3-4.3-.6a62.94,62.94,0,0,1-9.5-2.4,12.66,12.66,0,0,0-3.9-1.2,14.76,14.76,0,0,1-2.7-1,60,60,0,0,1-6.8-3.2,77.76,77.76,0,0,1-13.2-8.8,84.16,84.16,0,0,1-18.6-22,77,77,0,0,1-4.3-9.2,38,38,0,0,1-1.8-4.7c-.3-1-.9-2-.6-3.3.8,2,1.5,3.9,2.3,5.7A73.51,73.51,0,0,0,13,169.13a24.79,24.79,0,0,1,2.9,3.7,1.19,1.19,0,0,0,.4,1.1,78.19,78.19,0,0,0,7,7.1,63.41,63.41,0,0,0,9.1,7.1,59.52,59.52,0,0,0,6,3.6c2.1,1,4.2,2.1,6.3,3.1,1.9.9,4,1.4,6,2.3a31.66,31.66,0,0,0,4.4,1.2c1.1.3,2.2.8,3.3,1a48.52,48.52,0,0,0,5.5.9,70.47,70.47,0,0,0,7.9.8h8a32.53,32.53,0,0,0,4.4-.3c2.4-.4,4.9-.7,7.3-1.2a81.2,81.2,0,0,0,9.7-2.5,74.11,74.11,0,0,0,10.9-4.6,27.56,27.56,0,0,0,3.9-1.8c2.1-1.4,4.3-2.9,6.3-4.4a65.54,65.54,0,0,0,6.6-5.2c2.2-2,4.2-4.2,6.2-6.4.7-.8,1.4-1.6,2-2.4.9-1.2,2.3-2.2,2.4-3.9h0a2.15,2.15,0,0,0,1.4-1.9h0c.7-.1.4-.6.5-1,.1-.2.2-.3.3-.5l.2-.2.3-.5Z" fill="#d2d2d2"/><path d="M194.18,171.83c1.6,1.7,3.2,3.4,4.9,5a78.5,78.5,0,0,0,37,20.2c3.2.7,6.5,1.3,9.8,1.7a88.32,88.32,0,0,0,13.6.4,78.8,78.8,0,0,0,18.6-3.2,78,78,0,0,0,12.4-4.9,68.87,68.87,0,0,0,14.5-9.3,78.47,78.47,0,0,0,7.4-6.7c1.9-2,3.7-4.1,5.5-6.3a.55.55,0,0,1,.5-.3,2.92,2.92,0,0,1-.2.9c-1.1,1.7-2.5,3.2-3.7,4.8-1,1.2-2,2.3-3.1,3.4a25.26,25.26,0,0,1-3.6,3.7c-2.4,1.8-4.6,3.7-7.1,5.4s-4.6,3.2-7,4.6a48.38,48.38,0,0,1-7.2,3.6,63.76,63.76,0,0,1-9.2,3.4c-1.2.3-2.4,1-3.7,1a13.59,13.59,0,0,0-3.5.7,49,49,0,0,1-10.1,1.3,66.1,66.1,0,0,1-8.9.1c-3.4-.2-6.6-.6-9.9-1.1a54,54,0,0,1-9-2.3,84.87,84.87,0,0,1-10-3.6c-2.6-1.2-5.1-2.5-7.6-3.9a63.05,63.05,0,0,1-9.4-6.9c-1.4-1.2-3-2.4-4.3-3.7-1.9-1.9-3.7-3.8-5.4-5.8A2.51,2.51,0,0,1,194.18,171.83Z" fill="#c6c5c5"/><path d="M194.18,171.83a3.86,3.86,0,0,0,1.1,2.2c1.7,2,3.6,3.9,5.4,5.8,1.3,1.3,2.9,2.5,4.3,3.7a63.05,63.05,0,0,0,9.4,6.9,60.65,60.65,0,0,0,7.6,3.9,59.67,59.67,0,0,0,10,3.6,54,54,0,0,0,9,2.3c3.3.5,6.6.9,9.9,1.1a88.08,88.08,0,0,0,8.9-.1,57,57,0,0,0,10.1-1.3,11.33,11.33,0,0,1,3.6-.6c1.2,0,2.4-.7,3.7-1a72.22,72.22,0,0,0,9.2-3.4,48.38,48.38,0,0,0,7.2-3.6c2.4-1.4,4.7-3,7-4.6s4.7-3.6,7.1-5.4a31.46,31.46,0,0,0,3.6-3.7c1.1-1.1,2.1-2.2,3.1-3.4,1.2-1.6,2.6-3.1,3.7-4.8a1,1,0,0,0,.2-.9h0a2.29,2.29,0,0,0,1.5-2.2h0c.5,0,.5-.4.5-.7l.3-.5.2-.2c.1-.2.2-.3.3-.5l.2-.2c1.5-2.4,3-4.9,4.3-7.4a75.36,75.36,0,0,0,5.8-14.9c.2,1.1,0,2.4-.9,4.8-1,2.8-1.9,5.6-3,8.4a56.77,56.77,0,0,1-3.9,7.8,65.36,65.36,0,0,1-5.9,8.9,60.93,60.93,0,0,1-5.3,6.1,52.86,52.86,0,0,1-4.1,4.1c-1.5,1.1-2.8,2.5-4.3,3.6-1.3.9-2.6,2-3.9,2.9a96.09,96.09,0,0,1-8.7,5.3c-2.3,1.2-4.6,2.3-7,3.3-2.2.9-4.4,1.6-6.7,2.3s-4.4,1.3-6.6,1.7a73.44,73.44,0,0,1-9.4,1.4c-2.4.1-4.8.5-7.2.4a14.47,14.47,0,0,1-3.6-.1c-2.1-.6-4.2,0-6.2-.7a29,29,0,0,0-4.1-.6q-3.3-.6-6.6-1.5c-2.2-.6-4.1-1.4-6.2-2.1a77.77,77.77,0,0,1-10.3-4.4,97.73,97.73,0,0,1-8.8-5.3,62.55,62.55,0,0,1-5-4,64.22,64.22,0,0,1-6.1-5.6,98.54,98.54,0,0,1-6.7-7.8c-2-2.6-3.6-5.5-5.4-8.2a56.89,56.89,0,0,1-2.6-5.6,60.73,60.73,0,0,1-2.9-7,11.7,11.7,0,0,1-1.1-4.9c.9,2.2,1.6,4.3,2.5,6.3a73.37,73.37,0,0,0,9.6,16.5l.6.9c0,.4,0,.7.5.7l.5.5c0,.5.1,1,.7,1A1.8,1.8,0,0,1,194.18,171.83Z" fill="#d2d2d2"/><path d="M139.38,168.53c-.1,1.7-1.5,2.7-2.4,3.9-.6.8-1.4,1.6-2,2.4a74.7,74.7,0,0,1-6.2,6.4,65.54,65.54,0,0,1-6.6,5.2c-2.1,1.5-4.2,2.9-6.3,4.4a33.89,33.89,0,0,1-3.9,1.8,85.42,85.42,0,0,1-10.8,4.6c-3.2,1-6.4,1.8-9.7,2.5-2.4.5-4.9.8-7.3,1.2a32.53,32.53,0,0,1-4.4.3h-8a68.17,68.17,0,0,1-7.9-.8,52.49,52.49,0,0,1-5.5-.9c-1.1-.3-2.2-.7-3.3-1a38.09,38.09,0,0,1-4.5-1.3c-1.9-.9-4-1.4-6-2.3s-4.2-2.1-6.3-3.1a59.52,59.52,0,0,1-6-3.6,76.84,76.84,0,0,1-9.1-7.1c-2.6-2.1-4.6-4.8-7-7.1a1.5,1.5,0,0,1-.4-1.1c1.6,1.6,3.2,3.1,4.8,4.7a76.66,76.66,0,0,0,15.6,11.5,79.1,79.1,0,0,0,30.6,9.8c3,.3,6,.4,8.9.4a77.66,77.66,0,0,0,21.4-2.8,81.88,81.88,0,0,0,29.5-15.1,69.87,69.87,0,0,0,12-12.3C138.88,168.73,139.08,168.53,139.38,168.53Z" fill="#c6c5c5"/><path d="M65.08,440.63a11.8,11.8,0,0,0,.4,2c.1.2.2.4.4.4s.3-.2.3-.4a49.41,49.41,0,0,0,2.9-11.3c.3-2.1.6-4.2.9-6.4.1-.5.5-.8.6-1.3s.3-1,.9-1,.6.5.7,1c.2.7.7.7,1.1.3,1.1-1.2,2.7-2,3-3.9a2.09,2.09,0,0,1,1.1-1.5.66.66,0,0,0,.4-.5c.6-2.2,2.1-3.9,3.4-5.7.4-.6.8-.8,1.3,0a2.54,2.54,0,0,0,1.4,1.3c.6.1.7.7.7,1.2,0,.3,0,.7.5.7a.62.62,0,0,0,.8-.5,36.54,36.54,0,0,0,3.2-5.4c.5-1.5,1.8-2.6,2.3-4.2.3-1.1.3-2.2.7-3.3.6-1.8,2.1-2.8,3.1-4.2.2-.4.7-.2.9.2a2,2,0,0,0,1.6,1.2c.7.1,1,1.1,1.3,1.7a28.17,28.17,0,0,0,2.1,3.8c.2.2.2.7.6.5a1.37,1.37,0,0,0,.5-.8,19.42,19.42,0,0,0,.2-2.4,2,2,0,0,1,.1-.8c.2-.5,0-1.4.8-1.4a1.59,1.59,0,0,1,1.3,1.4,53.11,53.11,0,0,1,1.1,8,21.66,21.66,0,0,0,.4,2.5c0,.2.3.4.5.4h0c.3,0,.2-.3.2-.5.2-1.9,1.1-3.5,1.4-5.4,0-.3.2-.9.7-.8s.5.5.5.8a19.42,19.42,0,0,1,.2,2.4c.3,4.9,1.1,9.7,1.1,14.5a2,2,0,0,0,1.1,2c.9.5.9,1.7,1.1,2.6a49.13,49.13,0,0,0,1.5,5.1c.3,1,.1,2.1.8,3,.1.2.2.3.4.3-.6.2-1.2.5-1,1.4a24,24,0,0,1-1.2-3.8,55.75,55.75,0,0,0-1.8-5.8c-.4.1-.6,1-1.2.6s-.3-.9-.3-1.3l-1.2-14.7a7.72,7.72,0,0,0-.2-1.5.46.46,0,0,0-.5-.4h0c-.3,0-.2.3-.2.5-.3,1.7-1.2,3.2-1.2,4.9,0,.4-.3,1-.7,1s-.6-.6-.7-1a7.72,7.72,0,0,1-.2-1.5c-.1-3.7-.8-7.3-1.2-11-.1-.1-.1-.3-.2-.4-.8.9-.6,2-.9,2.9-.2.7.3,1.8-.6,2s-1-.9-1.3-1.5a57,57,0,0,1-3-5.4c-.2-.4-.4-.8-.8-.8a1.62,1.62,0,0,1-1.6-.9c-.3-.5-.5-.1-.7.1a6.69,6.69,0,0,0-2.2,4.5,6,6,0,0,1-1.1,3.4,13.06,13.06,0,0,0-2.1,3.6,38.66,38.66,0,0,1-3.8,5.8c-.2.2-.3.5-.8.3s-.6-.3-.6-.7a4,4,0,0,0-1.7-3c-.5-.4-.8-.4-1.2.1a9.8,9.8,0,0,0-2.2,4,1.42,1.42,0,0,1-.2.6c-1.8,2-2.6,4.9-5.1,6.4-.1,0-.2,0-.2.1-.7,1-1.4,1.1-2.1-.1a2.72,2.72,0,0,0-.6,1.7c-.5,3-.9,6-1.4,8.9a42.1,42.1,0,0,1-2,6.3,19.57,19.57,0,0,1-1.2,3.4c-.3.5-.5.7-.9.1a5,5,0,0,1-.8-2l.1-.1c.7-.6,0-1.5.3-2.3Z" fill="#33767d"/><path d="M254.88,506c.8.6,1.6,1,2.3,1.5,4,3,3.7,8.3-.9,10.5a9.1,9.1,0,0,1-8.9-.3,5.74,5.74,0,0,1-2-8,5.81,5.81,0,0,1,1.7-1.8c.8-.6,1.6-1.1,2.4-1.7-.8-.5-1.5-1-2.2-1.5a5.31,5.31,0,0,1-.3-8.4c2.8-2.5,8.6-2.4,11.1.1a5.06,5.06,0,0,1,.2,6.8A10.22,10.22,0,0,1,254.88,506Zm-2.8,10.8h0a4.87,4.87,0,0,0,1.2-.1,4.28,4.28,0,0,0,3.7-2.6c.6-1.5.1-3-1.3-4.3a15.21,15.21,0,0,0-3.8-2.4.91.91,0,0,0-1,0,7.14,7.14,0,0,0-3.1,3.1c-1.2,2.7-.1,5.4,2.6,6.1C251,516.73,251.48,516.73,252.08,516.83Zm.2-20.1a6.6,6.6,0,0,0-1.4.1c-1.4.3-2.6.8-3.1,2.3a3.08,3.08,0,0,0,.8,3.3,9,9,0,0,0,1.9,1.5c2.6,1.6,3.9,1.3,5.7-1.3a3.61,3.61,0,0,0-.6-5,3.86,3.86,0,0,0-2-.8A5.28,5.28,0,0,0,252.28,496.73Z" fill="#12626a"/><path d="M160.78,307c6.9,1.2,11-2.7,10.8-10-.4-.1-.5.3-.7.5-4,3.3-10.2,1.7-11.6-3a7.86,7.86,0,0,1,2.4-8.3,8,8,0,0,1,8.3-.8,8.5,8.5,0,0,1,4,6.2,18.18,18.18,0,0,1-1,11.5c-2.4,5.2-6.3,6.6-11.5,6.3-.6,0-.9-.3-.8-.9A7.08,7.08,0,0,0,160.78,307Zm.9-15.1c0,3,1.2,4.7,3.8,5.1a6.77,6.77,0,0,0,5.9-2,.91.91,0,0,0,.4-.8,11.75,11.75,0,0,0-1.9-5.8,3.62,3.62,0,0,0-2.9-1.6c-3.4-.2-5.3,1.7-5.3,5.1Z" fill="#12626a"/><path d="M275.78,510.73a8.73,8.73,0,0,1-6.5,2.5c-2.8,0-6.2-3.5-6.2-6.3-.1-4.7,2.7-7.6,5.7-8.1,4.4-.8,7.8,1,9,5.4,1.5,5.4,1.2,10.6-2.1,15.4-2.3,3.2-7,4.4-10.4,3.6-1-.2-.4-1.1-.4-1.7-.1-.8.6-.5,1-.4a8.16,8.16,0,0,0,9.8-7.2A11.76,11.76,0,0,1,275.78,510.73Zm-5.5.3a7.24,7.24,0,0,0,4.9-1.8,1,1,0,0,0,.5-1.1,11.06,11.06,0,0,0-1.7-5.3,4.15,4.15,0,0,0-2.4-1.9c-2.9-.8-5.4.9-5.9,4-.6,3.4,1.4,6.1,4.6,6.1Z" fill="#12626a"/><path d="M298.78,12.53c.1-2.6.1-5.3.2-7.9,0-.7-.1-1.1-.9-.9s-.8-.2-.8-.9.1-1,.8-.9h1.7c2,0,2,0,2.8,2,1.4,3.6,2.8,7.1,4.2,10.9.5-1.2.9-2.2,1.3-3.3,1.1-2.9,2.3-5.8,3.3-8.7a1.13,1.13,0,0,1,1.3-.9h0a20.85,20.85,0,0,0,2.5,0c.5,0,1.1-.2,1.1.7s-.2,1.2-1.1,1c-.6-.1-.7.2-.7.7a108.42,108.42,0,0,1,.2,11.4c0,.7.5.6.9.6.8-.1,1,.2,1,1s-.3,1-1,1c-1.2,0-2.5-.1-3.7,0-.7,0-.8-.3-.7-.8s-.3-1.2.7-1.1c.4,0,.8.1.8-.6-.1-3.2-.1-6.4-.1-9.6a.76.76,0,0,0-.2-.5c-1,2.6-1.9,5-2.8,7.4l-1.8,4.5a.82.82,0,0,1-1,.7.92.92,0,0,1-1.1-.8l-3.9-10.2a1.35,1.35,0,0,0-.7-1q-.15,3.9-.3,7.5c-.4.5-.1,1.2-.2,1.7s.1,1,.8.9.7.4.7.9-.4.6-.8.6h-2.9c-.5,0-.9-.1-.9-.7s.3-.8.8-.8.9.1.9-.5A22.27,22.27,0,0,0,298.78,12.53Z" fill="#141839"/><path d="M291,507c0-2.8-.1-5.7,0-8.5,0-1.1-.3-1.4-1.3-1.3-.8.1-1.5.2-1.5-1.1,0-.9.3-1.1,1.2-1.1h13.3c.9,0,1.1.3,1.1,1.1-.1,1.1,0,2.2,0,3.4,0,.3.1,1-.4.8s-1.6.6-1.8-.6c0-.2-.1-.5-.1-.7-.1-1.7-.1-1.7-1.8-1.7h-5.2c-.7,0-.9.2-.9.9-.1,2.4,0,4.8,0,7.2,0,.7.2.9.9.9a14.05,14.05,0,0,1,2.9,0c.9.1,1.2-.1,1.1-1.1a1.21,1.21,0,0,1,1.8-1.2c.5.2.3.5.3.8v5.4c0,1-.6.8-1.1.9s-1,.1-1-.8c0-1.8,0-1.8-1.9-1.8-1,0-2.3-.4-2.9.2s-.2,1.9-.2,2.9c0,1.5.1,3,.1,4.5,0,.7.2.9.9.8h.8c1.2,0,1.7.7,1.3,1.8-.1.4-.4.3-.6.3h-7.1c-.8,0-.7-.5-.6-1s-.4-1.2.6-1.2c.7,0,1.6.4,2-.3a4.52,4.52,0,0,0,.1-2V507Z" fill="#12626a"/><path d="M143.18,296.33a1.23,1.23,0,0,0,1,.5c4.9,1.4,4.9,7.1,2.3,9.8a8.39,8.39,0,0,1-5.5,2.6,16.14,16.14,0,0,1-6.2-.4,2,2,0,0,1-.6-2.3c.2-.2.4,0,.6.1a18.36,18.36,0,0,0,6.6.3,4.74,4.74,0,0,0,4.1-5.3c0-.2-.1-.4-.1-.6-.4-1.9-1.8-2.6-3.4-3a11.5,11.5,0,0,0-3.2-.2c-1,.1-.7-.6-.7-1.1s-.2-1.1.7-1.1a5.38,5.38,0,0,0,5.2-2.5,4.65,4.65,0,0,0,.1-4.7,3.43,3.43,0,0,0-3.5-1.8h-1.2c-2.2.1-2.6.4-2.5,2.6,0,.9-.3,1.1-1.1,1s-1.4.1-1.3-1a4.85,4.85,0,0,0,0-1.7c-.2-1.3.4-1.9,1.6-2.3a12.13,12.13,0,0,1,6.8-.5,5.3,5.3,0,0,1,4.4,4.5,5.47,5.47,0,0,1-2.4,5.8A7,7,0,0,1,143.18,296.33Z" fill="#12626a"/><path d="M122.68,302.83h6.7c1,0,.6-.9.6-1.4-.1-1.2.4-1.4,1.4-1.3.6,0,.9.2.9.9a16.05,16.05,0,0,0,0,3.1c0,.7-.1,1-.9,1-2.4-.1-4.7,0-7.1-.1-1.3-.1-2.6.1-3.9.1-.4,0-1.2.4-1.3-.4s-.3-1.5.4-2.1a47,47,0,0,0,5.1-4.9,19.94,19.94,0,0,0,3.7-5.4c1.1-2.2.3-4.9-1.7-5.4a7.76,7.76,0,0,0-4.5.4.75.75,0,0,0-.5.7v1.3c0,1.4-.6,1.8-1.9,1.4-.4-.1-.4-.3-.4-.6v-1.7c0-2.5,0-2.5,2.4-3.3a11.87,11.87,0,0,1,5.3-.5c3.8.7,5.5,4.5,3.7,8.1a32,32,0,0,1-7.6,9.2l-.6.5C122.68,302.53,122.68,302.63,122.68,302.83Z" fill="#12626a"/><path d="M216.18,145.73l.3.6c0,.4-.1.8.5.8h0a3.59,3.59,0,0,0,.2,1.1,33.26,33.26,0,0,0,5.4,7.5,42.41,42.41,0,0,0,24.3,13.8,45.35,45.35,0,0,0,7.4.9,47,47,0,0,0,10.6-.9,46.37,46.37,0,0,0,6.4-1.7,42.8,42.8,0,0,0,9-4.7,43.65,43.65,0,0,0,8.6-7.4,39,39,0,0,0,5.2-6.9,2.9,2.9,0,0,0,.5-1.8v-.2a2.67,2.67,0,0,1,1.4.7c-1.3,1.9-2.4,4-3.8,5.9a71.67,71.67,0,0,1-5.2,5.8,37.84,37.84,0,0,1-7.9,5.9,39.91,39.91,0,0,1-9.9,4.4,44.34,44.34,0,0,1-12,2,36.33,36.33,0,0,1-10.4-.9,47,47,0,0,1-9-2.8,75.79,75.79,0,0,1-7.4-4,34.93,34.93,0,0,1-7-5.7,41.76,41.76,0,0,1-8.3-11.3,2.2,2.2,0,0,1-.1-.8A4.22,4.22,0,0,1,216.18,145.73Z" fill="#d2d2d2"/><path d="M37.18,146a1.69,1.69,0,0,1,.2.5,1,1,0,0,1-.1.3,42.54,42.54,0,0,0,7.5,10.3c.8.6,1.3,1.5,2.1,2.1,2,1.6,4.1,3.1,6.2,4.6a27.73,27.73,0,0,0,4.8,2.6c2.1.8,4.2,1.4,6.3,2.2,2.5,1,5.1,1.1,7.7,1.5a42.77,42.77,0,0,0,8,.1,27.22,27.22,0,0,0,7.5-1.1,64.84,64.84,0,0,0,7.8-2.6,51.19,51.19,0,0,0,10.6-6.7,43.93,43.93,0,0,0,8.2-9,9.26,9.26,0,0,0,2-4.1,1.85,1.85,0,0,1,1.2.7c-1.2,1.9-2.3,3.8-3.6,5.7a49.57,49.57,0,0,1-5.3,5.9,42.88,42.88,0,0,1-8,6,47.87,47.87,0,0,1-11.4,4.9,41.74,41.74,0,0,1-10.6,1.5,39.74,39.74,0,0,1-12.4-1.4,52.48,52.48,0,0,1-6.7-2.2,51.92,51.92,0,0,1-7.7-4.2,38.26,38.26,0,0,1-7.3-6c-2.7-2.9-5.4-5.8-7.1-9.4-.3-.7-1-1.4-.9-2.2C36.28,145.83,36.68,145.63,37.18,146Z" fill="#d2d2d2"/><path d="M138.88,505.43a1.85,1.85,0,0,0-2.4-.4c-.9.5-1.7.9-1.7,2.2a45.1,45.1,0,0,0,0,5.2c0,.4-.1.8.6.9s.2.8.4,1.3-.2.5-.6.5h-3.6c-.8,0-.6-.5-.7-1s0-1,.7-.9.9-.3.9-1v-6.4c0-.6-.1-.9-.8-.9-1,.1-.7-.6-.8-1.2-.1-.8.5-.6,1-.6h1.6c.8-.1,1.2.1,1.1,1.2a5.11,5.11,0,0,1,3.9-1.4,2.06,2.06,0,0,1,1.9,1c.4.6.6.5,1,.1a4.12,4.12,0,0,1,2.1-1c2.6-.3,3.6.4,3.9,3.1-.4,2.1-.1,4.2-.2,6.3,0,.6,0,1.2.9,1.1.4,0,.5.2.5.6a.53.53,0,0,1-.6.6h-3.1c-.3,0-.6-.1-.6-.4s-.1-.7.4-.8a.71.71,0,0,0,.6-.3v.1h-.1c.4-.2.3-.6.3-1v-5.5c0-.3.1-.7-.2-1-.6-1.2-1.1-1.4-2.4-.9a2.71,2.71,0,0,0-2.1,2.9,50.93,50.93,0,0,0,.1,5.5c-.1.2,0,.2.2.2.5,0,.9.1.8.7s-.5.5-.9.5h-2.6c-.3,0-.6-.1-.6-.5s0-.7.4-.7c.9,0,.8-.6.8-1.1v-6C139.18,506.13,139.38,505.73,138.88,505.43Z" fill="#253f4e"/><path d="M168.08,243.23c.7,3,0,4.8-2.2,6.1a4.62,4.62,0,0,1-2.6.4c-.6-.1-.9.1-1,.7s.4.7.9.8a21.74,21.74,0,0,1,3.6.2,3.4,3.4,0,0,1,2.6,4,3.48,3.48,0,0,1-.7,1.5,6.28,6.28,0,0,1-8.1,1.1,3.13,3.13,0,0,1-.6-4.3l.3-.3c.4-.4.6-.7.2-1.3a2.27,2.27,0,0,1,.4-2.6.79.79,0,0,0,.1-1.1l-.1-.1a4.67,4.67,0,0,1-.2-5.4c1-1.5,2.7-2,4.7-1.6a16.08,16.08,0,0,0,3.1.1c.7,0,1,.1.9.9s0,1.2-.9,1A.25.25,0,0,0,168.08,243.23Zm-3.9,10h-1a1.39,1.39,0,0,0-1.7.9v.1a2,2,0,0,0,.7,2.5,4.13,4.13,0,0,0,4.4-.6,1.68,1.68,0,0,0,.4-1.9,1.62,1.62,0,0,0-1.6-1.1,4.12,4.12,0,0,1-1.2.1Zm2-8c0-1.7-.6-2.4-2.1-2.4s-2.1.8-2,2.4.8,2.6,2.1,2.7,2-.9,2-2.7Z" fill="#141839"/><path d="M271.88,3.63c-.4-1.6-.4-1.7,1.1-1.6,2.1.1,4.3-.3,6.4.2s3,1.5,3.1,3.6a4.24,4.24,0,0,1-2.3,4.3,6.89,6.89,0,0,0-1,.4,30,30,0,0,1,3.3,5.4.75.75,0,0,0,.9.4c1.1-.2.9.5,1,1.2.1,1-.6.7-1.1.8h-.2c-1.5.3-2.1-.4-2.7-1.7a40.93,40.93,0,0,0-2.5-4.6,2,2,0,0,0-.9-.9,1.4,1.4,0,0,0-1.4-.2c-.4.1-.1.6-.2,1v3.6c0,.7.1,1.1.9.9,1-.2.8.5.9,1.1s-.3.8-.9.8c-.8-.1-1.7,0-2.5-.1-.3-.3-.7-.2-1-.2s-.9,0-.9-.6.3-.9.9-.8c.9.1.8-.5.8-1.1V4.73C273.58,3.33,273.48,3.23,271.88,3.63Zm3.6,2.7v1.8c-.1.7.1,1.1.9.9.4-.1.8,0,1.2-.1,2.1-.1,2.9-1.1,2.8-3.1-.1-1.6-1.2-2.2-4-2.1-1.7,0-.5,1.3-.8,1.9C275.38,5.83,275.48,6.13,275.48,6.33Z" fill="#141839"/><path d="M235.48,8.33c.8,2.9,0,4.9-2.2,6.1a4.16,4.16,0,0,1-2.7.3c-.8-.1-.8.4-.9.8s.3.7.8.7a15.89,15.89,0,0,1,3.8.2,3.19,3.19,0,0,1,2.6,3c.1,1.5-.9,2.5-2,3.4a5.86,5.86,0,0,1-5.4.9,3.21,3.21,0,0,1-1.7-5.4A1,1,0,0,0,228,17a2.29,2.29,0,0,1,.4-2.5c.4-.4.4-.7,0-1.2a4.86,4.86,0,0,1-.2-5.3,4.27,4.27,0,0,1,4.7-1.7,15.06,15.06,0,0,0,3,.1c.6,0,1.1-.2,1.1.8s-.3,1.2-1.2,1.1C235.78,8.23,235.58,8.23,235.48,8.33ZM229,20.13c0,1.5.2,1.7,1.8,2.1a6,6,0,0,0,2.3-.1c1.4-.1,1.9-1,1.7-2.7-.1-1.3-1.1-1.2-2-1.3H231C229.08,18,229,18.23,229,20.13Zm2.7-12.2c-1.4,0-2,.6-2,2.2,0,1.9.6,2.9,2,2.9s2-1,2-2.6-.7-2.5-2-2.5Z" fill="#141839"/><path d="M64.58,443.23a41.5,41.5,0,0,1-.8-7.9,8.87,8.87,0,0,0-.7-2.8c-.9,1.2.1,2.9-1.2,3.9-1-1.2-1.2-2.7-1.9-4-.1-.2-.1-.5-.4-.5s-.3.4-.4.6a7,7,0,0,0-.4,2.9c0,.5-.2.8-.7.8s-.5-.4-.5-.8c0-2.1-.7-4.1-.5-6.2,0-.2.1-.5-.3-.7a1.56,1.56,0,0,0-.8,1.3,3,3,0,0,1-1.3,2.3c-1.9,1.4-2.3,3.4-2.6,5.4-.2,1.3-.7,2.4-.9,3.7-.1.4-.2,1.1-1,1.1a.47.47,0,0,0-.4.6c.1,1.3-.5,2.5-.5,3.8s-1,2.2-1.4,3.4a15.11,15.11,0,0,1-.9,1.8.63.63,0,0,1-.9.3H46c-.4-.2-.1-.5,0-.8a19.67,19.67,0,0,0,2.7-8.8c.1-.8-.1-1.9,1.4-2,.3,0,.6-1.2.7-1.9.1-1.4.7-2.7.9-4.1s1.4-2.1,2.3-3a5,5,0,0,0,1.3-2.5,22.85,22.85,0,0,1,1.2-3.7c.1-.3.3-.6.6-.6.5,0,.6.4.6.7.1.8.1,1.6.2,2.4s.1.7.8.5.7.4.9.8c.4,1,.8,2,1.2,2.9.1.3.1.6.4.6s.4-.4.5-.7a25.79,25.79,0,0,0,.4-3.9,5.85,5.85,0,0,1,.2-1.3c.1-.3.2-.6.6-.6s.3.4.3.7a50.43,50.43,0,0,1,1.6,12.2q-1.05.6,0,1.2v.5l-.1.1c-.6.5,0,1.5-.1,2.3Z" fill="#33767d"/><path d="M97.58,23.63h-1.4c-.4-.1-1.2.5-1.2-.6,0-.7-.1-1.5,1-1.3.4.1.5-.2.5-.6V8.93c0-.6-.2-.7-.7-.6-1,.2-.8-.6-.8-1.1-.1-.7.3-.9.9-.8a10.82,10.82,0,0,0,1.8,0H98c.9,1.1,1.7,0,2.4-.2a4.28,4.28,0,0,1,5.1,3.5v.1a9.17,9.17,0,0,1-.8,6.3,4.53,4.53,0,0,1-5.3,2.4c-.7-.2-.9,0-1,.6s0,1.4-.1,2.1.5.6.9.6c.9-.1.9.4.9,1,0,.8-.4.8-1,.8h-1.5Zm.9-11v3c0,.4,0,.7.4.9a3.58,3.58,0,0,0,3.7-.6c1.3-1.5,1.4-5.5.2-7.1A2.37,2.37,0,0,0,100,8a1.91,1.91,0,0,0-1.5,2.2v2.4Z" fill="#141839"/><path d="M178.58,288.23a8.92,8.92,0,0,1,1.3-5.3,5.34,5.34,0,0,1,7.4-1.6,4.75,4.75,0,0,1,1.9,2.3,9.85,9.85,0,0,1-.2,9,5.23,5.23,0,0,1-5.5,3,6,6,0,0,1-4.8-4.7A12.21,12.21,0,0,1,178.58,288.23Zm2.3-.3a14.08,14.08,0,0,1,.1,2c.1.5.2.9.3,1.4a3,3,0,0,0,2.9,2.3,2.72,2.72,0,0,0,2.9-2.2,11,11,0,0,0,0-6.7,2.81,2.81,0,0,0-2.9-2.2,2.92,2.92,0,0,0-2.9,2.2,12.19,12.19,0,0,0-.4,3.2Z" fill="#12626a"/><path d="M197.28,297.43a8,8,0,0,1,1.4-5.4,5.37,5.37,0,0,1,5.9-1.9c2.5.6,3.5,2.6,4,4.9a11.06,11.06,0,0,1-.3,5.7c-1.5,4.5-5.9,5.5-8.9,3a6.84,6.84,0,0,1-2.1-4.7A8.53,8.53,0,0,1,197.28,297.43Zm2.3-.2a14.77,14.77,0,0,0,.1,2.1,7.37,7.37,0,0,0,.4,1.4,3,3,0,0,0,5.7.1,10.56,10.56,0,0,0,.1-6.8,3,3,0,0,0-5.8.1,7.77,7.77,0,0,0-.5,3.1Z" fill="#12626a"/><path d="M138.58,241.43v.7c0,2,.1,2.1,2.1,1.7.4-.1.5-.3.5-.6-.2-1,.5-.8,1.1-.8.9-.1.7.5.7,1,0,1.1-.1,2.3,0,3.5,0,.8-.4.7-.9.7s-1,.1-.9-.7c.2-1.6-1-1-1.7-1.1-1-.2-.9.6-.9,1.2,0,1.1.1,2.2,0,3.4-.1.8.2,1.2,1.1,1a8.17,8.17,0,0,0,4.1-.1c.2-.6-.2-1.3.2-1.9.4.4,1.1,0,1.3.4a5.33,5.33,0,0,1,.1,2.8c-.1.7-.9.3-1.3.4-1.9.1-3.7-.2-5.6.2-1,0-2,0-3,.1-.6,0-.9-.2-.8-.8s-.2-1.3.7-1.1,1.1-.3,1.1-1.2v-10.4c0-.5.1-1-.7-1-1.3,0-1.4-.2-.9-1.7a1.54,1.54,0,0,0,1.1.2h6.8c2.5,0,2.5,0,2.3,2.6,0,.5-.2.8-.8.8s-.7-.3-.7-.7.2-.9-.3-1.2h-.2c-1.4-.5-2.9-.2-4.4-.2-.3,0-.4.2-.4.5C138.38,239.73,138.48,240.63,138.58,241.43Z" fill="#141839"/><path d="M127.18,253.13c-.6-.1-1.4.6-1.7-.5-.1-.3-.3.1-.5.1-2.7,1.7-5.7.2-6.5-2.7a8,8,0,0,1,.7-6.6,4.73,4.73,0,0,1,5.6-2.2c.2,0,.4.1.7.1v-3.6c0-.6-.2-.9-.8-.8-.9.2-.9-.3-.9-1s.3-1,1-.9c1,.1,1.9-.3,2.9.2-.1.2-.1.4-.2.6v14.9c0,.6.2.9.8.8s.6.4.6.8-.2.6-.7.6A1.5,1.5,0,0,0,127.18,253.13Zm-1.7-6.1v-3.1c0-.4.1-.7-.4-.9a3.31,3.31,0,0,0-4.4,1.4c-.1.2-.2.5-.3.7a13.55,13.55,0,0,0-.2,2,7,7,0,0,0,.6,3.2,2.43,2.43,0,0,0,3.1,1.1,1.67,1.67,0,0,0,1.5-2v-.2A14.79,14.79,0,0,0,125.48,247Z" fill="#141839"/><path d="M248.08,253.13c-.6-.2-1.5.6-1.7-.6-.2.1-.4.1-.5.2-2.4,1.6-5.6.4-6.5-2.7a8.71,8.71,0,0,1,.6-6.7,4.86,4.86,0,0,1,5.6-2.3,2.2,2.2,0,0,0,.8.1v-3c0-.9,0-1.6-1.2-1.4-.5.1-.6-.3-.5-.7s-.3-1.2.4-1.2a8.3,8.3,0,0,1,3.5.2,1.42,1.42,0,0,0-.2.6v14.9c0,.6.2.9.8.8s.6.4.6.8-.2.6-.7.6A1.53,1.53,0,0,0,248.08,253.13Zm-1.6-6.1v-3.1c0-.3.1-.6-.3-.8a3.87,3.87,0,0,0-4.3,1,8,8,0,0,0,.1,6.6,2.66,2.66,0,0,0,3.1.9,1.74,1.74,0,0,0,1.4-2.1h0A20.83,20.83,0,0,1,246.48,247Z" fill="#141839"/><path d="M288.58,1.93a23,23,0,0,1,3.7.2c2.2.4,3.5,1.9,3.4,4.9a4.52,4.52,0,0,1-3.6,4.5,8.81,8.81,0,0,1-1.7.2c-1.7.2-1.7.1-1.7,1.9v1.1c-.2,1.2.1,1.9,1.5,1.6.7-.2.6.4.6.8s.4,1.1-.6,1.1h-4.8c-1,0-.6-.6-.6-1.1s-.1-1,.7-.9c1,.2,1.1-.3,1.1-1.2V4.73c0-.8-.1-1.3-1.1-1.2-.8.2-.8-.4-.8-.9s.1-.9.8-.8a16.33,16.33,0,0,0,3.1.1Zm.1,4.9h0v1.6c0,1.7-.4,1.6,1.6,1.6s3.1-1,3.2-2.9c.1-2.3-.7-3.2-3-3.3-1.8-.1-1.7-.1-1.7,1.7Z" fill="#141839"/><path d="M262.18,250c1.1-3.8,2.2-7.2,3.3-10.7.2-.6.1-.8-.5-.7-1.1.1-.7-.6-.8-1.2s.4-.6.8-.6h3.5c.6,0,.9.1.8.8-.1.5.2,1.1-.7,1-.7-.1-.9.2-1.1.9-1.3,4.2-2.7,8.3-4,12.5-.3.9-.6,1.4-1.6,1.2a1.06,1.06,0,0,1-1-.9c-1.4-4.3-2.9-8.5-4.2-12.8-.2-.6-.4-1.1-1.2-1s-.5-.6-.6-1-.1-.8.6-.8h4q.75,0,.6.6c-.1.4.4,1.2-.5,1.1-.6,0-.8.2-.6.8Z" fill="#141839"/><path d="M38.38,7.23a4.09,4.09,0,0,1,3.8-1.1,2.61,2.61,0,0,1,2.2,2.7v6.6c0,.6,0,1.1.8,1s.6.6.7,1,.1.9-.7.9c-1.1-.1-2.2,0-3.3,0-.5,0-.9-.1-.8-.7s-.4-1.3.6-1.2c.7,0,.6-.4.6-.8,0-2-.1-3.9,0-5.9s-.9-2.2-2.5-1.6-2,1.1-1.9,2.7,0,3.2,0,4.8c0,.3-.2.7.4.7,1.4-.1.8.9.8,1.5,0,.9-.7.4-1.1.4h-1.8a1.85,1.85,0,0,0-.7-.2c-.5,0-1,.1-1-.6s.3-.8.9-.8c.8,0,.6-.6.6-1.1V2.83c0-.7,0-1.2-.9-1.1-.5,0-.5-.4-.5-.8s.2-.7.6-.7h1.3c1-.1,1.2.3,1.2,1.2-.1,1.8,0,3.7,0,5.5,0,.2-.1.5.2.6S38.28,7.43,38.38,7.23Z" fill="#141839"/><path d="M17.18,14.93c1.1-3.7,2.3-7.4,3.4-11.1-.8-.1-1.8,0-1.5-1.3.1-.5.2-.6.7-.6h3.5c.5,0,1-.1,1,.7s0,1.2-.9,1c-.5-.1-.7.3-.8.8-1.2,3.7-2.4,7.4-3.6,11a12.66,12.66,0,0,0-.6,1.8,1.22,1.22,0,0,1-1.2,1.2H17c-1,0-1.1-.5-1.3-1.2l-4.2-12.6c-.2-.5-.2-1.1-1-1s-.8-.5-.8-1,.4-.6.9-.6h3.6c.5,0,.8.2.6.7s.4,1.2-.6,1.1c-.7-.1-.7.3-.6.8l3.4,10C17.08,14.73,17.08,14.83,17.18,14.93Z" fill="#141839"/><path d="M139,18.23c-.8-.3-1.9.8-2.5-.5-.2,0-.3.1-.5.2-2.3,1.6-5.5.5-6.5-2.7a8.34,8.34,0,0,1,.3-6.2,4.84,4.84,0,0,1,6-2.8c.2,0,.5.1.7.1v.3c0,.1,0,.1.1,0l.1-.1c0-1.2,0-2.3.1-3.5,0-.8.1-1.6-1.1-1.4-.5.1-.6-.3-.6-.7s.1-.7.6-.7H137c1.2-.2,1.5.3,1.5,1.5-.1,4.5,0,9.1,0,13.6,0,.4-.3,1,.5,1.2.5.1.9,0,1,.7S139.28,18,139,18.23Zm-2.4-6.1V8.93a.74.74,0,0,0-.4-.8,4.11,4.11,0,0,0-4,.7c-1.2,1.4-1.2,5.7.1,7.1a2.92,2.92,0,0,0,3.1.6,1.71,1.71,0,0,0,1.2-2.1v-2.3Z" fill="#141839"/><path d="M150.68,242.63a5.7,5.7,0,0,1,3.9-1.6,2.68,2.68,0,0,1,2.6,2.3,54.57,54.57,0,0,1,.2,7c0,.6,0,1.1.9,1s.5.7.6,1.2-.1.8-.7.8h-3.5c-.5,0-.8-.2-.6-.7s-.5-1.2.5-1.2c.6,0,.6-.2.6-.7v-5.9c0-1.8-1-2.4-2.6-1.6a2.63,2.63,0,0,0-1.8,2.8c.1,1.6,0,3.1,0,4.7,0,.3-.2.8.3.7,1.3-.1.8.9.8,1.5,0,.8-.7.4-1.1.4a11.29,11.29,0,0,1-2.6,0c-.4,0-1.1.4-1.1-.6,0-.7-.2-1.5,1-1.3.6.1.5-.3.5-.7V244c0-.6-.1-.9-.7-.8-1,.2-.8-.6-.8-1.1-.1-.8.3-.9.9-.8a4.29,4.29,0,0,0,1.6,0C150.48,241.13,150.88,241.43,150.68,242.63Z" fill="#141839"/><path d="M218.28,7.53a17.39,17.39,0,0,1,1.8-1.1c2.7-1.1,4.7.2,4.8,3.1v6c0,.6,0,1,.8.9,1.1-.1.6.7.6,1.1s0,.8-.7.8a15,15,0,0,0-3,0c-1.2.1-1.5-.4-1.2-1.5.1-.2.1-.4.4-.4,1,.2.8-.6.8-1.1V9.83c0-1.6-.9-2.2-2.4-1.7-1.8.6-2.1,2-2,3.6,0,1.4.1,2.7.1,4.1,0,.3-.1.6.3.6,1.4,0,.8,1,.8,1.5-.1.8-.9.5-1.2.4-.9-.4-1.8.1-2.7.1-.7,0-1-.2-.9-.9.1-.5-.2-1.2.8-1.1.6.1.8-.2.8-.8V9c0-.6-.1-.9-.7-.8-1,.2-.8-.5-.8-1.1-.1-.8.3-.9.9-.8H217C218.08,6.33,218.08,6.33,218.28,7.53Z" fill="#141839"/><path d="M151,505.13a1.73,1.73,0,0,1-1-.1c-.2-1.2.2-1.7,1.5-1.5h1.7l.1.1v.1c.1.2-.1.5.2.5s.4-.2.5-.4a4,4,0,0,1,5.6.9,2.51,2.51,0,0,1,.4.7,8.38,8.38,0,0,1-.2,7.7,4.74,4.74,0,0,1-6.1,2.2c-.1.7-.2,1.3-.3,2-.1,1-.1,2,1.4,1.8.9-.1.3.8.4,1.2s-.2.7-.6.5a9.68,9.68,0,0,0-2.9-.2h-.2c-.4-.1-1.1.3-1.2-.5s.3-1,1-1c.5,0,.5-.4.5-.8v-12.4C151.38,505.43,151.58,504.93,151,505.13Zm7.4,4a5.82,5.82,0,0,0-.3-2.6,2.77,2.77,0,0,0-3.5-1.8l-.6.3a1.56,1.56,0,0,0-.8,1.3v6.2c0,.4,0,.7.4.9a3.41,3.41,0,0,0,4.5-1.8h0a5.39,5.39,0,0,0,.3-2.5Z" fill="#253f4e"/><path d="M42.68,512.23c.1,2.1.1,2.2-1.9,2.8-5.4,1.6-9.5-1.1-9.8-7.3-.1-2.8.3-5.5,2.5-7.5s6.7-2.4,8.9-.8a.67.67,0,0,1,.3.8v1.9c.1,1-.3,1.3-1.3,1.2-.8,0-1-.2-.9-1,.2-1.2-.3-1.6-1.6-1.8-4-.5-5.5,2.1-5.6,4.7a12.46,12.46,0,0,0,.2,4.3c.8,3.2,3.1,4.5,6.3,3.6C40.78,512.93,41.68,512.53,42.68,512.23Z" fill="#253f4e"/><path d="M30.58,245a16.41,16.41,0,0,0,.2,2.3c.8,3.6,3.2,4.9,6.8,3.9a5.64,5.64,0,0,1,1.2-.4c.4-.1,1-.8,1.2-.2s.5,1.5-.5,2c-4.6,2.2-10.2.8-11-5.5a13.48,13.48,0,0,1,.2-4.9c1.2-4.6,4.7-6.5,9.5-5.2,1.8.5,1.8.5,1.8,2.4v.8c.1.8,0,1.3-1.1,1.3s-1.2-.5-1-1.2c.2-1.3-.5-1.5-1.5-1.6-3.7-.3-5.5,1.4-5.7,5.2A5.38,5.38,0,0,1,30.58,245Z" fill="#141839"/><path d="M209,12.33c-.2-.1-.2-.3-.2-.5.1-.9-.2-1.2-1.1-1.2-1.7.1-1.7,0-1.7,1.8V16q0,.75.6.6a12.8,12.8,0,0,1,3.9-.2c.8,0,1-.2.9-1s.1-1.1,1-1.1,1,.4,1,1.1c0,2.8,0,2.8-2.9,2.8a38.36,38.36,0,0,1-5.9-.2h-.8c-.5,0-1.1.2-1.1-.6s.4-.8,1-.8.7-.2.7-.7V4.23c0-.5-.2-.7-.7-.7s-1,.1-1-.7.7-.5,1.1-.5h6.7c2.2,0,2.3,0,2.3,2.3,0,.5.1,1.1-.7,1.1s-.8-.5-.7-1c.1-.9-.3-1.2-1.2-1.1-1.1.1-2.1,0-3.2,0-.7,0-.9.2-.9.9v3c0,2.1-.3,1.8,1.8,1.9.7,0,1.4.1,1.3-1,0-.3.2-.4.6-.4a.53.53,0,0,1,.6.6,26.15,26.15,0,0,0,0,2.8C210.48,12.33,210,12.43,209,12.33Z" fill="#0e143a"/><path d="M96,251.83c-1.4,1.2-2.4,1.7-3.7,1.6a3.33,3.33,0,0,1-3.4-2.6,3.38,3.38,0,0,1,1.9-3.9,8.38,8.38,0,0,1,3.8-.8c.7,0,1.1-.1,1-1s.2-1.8-.8-2.2a4.15,4.15,0,0,0-3.1,0,.62.62,0,0,0-.4.6h0c.2,1.3-.7,1-1.4,1.1a.76.76,0,0,1-.5-.2,2.51,2.51,0,0,1,1-2.9,7.5,7.5,0,0,1,5.1-.5,2.92,2.92,0,0,1,2.2,2.9c0,2.1.1,4.2,0,6.2,0,.6,0,1.1.9,1s.6.7.7,1.2-.1.8-.7.8h-1.8C96.08,253.23,95.48,253.23,96,251.83Zm-.2-2.7c-.2-.4.4-1.2-.5-1.2a7.6,7.6,0,0,0-3.3.5,1.68,1.68,0,0,0-.9,1.7,1.6,1.6,0,0,0,.8,1.4,2.87,2.87,0,0,0,3.7-1.5,2.92,2.92,0,0,1,.2-.9Z" fill="#141839"/><path d="M276.18,252a4.72,4.72,0,0,1-3.9,1.5,3.29,3.29,0,0,1-3-2.7,3.42,3.42,0,0,1,1.9-3.7,7.62,7.62,0,0,1,3.9-.8c.7,0,1.2-.1,1-1s.1-1.8-.8-2.2a4.15,4.15,0,0,0-3.1,0c-.5.2-.4.7-.3,1,0,.9-.6.6-1.1.7s-.9,0-.9-.7c0-2,0-2.2,2-2.8a6.82,6.82,0,0,1,4-.1,2.89,2.89,0,0,1,2.3,2.8c.1,2.1.1,4.2.1,6.2,0,.6,0,1.2.9,1.1s.5.7.6,1.2-.1.8-.7.7a5.44,5.44,0,0,0-1.8,0C276.48,253.33,276.08,253,276.18,252Zm0-2.9c-.2-.3.5-1.2-.5-1.2a7.6,7.6,0,0,0-3.3.5,1.94,1.94,0,0,0-1,1.7,1.51,1.51,0,0,0,.7,1.4,2.89,2.89,0,0,0,3.8-1.4,1.69,1.69,0,0,0,.3-1Z" fill="#141839"/><path d="M80.68,513.93c-1.6,1.5-3.2,1.9-4.9,1.2a3,3,0,0,1-2-2.6,3.15,3.15,0,0,1,1.5-3.4,11.9,11.9,0,0,1,4.1-1.1c.4-.1,1.2.4,1.1-.6s.4-2-.9-2.6a4.77,4.77,0,0,0-2.9.1.6.6,0,0,0-.4.8c.2.9-.3,1-1.1,1s-.9-.3-.9-1c0-2,.3-2.4,2.8-2.8a6.68,6.68,0,0,1,3.7.2,2.91,2.91,0,0,1,2,2.8v6.4c0,.5,0,1,.7.9,1.1-.1.7.6.8,1.2.1.8-.5.7-1,.7a7.57,7.57,0,0,0-1.5-.1C80.88,515.13,80.48,514.93,80.68,513.93Zm-.3-2.9c-.2-.3.6-1.1-.5-1.2a6.15,6.15,0,0,0-3,.5,1.78,1.78,0,0,0-1,1.6,1.34,1.34,0,0,0,.7,1.4,2.8,2.8,0,0,0,2.8-.2A1.6,1.6,0,0,0,80.38,511Z" fill="#253f4e"/><path d="M50.28,253.23c-.5-.3-1.5.6-1.6-.8,0-.4-.5.1-.7.2a4.32,4.32,0,0,1-3.8.7,2.87,2.87,0,0,1-2.3-2.4,3.18,3.18,0,0,1,1.2-3.5,6.49,6.49,0,0,1,4.5-1.1c.7,0,1-.2.9-.9s.3-1.8-.7-2.2a4.69,4.69,0,0,0-3.3,0c-.5.2-.3.7-.3,1,.1.9-.6.6-1,.7s-.9.1-.9-.6c-.1-2-.1-2.1,2-2.8a6.38,6.38,0,0,1,4.1-.2,3.21,3.21,0,0,1,2.4,3.1v6.1c0,.4-.1,1,.6.9,1.1-.2.8.6.9,1.2.1.9-.5.7-1,.7A3.75,3.75,0,0,0,50.28,253.23Zm-1.9-4.2c-.1-.2.5-1-.3-1.1a5.49,5.49,0,0,0-3.3.5,1.82,1.82,0,0,0-.8,2.4,2.65,2.65,0,0,0,.5.6,2.8,2.8,0,0,0,2.8-.1,1.73,1.73,0,0,0,1.1-2.1C48.48,249.13,48.38,249.13,48.38,249Z" fill="#141839"/><path d="M236.08,253.23c-.6-.2-1.6.5-1.7-.9,0-.2-.5.1-.7.3a3.78,3.78,0,0,1-3.4.8,3,3,0,0,1-2.8-2.5,3.36,3.36,0,0,1,1.7-3.8,7,7,0,0,1,4-.9c.7,0,1.1-.1,1-.9s.3-1.8-.7-2.2a4.15,4.15,0,0,0-3.1,0,.57.57,0,0,0-.4.7h0c.2,1-.4,1-1.1,1-1,0-.7-.6-.9-1.2-.3-1.4.5-1.9,1.6-2.3a8,8,0,0,1,4.6-.2,3.09,3.09,0,0,1,2.2,2.9v6.4c0,.5,0,.9.6.8,1.1-.2.8.6.9,1.2.1.9-.5.7-1,.7Zm-3-5.3a4,4,0,0,0-2.4.5,1.77,1.77,0,0,0-1,2.1,1.54,1.54,0,0,0,1.7,1.2,3.54,3.54,0,0,0,2.6-1c.7-.7.4-1.7.3-2.5s-.9-.2-1.2-.3Z" fill="#141839"/><path d="M110.38,500.73v.1c-.3.3-.2.7-.2,1,0,.5,0,.9-.7.9s-.7-.4-.7-.9v-3h11.6a25.39,25.39,0,0,1,0,3.9c-.6.1-1.2-.2-1.7.2-.5-.5-.2-1-.2-1.5s-.2-.8-.8-.8c-2,0-2-.1-2.1,2v9.6c0,.9.2,1.3,1.1,1.2.7-.1,1.1,0,1.1.9s-.4,1-1.1.9h-4.5c-.9,0-.7-.5-.7-1s0-1,.8-.8c1.2.2,1.3-.4,1.2-1.3-.1-3.8.2-7.6,0-11.3v-.2C112.28,500.43,111.28,500,110.38,500.73Z" fill="#253f4e"/><path d="M184.48,243.93c-.4-1.1-1.3-1.1-2.2-.9a3.1,3.1,0,0,0-2.2,2.1,52.3,52.3,0,0,0,0,5.6c0,.3-.2.7.4.7,1.2-.1.7.9.8,1.4,0,.8-.7.4-1.1.5-1,.1-2,0-3,0-.7,0-.9-.2-.8-.8s-.3-1.2.7-1.1c.6.1.8-.2.8-.8V244c0-.5-.1-.8-.7-.8-1.1.2-.7-.6-.8-1.2s.2-.8.8-.8h1.3c.8-.1,1.6-.1,1.3,1.2,3.9-2.3,5.9-1.9,6.6,1.4-.4,2.2-.1,4.4-.2,6.6,0,.6,0,1.2.9,1.1.5,0,.5.4.5.7s-.1.7-.6.7h-3.1c-.3,0-.6-.1-.6-.5s-.1-.8.2-.9c1.4-.1.9-1.1.9-1.9.1-1.6,0-3.2,0-4.8C184.78,244.63,184.88,244.13,184.48,243.93Z" fill="#141839"/><path d="M184.18,304.93l3-4.5c4-6,8.1-12,12.1-18,.9-1.4,1.8-2.4,3.7-1.6.1.2-.2.4-.4.7-4.9,7.3-9.9,14.6-14.7,22A3.06,3.06,0,0,1,184.18,304.93Z" fill="#12626a"/><path d="M247.38,6.53l.2,1a5,5,0,0,1,3.2-1.5,2.84,2.84,0,0,1,3.3,2.4v7.1c0,.5,0,.9.7.8,1.1-.1.6.7.7,1.2.2.7-.3.8-.8.7h-3.1c-.4,0-1,.2-.9-.6.1-.5-.6-1.4.7-1.4.4,0,.5-.2.5-.6V9a1.21,1.21,0,0,0-1.1-1.3h-.3a2.78,2.78,0,0,0-2.9,2.6v.2c0,1.2,0,2.3-.1,3.5,0,.9-.9,2.1.8,2.5.3.1.2.6.2.9s-.1.6-.5.6h-3c-.5,0-.7-.2-.7-.7s.2-.8.7-.7.8-.4.8-.9V8.93c0-.5-.1-1-.8-.9s-.7-.3-.7-.8.4-.6.8-.6Z" fill="#141839"/><path d="M86.38,505.23c-.4-.4-1.3.4-1.4-.6-.1-.8-.2-1.7,1.1-1.4a2.85,2.85,0,0,0,1.3,0c.8-.1,1.2.1,1.2,1.2a4.52,4.52,0,0,1,4.8-1.2,2.37,2.37,0,0,1,1.6,2,52.1,52.1,0,0,0-.1,7.9c0,.1.2.2.2.2H95v-.1c.9.3,1.5.7,1.2,1.8a15.48,15.48,0,0,1-4.3,0c.1-.5-.3-1.3.3-1.3,1.2-.2.9-.9.9-1.5v-4.4a3.8,3.8,0,0,0-.2-2.1,1.77,1.77,0,0,0-2.3-.8c-.1,0-.1.1-.2.1-.9.5-2,.9-1.9,2.2v5.5c0,.4-.1.9.6.8s.7.3.6.7,0,.9-.6.9c-1.3,0-2.6,0-3.9-.1-.3-1.1.3-1.5,1.2-1.8l-.1.1c.3-.1.3-.3.3-.6v-7.3C86.68,505.23,86.68,505,86.38,505.23Z" fill="#253f4e"/><path d="M171.38,504.13a7.55,7.55,0,0,1,5.5-1,2.88,2.88,0,0,1,2.6,2.6,45.72,45.72,0,0,0-.1,7.4.22.22,0,0,0,.2.2h-.1v-.1c.9.3,1.5.7,1.2,1.8-.9.3-1.7-.2-2.6,0-.1,0-.4-.1-.4-.2-.4-1.5-.8-.4-1.3,0a4.29,4.29,0,0,1-4.5.1,3.09,3.09,0,0,1-1.4-2.9,3,3,0,0,1,2.1-3,10.39,10.39,0,0,1,3.5-.7c.4-.1,1.2.4,1.2-.6s.3-2-1-2.5a5,5,0,0,0-3.2.2.71.71,0,0,0-.3.6c0,.6-.2.9-.8.8s-.6-.4-.6-.9Zm6,6.9c-.2-.2.6-1.1-.4-1.2a5.81,5.81,0,0,0-3.4.5,1.54,1.54,0,0,0-.9,1.6,1.73,1.73,0,0,0,.7,1.6,3.41,3.41,0,0,0,3.1-.2,1.91,1.91,0,0,0,.9-2.3Z" fill="#253f4e"/><path d="M308.08,250.53c.1,2.2.1,2.3-1.5,2.8-4.6,1.2-7.4-1.7-7.2-6.2a6.82,6.82,0,0,1,1.7-4.7,4.41,4.41,0,0,1,4.5-1.2,4.08,4.08,0,0,1,2.8,3.6c.5,2.7.4,2.7-2.3,2.7h-3.8c-.5,0-.6.1-.6.7.1,2.6,1.8,4,4.3,3.3A10,10,0,0,0,308.08,250.53Zm-4.1-4.7h1.5c.5,0,.9-.1.7-.8-.2-1.1-.5-1.9-1.7-2.1a2.41,2.41,0,0,0-2.7,1.7c-.4.8-.4,1.4.8,1.2A3.3,3.3,0,0,1,304,245.83Z" fill="#141839"/><path d="M32.78,15.53c.2,2.3.1,2.3-1.7,2.8-4.4,1.2-7.3-1.8-7.1-6.2a6.26,6.26,0,0,1,1.9-4.7,4.42,4.42,0,0,1,4.5-1.1A4,4,0,0,1,33,10c.3,2.5.3,2.5-2.3,2.5H27c-.6,0-.7.2-.7.8a3.17,3.17,0,0,0,3,3.4,2.74,2.74,0,0,0,1.3-.2A5.54,5.54,0,0,0,32.78,15.53Zm-4.1-4.7h1.6c.7.1.9-.1.8-.9-.2-1-.5-1.8-1.6-2a2.35,2.35,0,0,0-2.6,1.2c-.7,1.3-.5,1.6.9,1.6h.9Z" fill="#141839"/><path d="M116.38,15.63c.1,2.3.1,2.3-1.9,2.8a5.16,5.16,0,0,1-6.5-3.3,3.21,3.21,0,0,1-.2-1.7,8.13,8.13,0,0,1,1-5.1,4.58,4.58,0,0,1,4.8-2.1,4.29,4.29,0,0,1,3.1,4.1c.2,2.4.2,2.4-2.2,2.4h-3.8c-.7,0-.8.2-.8.8a3.2,3.2,0,0,0,4.3,3.2C115,16.33,115.68,16,116.38,15.63Zm-4.1-4.8h1.4c.8.1,1.1-.1.8-1s-.6-1.8-1.8-1.9a2.23,2.23,0,0,0-2.5,1.4c-.7,1.3-.5,1.5.9,1.5Z" fill="#141839"/><path d="M65.58,508.83a6.32,6.32,0,0,1-1.2,4.6,4.39,4.39,0,0,1-6.1,1.4,5.36,5.36,0,0,1-1.5-1.5,7.9,7.9,0,0,1-.2-8A4.72,4.72,0,0,1,62,503a5.05,5.05,0,0,1,3.4,4.7A2.56,2.56,0,0,1,65.58,508.83Zm-2.2.3a5.76,5.76,0,0,0-.5-2.9,2.25,2.25,0,0,0-2.3-1.5,2.07,2.07,0,0,0-2.2,1.6,8.57,8.57,0,0,0,.2,5.7,2.17,2.17,0,0,0,2.3,1.5,2.25,2.25,0,0,0,2.2-1.7A11.15,11.15,0,0,0,63.38,509.13Z" fill="#253f4e"/><path d="M127.08,15.63c.2,2.2.1,2.2-1.8,2.7-4,1-6.4-1-7-4.9a7.52,7.52,0,0,1,1-5.1,4.8,4.8,0,0,1,4.9-2.2c1.7.4,3,2.2,3.2,4.4.2,2,.2,2-1.8,2h-4.3c-.8,0-.8.3-.7.9.5,3,2,3.8,5.1,2.8A5.91,5.91,0,0,0,127.08,15.63Zm-4.1-4.8h1.4c.9.1,1-.4.9-1-.2-1-.7-1.8-1.8-1.9a2.21,2.21,0,0,0-2.5,1.6c-.5,1.2-.4,1.4.9,1.4Z" fill="#141839"/><path d="M54,508.93a7,7,0,0,1-.9,4,4.51,4.51,0,0,1-6.1,2,4.39,4.39,0,0,1-2.3-2.7,8.08,8.08,0,0,1,.6-7.1,4.58,4.58,0,0,1,4.8-2.1,4.25,4.25,0,0,1,3.5,2.8A8.28,8.28,0,0,1,54,508.93Zm-2.2.2a6.13,6.13,0,0,0-.4-2.7,2.46,2.46,0,0,0-2.3-1.7,2.37,2.37,0,0,0-2.3,1.7A8.3,8.3,0,0,0,47,512a2.17,2.17,0,0,0,2.3,1.5,2.34,2.34,0,0,0,2.2-1.7,7.73,7.73,0,0,0,.3-2.7Z" fill="#253f4e"/><path d="M116.08,250.63c.2,2,.2,2.2-1.6,2.6-5.1,1.3-7.7-2.4-7.1-7a6.15,6.15,0,0,1,2.4-4.5,4,4,0,0,1,4.3-.4,4.63,4.63,0,0,1,2.4,4.1c.1,2,.1,2-2,2h-4.2c-.6,0-.8.1-.7.8q.6,4.35,4.8,3A17.72,17.72,0,0,0,116.08,250.63Zm-4.2-4.8h1.6c.7.1.9-.2.8-.9-.2-.9-.5-1.8-1.6-2a2.3,2.3,0,0,0-2.7,1.2c-.7,1.3-.5,1.6.9,1.6Z" fill="#141839"/><path d="M265.38,15.63c.1,2.2.1,2.2-1.7,2.7-4.8,1.3-7.7-2.2-7.1-7a6.36,6.36,0,0,1,1.4-3.5,4.45,4.45,0,0,1,4.7-1.5c2,.6,2.7,2.2,2.9,4.1.3,2.2.2,2.3-2,2.3h-4.2c-.6,0-.7.2-.6.8.4,3,2,4,4.9,3.1A5.85,5.85,0,0,1,265.38,15.63Zm-4.2-4.8h1.6c.8.1.9-.3.8-.9-.2-1-.5-1.8-1.7-2a2.25,2.25,0,0,0-2.6,1.4c-.6,1.2-.5,1.5.9,1.5Z" fill="#141839"/><path d="M79.08,15.63c.1,2.2.1,2.2-1.9,2.8a5.22,5.22,0,0,1-6.6-3.3,5.66,5.66,0,0,1-.3-1.8c-.1-2.4.3-4.6,2.3-6.2a4,4,0,0,1,5.6.4,5.56,5.56,0,0,1,.9,1.7,12.41,12.41,0,0,1,.3,2.7c0,.7-.3.8-.8.8h-5.4c-.7,0-.8.2-.7.8.4,2.9,2.3,4,5.2,2.9A10,10,0,0,1,79.08,15.63Zm-4.2-4.8h.7c.6-.1,1.4.4,1.6-.3a2.1,2.1,0,0,0-.8-2.2,2.35,2.35,0,0,0-3.2.5c0,.1-.1.2-.2.3a2,2,0,0,0-.4,1.6c.2.5.9.1,1.3.2S74.58,10.83,74.88,10.83Z" fill="#141839"/><path d="M197.88,250.63c.2,2.1.2,2.2-1.8,2.7-3.7,1-6.6-1-7-4.8a7.84,7.84,0,0,1,1.1-5.4,4.9,4.9,0,0,1,4.9-2.1c1.8.5,2.9,2.1,3.2,4.4.2,2,.2,2-1.8,2h-4.3c-.8,0-.9.3-.8.9.5,2.8,2,3.8,4.8,2.9C196.68,251.13,197.18,250.83,197.88,250.63Zm-4.2-4.8h.7c.5-.1,1.4.3,1.6-.3a2.1,2.1,0,0,0-.8-2.2,2.19,2.19,0,0,0-2.2-.3c-.8.3-1.9,1.9-1.5,2.4s1.2.1,1.8.3a.6.6,0,0,0,.4.1Z" fill="#141839"/><path d="M225.58,247.13a6.48,6.48,0,0,1-.7,3.6,4.51,4.51,0,0,1-4.9,2.8,4.37,4.37,0,0,1-3.8-3.3,8.63,8.63,0,0,1,0-5.5,5,5,0,0,1,5.3-3.7,4.94,4.94,0,0,1,4.1,4.9Zm-2.2.1a6.15,6.15,0,0,0-.5-3,2.24,2.24,0,0,0-2.2-1.4,2.29,2.29,0,0,0-2.3,1.4,8.28,8.28,0,0,0,.1,6,2.27,2.27,0,0,0,3.1,1.2,2.54,2.54,0,0,0,1.3-1.4,5.39,5.39,0,0,0,.5-2.8Z" fill="#141839"/><path d="M239.78,508.93c0,3-.1,5.9,0,8.9,0,1-.3,1.3-1.2,1.1h-.7c-.6.1-.8-.1-.8-.7.1-4.1-.1-8.1.1-12.2.1-1.4-.1-2.9-.1-4.3,0-.4-.1-.6-.6-.6h-1.2c-1.2,0-1.7-.7-1.3-1.9.1-.4.4-.3.7-.3h4.2c.7,0,.9.2.9.9v9.1Z" fill="#12626a"/><path d="M218.48,512.23c-.2,1,.3,1.8-.4,2.3a6,6,0,0,1-4.1.9c-2.7-.4-3.7-1.5-4.3-4.3a8.23,8.23,0,0,1,.3-4.9,4.73,4.73,0,0,1,5.5-3.2c1.6.3,3,2.2,3.2,4.5v.5c0,1.6,0,1.5-1.6,1.3a38.44,38.44,0,0,0-4.8,0c-.5,0-.6.2-.6.6a4.06,4.06,0,0,0,1,3,3.47,3.47,0,0,0,2.8.6A6.72,6.72,0,0,0,218.48,512.23Zm-4.5-4.4h1.8c.3,0,.5.1.6-.3a2.6,2.6,0,0,0-1-2.6,3,3,0,0,0-2.9.5c-.4.6-1.1,1.5-.7,2.2.2.6,1.1.2,1.8.2Z" fill="#253f4e"/><path d="M129.38,512.53c.1,2.2-1.3,3.2-3.9,3a5.73,5.73,0,0,1-4.8-5.1c-.1-2.4,0-4.6,1.9-6.4a4.54,4.54,0,0,1,4.3-1c1.6.5,2.3,1.8,2.7,3.4.1.7.1,1.4.2,2,.1.9-.3,1.2-1.1,1-1.7-.4-3.5-.1-5.2-.2-.7,0-.8.2-.8.9.4,3.4,2.2,3.8,5.1,2.9A7.49,7.49,0,0,0,129.38,512.53Zm-4.2-4.7H127c.3,0,.6,0,.7-.4a2.66,2.66,0,0,0-1.4-2.5,2.39,2.39,0,0,0-2.9,1c-.9,1.6-.7,2,1.1,2Z" fill="#253f4e"/><path d="M88.68,18.53c-.4,0-.7-.1-1.1-.1-2-.4-2-.5-1.9-2.4,0-.5-.2-1.1.7-1,.7,0,1.3,0,1.1,1-.1.5.2.7.7.8a4.11,4.11,0,0,0,2.2,0,1.27,1.27,0,0,0,1.1-1.1,1.53,1.53,0,0,0-.7-1.7c-.9-.4-1.9-.8-2.8-1.2-1.9-.8-2.8-2.1-2.5-3.7A3.84,3.84,0,0,1,89,6.23a3.75,3.75,0,0,1,2.1,0c2.2.5,2.3.8,2.1,3-.1.9-.7.5-1.1.5s-1,.2-.9-.5c.2-1.1-.5-1.3-1.3-1.3s-1.9,0-2.2,1.1c-.3.8.3,1.3.9,1.6,1,.5,2.1.8,3.1,1.4,2.1,1.1,2.7,3.6,1.2,5.2A5.22,5.22,0,0,1,88.68,18.53Z" fill="#141839"/><path d="M79.38,253.13c-.6-.2-1.5.6-1.8-.6-.1-.3-.5.1-.7.2a4.59,4.59,0,0,1-3.6.7,2.66,2.66,0,0,1-2.2-2.4c.4-2.3.1-4.7.2-7,0-.7,0-1.2-.9-1.1-.5,0-.5-.4-.5-.7a.66.66,0,0,1,.6-.7h1.4c.9-.1,1.1.3,1.1,1.1v7.1c0,.4-.2.9.3,1.2,1,1.2,2.4,1.1,4.2-.2.4-.3.3-.7.3-1.1v-5.4c0-.7.1-1.3-.9-1.2-.5,0-.5-.4-.5-.8s.2-.6.7-.6h1.2c1-.1,1.3.2,1.3,1.2-.1,2.6,0,5.2,0,7.8,0,.6,0,1.1.8,1.1.6,0,.6.4.6.8s-.2.6-.7.6A1,1,0,0,0,79.38,253.13Z" fill="#0e143a"/><path d="M296.08,253.13c-.7,0-1.5.3-1.7-.9-2.4,2.1-6.1,1.3-6.4-1.2.1-.1.1-.3.2-.4v-7c0-.7-.3-.8-.9-.8s-.5-.3-.6-.7.1-.7.6-.7h1.4c.8-.1,1.1.2,1.1,1.1v7.1c0,.4-.2.9.3,1.2a2.46,2.46,0,0,0,3.1.5,8.65,8.65,0,0,0,1-.7c.5-.2.3-.7.3-1.1v-5.4c0-.7.1-1.3-.9-1.2-.5,0-.5-.4-.5-.8s.2-.7.6-.6h1.1c1-.1,1.5.2,1.4,1.4-.1,2.6,0,5.1,0,7.7,0,.6,0,1.1.8,1.1.6,0,.6.4.6.8a.53.53,0,0,1-.6.6C296.58,253.13,296.38,252.93,296.08,253.13Z" fill="#0e143a"/><path d="M208.28,238.63h-.1c-.6.2-.3.8-.4,1.2v8.1c0,1.2-.5,2.7.3,3.4s2.2.1,3.4.2c.9.1,1.6,0,1.4-1.2,0-.3,0-.7.5-.7s.8-.1.9.2a4.47,4.47,0,0,1,0,2.8c-.2.6-1,.2-1.5.3-1.7.1-3.4-.2-5.1.2a27.15,27.15,0,0,0-2.8.1c-.6,0-.9-.2-.8-.8s-.2-1.3.7-1.1,1.1-.3,1.1-1.2v-10.3c0-.8-.1-1.2-1.1-1.2-1.4,0-.7-1-.6-1.7a6.37,6.37,0,0,0,.7.2h3.8c.4,0,.7,0,.8.5s-.2.7-.7.7C208.58,238.43,208.48,238.53,208.28,238.63Z" fill="#0e143a"/><path d="M190.08,505.13c-.4-.2-1,.1-1.4-.2,0-1.4.9-1.6,2-1.4h.3c.9-.1,1.1.3,1.1,1.1v6.6c0,.4-.2.9.2,1.2l.5.9c.1.3.3.3.5.3h.2a1,1,0,0,0,1.4,0h0c.2,0,.4,0,.5-.2,0,0,.1-.1.1,0h0l.3-.2h0a.55.55,0,0,0,.5-.3v.1h-.1l.3-.3v.1h-.1a.55.55,0,0,0,.3-.5v-6.7c0-.6-.3-.7-.8-.7s-.6-.3-.6-.7.3-.5.6-.5h1.2c1-.1,1.3.2,1.3,1.2-.1,2.6,0,5.2,0,7.8,0,.6,0,1.1.9,1.1.3-.1.5.1.6.4v.2c0,.3-.1.7-.4.6-.9-.2-2,.8-2.6-.7-.2-.5-.5,0-.6.3-1.6,1.8-6,1.5-6.2-1.7a37.6,37.6,0,0,0,.1-7.5Z" fill="#253f4e"/><path d="M67.68,8.33v7.1c0,.6,0,1.1.9,1s.6.6.6,1,.1.9-.7.9a22.85,22.85,0,0,0-3.7,0c-.7,0-.8-.3-.8-.8s-.2-1.2.8-1.1c.8.1.8-.3.8-.9V2.93c0-.6-.1-1-.8-.9-1,.1-.8-.5-.8-1s0-.9.8-1c2.9-.1,2.9-.1,2.9,2.8v5.5Z" fill="#141839"/><path d="M62.08,15.93c.3,1.9.3,2-1.3,2.4-5.2,1.2-7.6-2.3-7.2-6.8.2-2.6,1.4-4.7,4.2-5.4a7,7,0,0,1,3.8.3.62.62,0,0,1,.5.8v1.4c0,1.1-.5,1.5-1.6,1.2-.6-.2-.4-.6-.3-1,.1-.8-.2-.9-1-1-2.4-.2-3.3,1.4-3.3,3.2v2.2c.1,2.6,1.9,3.9,4.4,3.2A12.09,12.09,0,0,0,62.08,15.93Z" fill="#141839"/><path d="M68.08,250.83c.2,2,.2,2-1.7,2.5-3.8,1-6.8-1.4-6.9-5.3,0-2.1.2-4,1.8-5.6a6,6,0,0,1,6.4-.9.75.75,0,0,1,.5.7v1.6c0,.6.1,1.1-.9,1.1-.8,0-1.2-.1-1.1-1,.1-.7-.2-1-.9-1-2.2-.1-3,.5-3.5,2.7a7.4,7.4,0,0,0,.2,3.9c.5,1.8,2.2,2.5,4.2,1.9C66.88,251.23,67.48,251,68.08,250.83Z" fill="#141839"/><path d="M187.78,513.23c.1,1.9,0,2.1-1.6,2.3a2.61,2.61,0,0,1-3.1-2.1,57.67,57.67,0,0,1-.1-7.2c0-.7,0-1.2-1-1.2s-.5-.7-.6-1.1.1-.8.6-.7c.9.1.9-.4.9-1.1s-.4-1.3.3-1.6a2.22,2.22,0,0,1,1.6-.3c.4.1.2.8.2,1.2,0,2.1-.1,1.8,1.7,1.8.6,0,1.1,0,1.1.9s-.3,1-1.1,1c-1.7,0-1.8,0-1.8,1.8s.1,3.3.1,5,.5,1.9,2,1.4C187.38,513.33,187.58,513.23,187.78,513.23Z" fill="#253f4e"/><path d="M103.38,513.23c.2,1.9-.1,2.2-1.7,2.3a2.68,2.68,0,0,1-3-2.2v-.1q-.15-3.6,0-7.2c0-.6,0-1-.8-.9s-.7-.5-.8-1,0-1,.8-.9c1,.1.7-.6.8-1.2s-.4-1.3.5-1.6c1.4-.5,1.6-.3,1.6,1.1,0,1.6,0,1.7,1.7,1.7.7,0,1,0,1,.9s-.3,1-1,1c-1.7,0-1.8,0-1.8,1.8s.1,3.5.1,5.3c0,1.3.5,1.6,1.8,1.2Z" fill="#253f4e"/><path d="M106,251.23c.2,2,.1,2.2-1.4,2.2-2.1.1-3.3-.8-3.3-2.4v-7.1c0-.6,0-1.1-.9-.9-.5.1-.8-.1-.7-.6s-.5-1.3.5-1.2.9-.5,1-1.1-.5-1.3.5-1.5c1.7-.4,1.8-.4,1.6,1.3-.1,1.2.3,1.5,1.4,1.4.6-.1,1.3-.3,1.3.9,0,.9-.3,1.1-1.1,1-1.2-.2-1.8.1-1.6,1.5a46.85,46.85,0,0,1,0,5.3c0,1.8.4,2,2,1.5A4.88,4.88,0,0,0,106,251.23Z" fill="#141839"/><path d="M169.48,505.43a2.77,2.77,0,0,0-3.1.8,1.9,1.9,0,0,0-.5,1.3v4.9c0,.7.2,1,.9.9s1,.1,1,.9-.4,1-1.1,1h-3.8c-.8,0-.7-.5-.7-.9s-.2-1.1.6-.9.8-.3.8-.9V506c0-.5,0-.9-.7-.9-1,.1-.6-.6-.7-1.1-.1-.7.2-.8.8-.8h1.7c.6,0,1.4-.2,1.1,1.3,1.1-1.1,2.2-1.9,3.4-1.4C169.88,503.43,169.28,504.53,169.48,505.43Z" fill="#253f4e"/><path d="M202.78,505.13c-.4-.4-1.3.4-1.4-.6-.1-.8-.2-1.6,1.1-1.4a3.3,3.3,0,0,0,1.4,0c.7-.1,1.2.1,1,1.3a4.07,4.07,0,0,1,2.5-1.5c.7-.1,1.3,0,1.1,1v1.4a2.33,2.33,0,0,0-2,0,2.25,2.25,0,0,0-1.6,2.2c0,1.5.1,3.1,0,4.7,0,.8.2,1.1,1,1s.9.1.9.8-.1,1-.9,1c-1.4-.1-2.9-.1-4.4-.1.2-.5-.4-1.4.7-1.5.8,0,.8-.4.8-1v-6.9S203.18,505.13,202.78,505.13Z" fill="#253f4e"/><path d="M56.68,253.13h-1.9c-.1-.1-.3-.1-.4-.2-.4-.1-1,.1-1-.7s.3-.8.9-.8.6-.4.6-.8v-13.2c0-.3.1-.8-.3-.8-1.3.1-1-.9-1.3-1.5a5.25,5.25,0,0,1,3.5,0c-.1.2-.1.4-.2.6v14.9c0,.5.1.9.7.8s.7.2.7.7-.2.8-.8.8C56.88,253,56.78,253.13,56.68,253.13Z" fill="#0e143a"/><path d="M68.58,498.93c-.4-.2-1,.2-1.4-.3.4-.4-.1-1.2.5-1.4a3.9,3.9,0,0,1,2.6.1c.5.2.2,1,.2,1.6v13.5c0,.4-.2,1.1.4,1,1.3,0,1,.8,1,1.5h-4.5c-.3-1.1.3-1.5,1.2-1.8v.1h-.1c.4-.2.3-.5.3-.8v-13.1C68.88,499.23,69.08,498.93,68.58,498.93Z" fill="#253f4e"/><path d="M82.38,235.23a6.92,6.92,0,0,1,3.5,0c-.1.2-.1.4-.2.6v15c0,.6.3.9.9.8s.6.4.6.8-.3.6-.7.6h-3.1c-.5,0-.8-.1-.8-.7s.1-.8.6-.8.8-.3.8-.9v-13.2c0-.3.1-.8-.3-.8C82.38,236.93,82.68,235.83,82.38,235.23Z" fill="#0e143a"/><path d="M241.18,18.23H240c-.3-.3-.7-.2-1-.2s-.9,0-.9-.6.2-.8.8-.8.7-.5.7-1V9.13c0-.7.1-1.3-.9-1.2-.5,0-.5-.4-.5-.8s.2-.7.6-.7h1.1c1.1-.1,1.5.2,1.4,1.3-.1,2.6,0,5.1,0,7.7,0,.6,0,1.1.8,1.1.6,0,.6.4.6.8a.53.53,0,0,1-.6.6A1.22,1.22,0,0,0,241.18,18.23Z" fill="#0e143a"/><path d="M263.28,181.33a7,7,0,0,1,.5-2.5,2.58,2.58,0,0,1,2.6-1.7,2.46,2.46,0,0,1,2.4,1.8,5.84,5.84,0,0,1-.1,4.5,2.58,2.58,0,0,1-2.5,1.7,2.67,2.67,0,0,1-2.5-1.8A6.47,6.47,0,0,1,263.28,181.33Zm4.8-.5a3.89,3.89,0,0,0-.2-1.5c-.3-.8-.7-1.4-1.6-1.4a1.63,1.63,0,0,0-1.7,1.4,6.4,6.4,0,0,0,.1,4.1,1.62,1.62,0,0,0,3,0A4.89,4.89,0,0,0,268.08,180.83Z" fill="#1e6971"/><path d="M261.78,181a5,5,0,0,1-.5,2.7,2.75,2.75,0,0,1-2.5,1.5,2.62,2.62,0,0,1-2.3-1.6,5.26,5.26,0,0,1-.3-3.9c.5-1.8,1.5-2.6,3.1-2.4a2.92,2.92,0,0,1,2.4,3C261.88,180.43,261.78,180.73,261.78,181Zm-1,0a3.4,3.4,0,0,0-.3-2,1.59,1.59,0,0,0-1.5-1.2,1.7,1.7,0,0,0-1.7,1.1,6.35,6.35,0,0,0,0,4.3,1.6,1.6,0,0,0,1.4,1.1,1.71,1.71,0,0,0,1.6-1.1,2.91,2.91,0,0,0,.5-2.2Z" fill="#12626a"/><path d="M248.88,181.23a4.16,4.16,0,0,1,.4-2.5,2.88,2.88,0,0,1,2.6-1.6,2.37,2.37,0,0,1,2.3,1.7,5.54,5.54,0,0,1,.2,3.8q-.75,2.7-3,2.4a3,3,0,0,1-2.6-3C248.78,181.83,248.88,181.43,248.88,181.23Zm1-.1a3.73,3.73,0,0,0,.3,2.1,1.6,1.6,0,0,0,3.1,0,5.79,5.79,0,0,0,0-4.1,1.62,1.62,0,0,0-1.6-1.2,1.71,1.71,0,0,0-1.6,1.2,3.38,3.38,0,0,0-.2,2Z" fill="#12626a"/><path d="M151.88,303.23a2,2,0,0,1,1.8-2.2h.3a2.2,2.2,0,0,1,0,4.4,2,2,0,0,1-2.1-1.9Z" fill="#085e66"/><path d="M209,12.33c1,.1,1.4-.2,1.3-1.2a26.15,26.15,0,0,1,0-2.8.53.53,0,0,0-.6-.6c-.4,0-.6.1-.6.4.1,1.1-.6,1-1.3,1-2.1,0-1.8.2-1.8-1.9v-3c0-.7.2-.9.9-.9,1.1,0,2.2.1,3.2,0s1.3.2,1.2,1.1c-.1.5-.1,1.1.7,1s.7-.6.7-1.1c.1-2.3,0-2.3-2.3-2.3h-6.7c-.4,0-1-.2-1.1.5s.5.7,1,.7.7.2.7.7v11.7c0,.5-.2.8-.7.7s-1,0-1,.8.7.6,1.1.6h.8a2.54,2.54,0,0,1-1.9.2c-.7-.1-.2-.9-.3-1.3s.1-.6.5-.5c1.2.3,1.2-.5,1.2-1.4V4.43c0-.7,0-1.2-.9-1s-.8-.3-.8-.9.2-.9.9-.9h9c.6,0,.9.1.8.8a12,12,0,0,0,0,1.9c0,1.1-.5,1.5-1.6,1.2-.6-.2-.4-.7-.3-1,.1-1-.2-1.3-1.2-1.2a13.09,13.09,0,0,1-2.8,0c-.8-.1-.9.2-.9,1a20.45,20.45,0,0,1,0,3.5c0,.7.2.9.9.9h1.2c.4,0,.6-.1.5-.6-.2-1.1.5-.9,1.1-.9.9-.1.6.6.6,1v3C210.58,12.73,210.18,12.93,209,12.33Z" fill="#111219"/><path d="M116.48,145.93c-.1-.4.2-.6.3-.9a44.92,44.92,0,0,0,5-12.9c.1-.1.1-.3.2-.4.4.7,0,1.3-.1,1.9a38.84,38.84,0,0,1-2.7,9.4c-.5,1.1-1,2.3-1.6,3.4Z" fill="#d2d2d2"/><path d="M295.48,145.93c-.1-.4.2-.6.3-.9a45.52,45.52,0,0,0,4.7-11.7.76.76,0,0,1,.2-.4c.3.2.2.6.1.9a46.54,46.54,0,0,1-2.7,9.2c-.5,1.1-1,2.3-1.6,3.4Z" fill="#d2d2d2"/><path d="M253.88,57.53q-1.8-1.65-.6-2.7a2.43,2.43,0,0,1,3.2,0c.7.7.5,1.5-.8,2.7.6.4,1.3.8,1.3,1.7a1.75,1.75,0,0,1-.4,1.2,2.85,2.85,0,0,1-3.4.1C252.38,59.73,252.58,58.73,253.88,57.53Zm.8,3c.8,0,1.4-.3,1.5-1.1.1-.5-1-1.6-1.6-1.5a1.4,1.4,0,0,0-1.2,1.4c0,.9.6,1.1,1.3,1.2Zm.2-5.7c-.6.1-1.4.2-1.4,1a1.43,1.43,0,0,0,1.5,1.3c.6,0,1-.5,1.1-1.2s-.6-.9-1.2-1.1Z" fill="#1e6971"/><path d="M31.68,132a61.81,61.81,0,0,0,2.7,8.3c.7,1.5,1.3,2.9,2,4.4l-1.3.5c-.6-1.7-1.3-3.4-1.8-5.1a29.63,29.63,0,0,1-1.4-5.7C31.78,133.73,31.08,132.93,31.68,132Z" fill="#d2d2d2"/><path d="M72.18,57.53c-1-1-1.3-2-.6-2.7a2.56,2.56,0,0,1,3.2-.1c.7.7.4,1.6-.8,2.7,1.3,1,1.6,1.9.9,2.8a2.58,2.58,0,0,1-3.4.2C70.68,59.73,70.88,58.93,72.18,57.53Zm.9,3c.8,0,1.4-.3,1.5-1.1.1-.5-1-1.6-1.6-1.5a1.4,1.4,0,0,0-1.2,1.4C71.78,60.23,72.38,60.43,73.08,60.53Zm.1-5.7c-.7.1-1.4.2-1.4,1a1.43,1.43,0,0,0,1.5,1.3c.6,0,1-.5,1.1-1.2S73.88,54.93,73.18,54.83Z" fill="#1e6971"/><path d="M210.68,132a56,56,0,0,0,3.7,10.4,6.59,6.59,0,0,1,1.1,2.4l-1.3.6c-.4-1.1-.7-2.2-1.1-3.3a27.73,27.73,0,0,1-2-7.5C210.78,133.73,210.08,132.93,210.68,132Z" fill="#d2d2d2"/><path d="M35.08,145.33l1.3-.5c.3.4.7.7.8,1.2-.5-.4-.8-.1-1.2.2a45.24,45.24,0,0,0-6.9,3.6c-1,.5-1.9,1.1-2.9,1.6-.2.1-.5.4-.7.1s.1-.6.4-.7c2-1.1,4-2.2,5.9-3.3A27,27,0,0,0,35.08,145.33Z" fill="#85a9ac"/><path d="M284.08,243.13v7.3c0,.5,0,.9.7.9,1.1-.1.6.7.7,1.2.1.7-.3.7-.8.7h-3.5c-.6,0-.9-.2-.8-.8.1-.4-.4-1.2.7-1.1.6.1.8-.2.8-.8v-12.8c0-.5,0-.9-.6-.8-1,.2-.7-.6-.8-1.1-.1-.8.4-.8.9-.8,2.7,0,2.7,0,2.7,2.6v5.5Zm-.2.3v-6.1c0-2.3,0-2.3-2.4-2.1-.5,0-.8.1-.8.7s.1.8.6.8c.8-.1.8.4.8,1v12.9c0,.6-.1,1-.8,1s-.6.3-.6.8.2.6.6.6h3.2c.4,0,.7-.2.7-.6s0-.8-.6-.8c-.9.1-.8-.5-.8-1.1C283.88,248.13,283.88,245.73,283.88,243.43Z" fill="#111219"/><path d="M214.08,145.33l1.3-.6.8,1a1.46,1.46,0,0,0-1.2.5,62.45,62.45,0,0,0-6.8,3.5c-1,.5-1.9,1.1-2.9,1.6-.2.1-.5.6-.8,0s.2-.5.4-.7l7.9-4.4A2.54,2.54,0,0,0,214.08,145.33Z" fill="#85a9ac"/><path d="M221.08,67.53l.7-.3a1.94,1.94,0,0,1,2.5.8,2.3,2.3,0,0,1-.5,2.6,1.9,1.9,0,0,1-2.7-.1c-1.5-1.4-.9-5.2,1-6a2,2,0,0,1,2,.1C222.18,64.83,221,65.43,221.08,67.53Zm-.1,1.1c0,1,.7,1.9,1.5,1.8a1.32,1.32,0,0,0,1.3-1.3v-.2c0-.9-.4-1.5-1.4-1.5C221.78,67.63,221,67.73,221,68.63Z" fill="#1e6971"/><path d="M82.38,235.23c.3.6,0,1.7,1.3,1.5.4,0,.3.5.3.8v13.2c0,.6-.2.9-.8.9s-.6.3-.6.8.3.7.8.7h3.1c.4,0,.7-.1.7-.6s0-.8-.6-.8-.9-.2-.9-.8v-15a1.42,1.42,0,0,1,.2-.6v15c0,.7-.1,1.3.9,1.1s.5.6.5,1,.3.9-.5.9h-4c-.8,0-.6-.5-.5-.9s-.4-1.1.5-1,.9-.3.9-1V238c0-.7-.1-.9-.9-1C81.68,236.83,82.58,235.83,82.38,235.23Z" fill="#111219"/><path d="M39.38,67.53l.7-.3a1.78,1.78,0,0,1,2.4.6,2.28,2.28,0,0,1-.3,2.7,2,2,0,0,1-2.6.2c-1-.7-1.4-3.1-.7-4.7a2.67,2.67,0,0,1,3.4-1.5c.1,0,.1.1.2.1C40.68,64.83,39.38,65.43,39.38,67.53Zm2.8,1.5c-.1-.9-.5-1.5-1.4-1.4-.7.1-1.5.2-1.4,1.2s.4,1.7,1.5,1.7S42.08,69.83,42.18,69Z" fill="#1e6971"/><path d="M134.08,149.63c-2.8.7-3,.9-3.2,2.8.6-.1,1.2-.6,1.9-.4a1.91,1.91,0,0,1,1.6,1.7,2.17,2.17,0,0,1-1.1,2.1,2,2,0,0,1-2.3-.3c-.9-.8-1.1-3.1-.4-4.6a2.76,2.76,0,0,1,3.1-1.6A3,3,0,0,0,134.08,149.63Zm-.4,4.4a1.34,1.34,0,0,0-1.4-1.5c-.6,0-1.4.1-1.5,1a1.79,1.79,0,0,0,1.4,1.9,1.39,1.39,0,0,0,1.5-1.4Z" fill="#1e6971"/><path d="M315.58,149.63c-1.7.2-3.1.8-3.1,2.9l.8-.3a1.94,1.94,0,0,1,2.5.8,2.21,2.21,0,0,1-.7,2.8,2,2,0,0,1-2.7-.4,4.4,4.4,0,0,1,.7-5.6A2.28,2.28,0,0,1,315.58,149.63Zm-.3,4.4a1.37,1.37,0,0,0-1.3-1.5h-.2c-.6.1-1.4.1-1.4,1.1s.7,1.9,1.5,1.8a1.37,1.37,0,0,0,1.4-1.4Z" fill="#1e6971"/><path d="M246.88,181.33v2.9c0,.4.1.9-.5.9s-.6-.5-.6-.9v-5.1c0-.5,0-1-.7-.9-.2,0-.5,0-.5-.3s.2-.4.5-.5c1.5-.2,1.8,0,1.8,1.5v2.4Z" fill="#33767d"/><path d="M240.48,176.93v-.4c.2-.4-.4-1.2.5-1.2s.4.8.4,1.2c0,.9.5.4.8.4s.9-.6,1.1.2-.5.6-.9.6c-1,.1-.7.4-.3.9.1.1.2.3.4.5.4.4,0,.6-.2.8s-.5,0-.6-.2l-.8-1.2c-.3.4-.5.8-.7,1.1s-.2.7-.7.3-.4-.5-.1-.9.5-.6.7-.9c-.3-.4-.7-.2-1-.4s-.7-.2-.6-.7.5-.3.8-.2A2.25,2.25,0,0,0,240.48,176.93Z" fill="#12626a"/><path d="M30.68,122.23v.8H17.18c-.4,0-.4-.2-.3-.4l.3-.3h1Z" fill="#85a9ac"/><path d="M209.68,122.23v.8h-13.4a.3.3,0,1,1,0-.6h1Z" fill="#85a9ac"/><path d="M198.28,88.63c.4,0,.4.3.4.6v2.6c0,.4-.2.9.5.9.2,0,.2.4.1.4-1.2,0-.1,1.5-1,1.6-.4,0-.4-.4-.3-.6.1-.7-.3-.8-.9-.8s-1.8.4-2.1-.3c-.2-.5.6-1.2,1.1-1.7.5-.7,1.1-1.5,1.6-2.2C197.88,88.83,198,88.63,198.28,88.63Zm-.3,1.1a20.25,20.25,0,0,0-2.1,3C198.38,92.73,198.08,93.33,198,89.73Z" fill="#1e6971"/><path d="M36,101.13c0,.2,0,.4-.3.4-3.2-1.5-6.1-3.4-9.2-5.1a15.05,15.05,0,0,1-1.7-1c-.2-.1-.5-.2-.3-.5s.4-.1.6,0c1.5.8,3.1,1.7,4.6,2.5C31.88,98.73,34,99.93,36,101.13Z" fill="#85a9ac"/><path d="M116.48,145.93l1.1.5a68.11,68.11,0,0,0,6.3,4.1c.4.2,1.3.4.9.9s-.9-.1-1.3-.3c-2.1-1.1-4.1-2.7-6.4-3.5a2.4,2.4,0,0,0-1.2-.7h-.2A1.89,1.89,0,0,1,116.48,145.93Z" fill="#85a9ac"/><path d="M200.38,153.23c0,1.9-1,3-2.4,2.9s-2-1.4-1.7-3.6a2.08,2.08,0,0,1,1.9-2.1h.3C199.68,150.53,200.38,151.63,200.38,153.23Zm-.7-.1a1.7,1.7,0,0,0-.1-.7c-.2-.7-.4-1.4-1.4-1.4s-1.1.7-1.2,1.5c0,.3-.1.6-.1.8,0,1.5.5,2.3,1.4,2.3S199.58,154.73,199.68,153.13Z" fill="#1e6971"/><path d="M144.48,125c-1.3.1-.6,1.3-1.1,1.7-.3.2-.5-.2-.4-.5.1-.9-.4-.9-1.1-.9s-1.6.3-1.9-.2c-.4-.7.6-1.2.9-1.8.5-.8,1.1-1.5,1.6-2.2.2-.3.4-.7.8-.6s.2.6.2.9v1.9C143.48,123.93,143.38,124.73,144.48,125Zm-3.9-.4c2.7.3,2.9.1,2.2-2.9Z" fill="#12626a"/><path d="M22.88,91.23a3,3,0,0,1-.8,2.4,1.75,1.75,0,0,1-2.5.1,1.79,1.79,0,0,1-.5-.7,3.82,3.82,0,0,1,0-3.6,1.75,1.75,0,0,1,1.9-1.1,1.92,1.92,0,0,1,1.7,1.7A6,6,0,0,1,22.88,91.23Zm-.7,0c0-1.5-.5-2.3-1.4-2.3s-1.4.9-1.4,2.3.6,2.4,1.4,2.4,1.4-.9,1.4-2.4Z" fill="#1e6971"/><path d="M135.28,153.33a3,3,0,0,1,.9-2.5,1.92,1.92,0,0,1,2.7.3c.1.2.2.3.3.5a4.42,4.42,0,0,1,.1,3,2,2,0,0,1-2,1.5,1.94,1.94,0,0,1-1.8-1.8A3.55,3.55,0,0,1,135.28,153.33Zm3.4-.1c0-1.5-.5-2.2-1.4-2.2s-1.3.7-1.3,2.1v.1c0,1.5.5,2.3,1.3,2.3s1.4-.8,1.4-2.3Z" fill="#1e6971"/><path d="M13.48,123.33c0,1.8-.6,2.7-1.9,2.8a1.69,1.69,0,0,1-1.9-1.2,3.59,3.59,0,0,1-.1-2.7c.4-1.3,1.1-1.9,2.3-1.8,1,.1,1.6.9,1.7,2.2A2,2,0,0,0,13.48,123.33Zm-.7,0c0-1.6-.4-2.4-1.3-2.4s-1.4.8-1.4,2.4c0,.9,0,2,1.3,2.2C12.28,125.73,12.78,124.93,12.78,123.33Z" fill="#1e6971"/><path d="M295.48,145.93l1.1.5a68.11,68.11,0,0,0,6.3,4.1c.4.2,1.3.3.9,1s-.9-.1-1.2-.3c-1.7-.9-3.4-2-5-2.9a3.51,3.51,0,0,0-1.4-.6,3.69,3.69,0,0,0-1.4-.7Z" fill="#85a9ac"/><path d="M48,68.33c-.1,1.9-.9,2.8-2.2,2.8a1.51,1.51,0,0,1-1.4-.7,4,4,0,0,1,0-4.2,1.93,1.93,0,0,1,2.6-.6,1.6,1.6,0,0,1,.7.9A5.66,5.66,0,0,1,48,68.33Zm-.8-.3c-.1-.4-.1-.7-.2-1.1a1.09,1.09,0,0,0-1.1-.9,1,1,0,0,0-1.2.9,5.07,5.07,0,0,0-.2,1.3c0,1.4.5,2.4,1.4,2.4S47.28,69.73,47.18,68Z" fill="#1e6971"/><path d="M105.08,68.43c0-1.7.4-2.5,1.5-2.9a1.75,1.75,0,0,1,2,.6,4.12,4.12,0,0,1-.1,4.4,1.88,1.88,0,0,1-2.6.3,2.65,2.65,0,0,1-.5-.6A3.81,3.81,0,0,1,105.08,68.43Zm.7-.2h0v1.1c.2.7.4,1.3,1.2,1.3s1.1-.6,1.3-1.2a4.48,4.48,0,0,0,0-2.3,1.19,1.19,0,0,0-1.2-1c-.7,0-1,.5-1.2,1.1A3.08,3.08,0,0,0,105.78,68.23Z" fill="#1e6971"/><path d="M76.28,58.23c0-1.9.8-2.9,2.3-2.8,1.3.1,1.9,1.2,1.8,3.2-.1,1.5-1,2.6-2.2,2.5S76.28,60,76.28,58.23Zm.7,0a4.1,4.1,0,0,0,.1,1.1c.2.6.4,1.2,1.2,1.2s1-.5,1.2-1.1a4.48,4.48,0,0,0,0-2.3c-.2-.6-.5-1.2-1.3-1.1s-1,.6-1.2,1.2v1Z" fill="#1e6971"/><path d="M215.08,101.13c0,.2,0,.4-.3.4-2.4-1.1-4.6-2.6-7-3.8-1.3-.7-2.5-1.4-3.7-2.1-.2-.1-.6-.2-.4-.6s.5-.1.7,0C207.88,97,211.48,99.13,215.08,101.13Z" fill="#85a9ac"/><path d="M286.78,68.33c0-1.7.5-2.5,1.6-2.8a1.27,1.27,0,0,1,.6-.1c1.3.1,2.1,1.5,1.9,3.3-.1,1.6-1.1,2.5-2.4,2.4S286.78,70,286.78,68.33Zm3.3,0c0-1.5-.4-2.3-1.3-2.3s-1.4.7-1.4,2.2v.1c0,1.5.5,2.3,1.4,2.3s1.3-.8,1.3-2.3Z" fill="#1e6971"/><path d="M110.18,68.23a5.84,5.84,0,0,1,.4-1.8,1.85,1.85,0,0,1,1.7-1.1,1.74,1.74,0,0,1,1.7,1.2,3.94,3.94,0,0,1-.3,3.8,1.92,1.92,0,0,1-2,.6C110.78,70.93,110.28,69.73,110.18,68.23Zm3.5-.2a5.07,5.07,0,0,0-.2-.9,1.11,1.11,0,0,0-1.2-1,1.13,1.13,0,0,0-1.2,1.1,5,5,0,0,0-.2,1.2c0,1.4.5,2.3,1.3,2.3s1.5-1,1.5-2.7Z" fill="#1e6971"/><path d="M140,92.23c-.1,1.8-.7,2.8-1.9,2.9a1.89,1.89,0,0,1-1.9-1,3.92,3.92,0,0,1-.1-3.5,2,2,0,0,1,1.9-1.2,2,2,0,0,1,1.8,1.6A5,5,0,0,1,140,92.23Zm-3.4,0a3.18,3.18,0,0,0,.2,1.4,1.19,1.19,0,0,0,1.2,1,1.17,1.17,0,0,0,1.1-.9,4.47,4.47,0,0,0,0-2.8A1.17,1.17,0,0,0,138,90a1.3,1.3,0,0,0-1.2.8,3.4,3.4,0,0,0-.2,1.4Z" fill="#1e6971"/><path d="M21.38,153.23c0,1.7-.9,2.9-2.2,2.9H19c-1.3-.1-1.9-1.4-1.7-3.5.2-1.5,1-2.3,2.3-2.1S21.38,151.73,21.38,153.23Zm-.8-.3a4.5,4.5,0,0,0-.2-.8c-.1-.7-.4-1.2-1.2-1.2s-1.1.5-1.2,1.2a2.77,2.77,0,0,0-.1.9c-.1,1.4.5,2.4,1.4,2.4S20.58,154.73,20.58,152.93Z" fill="#1e6971"/><path d="M149.38,123.13c0,1.8-.8,2.9-2,3a1.87,1.87,0,0,1-2-1.5,3.94,3.94,0,0,1-.1-2.4,2,2,0,0,1,2.1-1.7,1.79,1.79,0,0,1,1.8,1.8A1.34,1.34,0,0,1,149.38,123.13Zm-.6,0-.2-.8c-.1-.7-.4-1.2-1.2-1.2s-1.1.5-1.3,1.2c-.1.3-.1.7-.2,1.1,0,1.5.5,2.4,1.4,2.3s1.4-1,1.5-2.6Z" fill="#1e6971"/><path d="M221,513.83a1.65,1.65,0,1,1,3.3-.1,1.67,1.67,0,0,1-1.5,1.8h-.3a1.44,1.44,0,0,1-1.5-1.6Z" fill="#253f4e"/><path d="M224.18,504.93a1.55,1.55,0,0,1-1.3,1.7h-.3a1.83,1.83,0,0,1-1.6-1.8,1.81,1.81,0,0,1,1.6-1.6,1.4,1.4,0,0,1,1.6,1.3Z" fill="#253f4e"/><path d="M187.78,125.43c.8,0,1.7.5,2-1,.4,1.2.4,1.7-.8,1.6a12.05,12.05,0,0,0-1.9,0c-.2,0-.5.1-.6-.2s0-.5.3-.7a9.3,9.3,0,0,0,2.1-2.3,1.54,1.54,0,0,0,.1-1.6c-.2-.4-.7-.3-1.1-.3s-.7.2-.7.6c0,.2,0,.4-.3.4s-.3-.2-.3-.4h0c0-.3-.1-.6.3-.9a3,3,0,0,1,2.6,0,1.81,1.81,0,0,1,.2,2.1,2.73,2.73,0,0,1-.9,1.2,9.38,9.38,0,0,1-1.2.9Z" fill="#12626a"/><path d="M314,94.43c1.8.1,1.8.1,2.3-.7.5,1.3.4,1.4-.8,1.4h-1.7c-.3,0-.8.2-.9-.3s.2-.5.5-.7a7.4,7.4,0,0,0,2-2.3,1.36,1.36,0,0,0,0-1.5c-.3-.4-.8-.2-1.2-.2a.55.55,0,0,0-.5.3c-.1.2.1.6-.3.6a.32.32,0,0,1-.3-.3c0-.3-.1-.8.3-1a2.26,2.26,0,0,1,2.6.1,1.67,1.67,0,0,1,.1,2.2A12.06,12.06,0,0,1,314,94.43Z" fill="#1e6971"/><path d="M196.28,514.33c.1-.3.4-.7.6-.3.6,1.4,1.7.5,2.6.7.3.1.4-.3.4-.6s-.1-.5-.4-.6h-.2c-.8.1-.9-.5-.9-1.1v-7.8c0-1-.3-1.4-1.3-1.2h-1.2c-.4,0-.6.1-.6.5s.1.7.6.7.9.1.8.7V512a.55.55,0,0,1-.3.5c0-2.3.1-4.6.1-6.9,0-.5-.1-.7-.6-.6-1.1.2-.8-.6-.9-1.2-.1-.9.6-.6,1-.6,2.6,0,2.6,0,2.7,2.6v6.5c0,.6,0,1.1.9,1s.6.5.6,1,.1.9-.6.8a20.9,20.9,0,0,0-2.5-.1C196.48,515.13,197.08,514,196.28,514.33Z" fill="#253f4e"/><path d="M131.68,91.13c-.3-.5-.4-1,0-1.3a2.13,2.13,0,0,1,2.3-.2,1.35,1.35,0,0,1,.8,1.5,3.45,3.45,0,0,1-1.2,2.1c-.3.3-.7.6-1.1,1,1.2.4,1.3.4,2-.3.1-.1.2-.2.3-.2.4.1.2.4.2.7s.1.6-.3.7a15,15,0,0,1-3,0c-.6-.1-.4-.5,0-.8a8.81,8.81,0,0,0,2.2-2.5,1.36,1.36,0,0,0,0-1.5c-.3-.4-.8-.2-1.2-.2C131.78,90,132.18,90.93,131.68,91.13Z" fill="#1e6971"/><path d="M18,93c-1.2.2-.7,1.2-1.1,1.7-.2.2-.5-.1-.5-.4.2-1.1-.5-1-1.2-1s-1.4.3-1.7-.2.5-1.1.8-1.6c.6-.9,1.3-1.7,1.9-2.6.2-.2.4-.4.7-.3s.2.4.2.6v.6C17.38,90.93,16.38,92.23,18,93Zm-3.9-.3h1.8c.5,0,.6-.1.6-.5v-2.3l-.2-.1Z" fill="#1e6971"/><path d="M174,246.33v4.1c0,.6.1,1,.8.9,1.1-.1.6.7.6,1.1s0,.8-.7.8a22.85,22.85,0,0,0-3.7,0c-.6,0-.8-.3-.7-.8s-.4-1.3.6-1.1c.6.1.8-.1.8-.8v-6.6c0-.4.1-.9-.6-.8-1.2.2-.9-.6-.9-1.3-.1-.9.6-.6,1-.7,2.6,0,2.6,0,2.6,2.6v2.6Zm-.2.3v-3c0-2.4,0-2.4-2.4-2.2-.5,0-.8.1-.8.7s.1.8.6.8c.8-.1.8.4.8,1v6.7c0,.6-.1,1-.9.9-.6,0-.6.4-.6.8s.2.6.7.6h3.2a.66.66,0,0,0,.7-.6.6.6,0,0,0-.6-.8c-.8.1-.8-.4-.8-1C173.78,249.23,173.78,247.93,173.78,246.63Z" fill="#111219"/><path d="M49.48,18.33h-1.3c-1.1,0-1.5-.5-1.2-1.6,0-.2.2-.4.4-.3h.1c1,.2,1-.4,1-1.1V9.13c0-.5,0-1-.7-.8-1,.2-.7-.6-.7-1.1s0-.8.7-.9c2.9-.1,2.9-.1,2.9,2.8v6.5c0,.6.1,1,.8.9,1-.1.6.7.7,1.2s-.1.8-.7.8S50.18,18.33,49.48,18.33Zm.9-6.6v-3c0-2.4,0-2.4-2.4-2.2-.5,0-.8.1-.8.7s.2.8.7.8c.8-.1.8.4.8,1v6.7c0,.6-.1,1-.8,1s-.6.4-.6.8.2.6.7.6h3.2c.5,0,.7-.2.7-.6s-.1-.8-.6-.8c-.8.1-.8-.4-.8-1C50.38,14.33,50.38,13,50.38,11.73Z" fill="#111219"/><path d="M5.08,122.13c-.3-.9-.2-1.5.8-1.6,1.4-.2,2.1.1,2.3,1a2.72,2.72,0,0,1-.9,2.4,17.91,17.91,0,0,1-1.4,1.5c1,.1,1.8.4,2.4-.6.1.7.5,1.4-.8,1.3a13.35,13.35,0,0,0-2,0c-.2,0-.5.1-.6-.2s.1-.5.3-.7a8.81,8.81,0,0,0,2.2-2.5,1.06,1.06,0,0,0-.1-1.4c-.4-.5-.8-.3-1.3-.3C5.28,121,5.78,121.93,5.08,122.13Z" fill="#12626a"/><path d="M241.18,18.23a.78.78,0,0,1,.8-.2.53.53,0,0,0,.6-.6c0-.4,0-.8-.6-.8-.9.1-.8-.5-.8-1.1,0-2.6-.1-5.1,0-7.7,0-1.2-.4-1.5-1.4-1.3h-1.1c-.4,0-.7.2-.6.7s0,.8.5.8c1-.1.9.6.9,1.2v6.5c0,.5,0,1-.7,1s-.8.2-.8.8.4.6.9.6.7-.1,1,.2a4.05,4.05,0,0,1-1.1,0c-.5,0-1.2.3-1.1-.7.1-.6-.2-1.4.9-1.2.6.1.5-.3.5-.7V9c0-.6-.2-.9-.8-.8-.9.1-.6-.6-.6-1s-.1-.9.6-.9c3-.1,3-.2,3,2.7v6.6c0,.6.1.9.8.8,1-.1.6.6.7,1.1s0,1-.7.8A2.77,2.77,0,0,0,241.18,18.23Z" fill="#111219"/><path d="M326.18,125.13c-1.5,0-.7,1.2-1.2,1.6a.45.45,0,0,1-.5,0,.37.37,0,0,1-.1-.3c.2-1.2-.5-1-1.3-1-.6,0-1.4.3-1.7-.2s.5-1.1.8-1.6c.6-.9,1.3-1.8,2-2.7a.49.49,0,0,1,.6-.3c.3.1.2.4.2.6v2.2C325,124.23,324.88,124.83,326.18,125.13Zm-1.8-3.3a18.6,18.6,0,0,0-2.1,2.8c2.5.5,2.8,0,2.1-2.8Z" fill="#12626a"/><path d="M38.38,7.23c-.1.2-.2.5-.5.4s-.2-.4-.2-.6V1.53c0-.9-.2-1.4-1.2-1.2h-1.3c-.5,0-.6.2-.6.7s0,.8.5.8c.9-.2.9.3.9,1v12.7c0,.4.2,1-.6,1.1-.6,0-.9.1-.9.8s.5.6,1,.6a1,1,0,0,1,.7.2h-1c-.5,0-1.1.2-1-.7.1-.5-.3-1.4.8-1.2.6.1.6-.2.6-.7V2.73c.2-.7-.1-.8-.6-.7-1,.1-.6-.6-.6-1s-.1-.9.6-1c2.9-.1,2.9-.1,2.9,2.8v3.8C38,6.93,37.78,7.33,38.38,7.23Z" fill="#111219"/><path d="M296.58,101.33a.86.86,0,0,1-.3-.6c2.6-1.5,5.2-2.9,7.8-4.4.4-.2.9-.8,1.2-.3s-.5.7-.9,1C301.88,98.43,299.18,99.93,296.58,101.33Z" fill="#85a9ac"/><path d="M117.58,101.33a.91.91,0,0,1-.3-.7c2.7-1.5,5.3-3,8-4.5.3-.2.7-.7,1-.2s-.3.6-.6.8C123,98.33,120.28,99.83,117.58,101.33Z" fill="#85a9ac"/><path d="M139,18.23c.4-.3,1-.1,1-.9s-.5-.6-1-.7c-.7-.1-.5-.7-.5-1.2,0-4.5-.1-9.1,0-13.6,0-1.2-.2-1.7-1.5-1.5h-1.3c-.5,0-.6.3-.6.7s.1.8.6.7c1.2-.2,1.1.6,1.1,1.4,0,1.2-.1,2.3-.1,3.5l-.1.1s-.2.1-.1,0,0-.2,0-.3V2.83c0-.6-.2-.9-.8-.8-.8.2-.9-.2-1-1s.3-.9,1.1-.9c2.9,0,2.9,0,2.9,2.8v12.6c0,.4-.3,1,.5.9,1.3-.2.9.7.9,1.4C140.18,18.83,139.38,18.13,139,18.23Z" fill="#111219"/><path d="M101.28,84l-1.2-.7c.6,0,.7-.4.9-.8,1.3-2.2,2.7-4.5,4-6.7.2-.3.3-.8.7-.6s0,.7-.2,1c-1.3,2.2-2.6,4.4-3.9,6.5C101.48,83.13,101.08,83.53,101.28,84Z" fill="#85a9ac"/><path d="M122.88,123.93v-.8H133c.3,0,.6.1.6.4s-.4.3-.6.3h-2.2Z" fill="#85a9ac"/><path d="M301.88,123.93v-.8h10c.3,0,.6.1.6.4s-.4.3-.6.3h-2.2Z" fill="#85a9ac"/><path d="M207.58,253.13c1.7-.4,3.4-.1,5.1-.2.5,0,1.3.3,1.5-.3a4.47,4.47,0,0,0,0-2.8c-.1-.4-.5-.2-.9-.2s-.5.4-.5.7c.2,1.2-.5,1.3-1.4,1.2-1.1-.1-2.6.5-3.4-.2s-.2-2.3-.3-3.4v-8.1c0-.4-.2-.9.4-1.2a26.75,26.75,0,0,0-.1,4.9v7c0,.6.1.9.8.9a7.39,7.39,0,0,1,2.1,0c1.1.1,1.8-.1,1.6-1.4-.1-.9.6-.5,1-.5s1-.2.9.5v.1c.2,3.2.2,3.2-3,3.2C210.18,253.23,208.88,253.23,207.58,253.13Z" fill="#111219"/><path d="M255.08,77h-.8v-9.7a.27.27,0,0,1,.3-.3h.1a.27.27,0,0,1,.3.3v1C255.08,71.23,255.08,74.13,255.08,77Z" fill="#85a9ac"/><path d="M76.08,77h-.8v-9.7a.27.27,0,0,1,.3-.3h.1a.27.27,0,0,1,.3.3v1C76.08,71.23,76.08,74.13,76.08,77Z" fill="#85a9ac"/><path d="M296.08,253.13c.3-.3.7-.2,1-.2a.58.58,0,0,0,.6-.6c0-.4,0-.8-.6-.8-.9.1-.8-.5-.8-1.1,0-2.6-.1-5.1,0-7.7,0-1.2-.4-1.5-1.4-1.4h-1.1c-.5,0-.6.2-.6.6s0,.8.5.8c1-.1.9.6.9,1.2v5.4c0,.4.2.8-.3,1.1,0-2.3,0-4.6.1-6.8,0-.5-.1-.7-.6-.6-1.1.2-.8-.6-.9-1.2-.1-.9.5-.7,1-.7,2.6,0,2.6,0,2.6,2.5v6.7c0,.6,0,.9.8.8,1-.1.6.6.7,1.1s0,.9-.7.8A2.46,2.46,0,0,1,296.08,253.13Z" fill="#111219"/><path d="M171.28,238.43c0-1.2.5-1.6,1.5-1.5a1.33,1.33,0,0,1,1.4,1.2v.2a1.39,1.39,0,0,1-1.5,1.4h-.1A1.32,1.32,0,0,1,171.28,238.43Z" fill="#141839"/><path d="M79.38,253.13a1.08,1.08,0,0,1,.8-.2c.4,0,.7-.2.7-.6s0-.8-.6-.8c-.9.1-.8-.5-.8-1.1v-7.8c0-1-.3-1.4-1.3-1.2H77c-.4,0-.7.2-.7.6s0,.8.5.8c1-.1.9.6.9,1.2v5.4c0,.4.2.8-.3,1.1,0-2.3,0-4.5.1-6.8,0-.6-.2-.7-.7-.6-1.1.1-.7-.7-.7-1.2-.1-.7.2-.8.8-.8,2.8-.1,2.8-.1,2.8,2.7v6.6c0,.3-.2.9.4.8,1.3-.2,1.1.7,1,1.4,0,1.1-.9.4-1.3.6A.76.76,0,0,1,79.38,253.13Z" fill="#111219"/><path d="M49.38,1.93c.9,0,1.5.3,1.5,1.3a1.39,1.39,0,0,1-1.1,1.6h-.2a1.32,1.32,0,0,1-1.5-1.3v-.2A1.24,1.24,0,0,1,49.38,1.93Z" fill="#141839"/><path d="M241.68,3.23c-.1,1.1-.8,1.7-1.6,1.6a1.32,1.32,0,0,1-1.3-1.3v-.2a1.37,1.37,0,0,1,1.6-1.4,1.4,1.4,0,0,1,1.3,1.3Z" fill="#141839"/><path d="M247.38,6.53h-2.3c-.4,0-.8,0-.8.6s.1.9.7.9.8.4.8.9v6.8c0,.5-.1,1-.8.9s-.7.2-.7.7.2.7.7.7h3c.3,0,.6-.1.6-.5s.1-.8-.2-.9c-1.8-.4-.9-1.6-.8-2.5,0,.4.1.9.1,1.3s0,.9.7.9.4.8.5,1.2,0,.7-.6.7h-3.6c-.7,0-.7-.4-.6-.8s-.4-1.2.6-1.1c.8.1.9-.3.9-.9V9c0-.4.1-.9-.6-.8-1.2.2-.9-.6-.9-1.2-.1-.9.6-.7,1-.7C245.78,6.43,246.68,6,247.38,6.53Z" fill="#111219"/><path d="M184.48,243.93c.4.3.2.7.2,1.1v4.8c0,.7.5,1.8-.9,1.9-.3,0-.2.5-.2.9s.2.5.6.5h3.1c.5,0,.6-.2.6-.7s0-.8-.5-.7c-.9.1-.9-.5-.9-1.1.1-2.2-.2-4.4.2-6.6,0,2.2.1,4.3.1,6.5,0,.6,0,1.1.8,1,1-.1.5.8.6,1.2s-.1.8-.7.7c-1.1-.1-2.2,0-3.4,0-.4,0-.9,0-.7-.6s-.5-1.4.6-1.3c.8,0,.6-.4.6-.9C184.58,248.23,184.48,246,184.48,243.93Z" fill="#111219"/><path d="M72,515c0-.7.3-1.6-1-1.5-.6,0-.4-.7-.4-1V499c0-.5.3-1.3-.2-1.6a4.57,4.57,0,0,0-2.6-.1c-.6.1-.1,1-.5,1.4-.1-1.7-.1-1.7,1.5-1.7,2.1,0,2.1,0,2.1,2v13.3c0,.7.1,1,.9,1.1S72.18,514.43,72,515Z" fill="#253f4e"/><path d="M290.18,250.83c-.5-.3-.3-.8-.3-1.2v-7.1c0-.8-.2-1.2-1.1-1.1h-1.4c-.5,0-.6.3-.6.7s0,.7.6.7.9.1.9.8v7a.52.52,0,0,1-.2.4v-7c0-.6,0-1.1-.8-1s-.6-.6-.6-1.1-.1-.9.7-.9c2.9-.1,2.9-.1,2.9,2.8C290.08,246.23,290.18,248.53,290.18,250.83Z" fill="#111219"/><path d="M73.28,250.83c-.5-.3-.3-.8-.3-1.2v-7.1c0-.8-.2-1.2-1.1-1.1h-1.4c-.5,0-.6.2-.6.7s0,.8.5.7c.9-.1.9.5.9,1.1-.1,2.3.2,4.7-.2,7,0-2.3-.1-4.6-.1-6.9,0-.6,0-1.1-.8-1s-.5-.6-.6-1.1,0-.9.7-.9c2.9-.1,2.9-.1,2.9,2.8C73.18,246.23,73.08,248.53,73.28,250.83Z" fill="#111219"/><path d="M53.08,235.23c.3.6,0,1.7,1.3,1.5.4,0,.3.5.3.8v13.2c0,.4,0,.9-.6.8s-.9.2-.9.8.6.6,1,.7a.52.52,0,0,1,.4.2h-.8c-.5,0-1,.1-.9-.7.1-.5-.4-1.4.8-1.2.5.1.7-.2.7-.7v-13c0-.2.1-.7-.3-.7C52.58,237.13,53,236.13,53.08,235.23Z" fill="#111219"/><path d="M51.58,84.33a.82.82,0,0,1-.5.5c-1.1-2.6-2.8-4.8-4.1-7.2a11.48,11.48,0,0,1-1.4-2.7l.4-.2Z" fill="#85a9ac"/><path d="M138.88,505.43c.5.2.3.7.3,1.1v6c0,.6.1,1.1-.8,1.1-.4,0-.4.4-.4.7s.2.5.6.5h2.6c.4,0,.8.1.9-.5s-.3-.7-.8-.7c-.1,0-.2,0-.2-.2.9-.2,1.4.1,1.2,1.1-.1.6-.3.6-.7.6h-3.1c-.6,0-.9-.2-.8-.7s-.3-1.2.6-1c.5,0,.6-.2.6-.6Z" fill="#253f4e"/><path d="M230.58,84.33c0,.3-.3.4-.5.5-.6-1.8-1.8-3.2-2.7-4.9s-1.7-2.9-2.6-4.4c-.1-.2-.4-.5.1-.9C226.88,77.83,228.78,81,230.58,84.33Z" fill="#85a9ac"/><path d="M114.68,437.73c-.2-.9.4-1.1,1-1.4l.6-1.5c.2-.1.4-.3.5-.3.3.3,0,.7.2,1-.3,1.1-.6,2.2-.9,3.2-.1.2-.3.6-.5.6-.4.1-.4-.3-.5-.6A1.16,1.16,0,0,1,114.68,437.73Z" fill="#33767d"/><path d="M248.08,253.13c.3-.3.7-.2,1-.2a.66.66,0,0,0,.7-.6c0-.4,0-.8-.6-.8s-.8-.2-.8-.8v-14.9a1.42,1.42,0,0,1,.2-.6v14.9c0,.7-.1,1.3,1,1.2.8-.1.4.7.4,1.1s.2.9-.5.8A7.08,7.08,0,0,1,248.08,253.13Z" fill="#111219"/><path d="M127.18,253.13c.3-.3.7-.2,1-.2a.66.66,0,0,0,.7-.6c0-.4,0-.8-.6-.8s-.8-.2-.8-.8v-14.9a1.42,1.42,0,0,1,.2-.6c0,5,0,9.9.1,14.9,0,.7-.1,1.3,1,1.2.8-.1.4.7.4,1.1s.2.9-.5.8A7.57,7.57,0,0,1,127.18,253.13Z" fill="#111219"/><path d="M145.38,513.23c-.1.3-.3.3-.6.3s-.4.5-.4.8.3.4.6.4h3.1a.53.53,0,0,0,.6-.6c0-.4-.1-.7-.5-.6-.9.1-.9-.5-.9-1.1.1-2.1-.2-4.2.2-6.3v6.3c0,.5,0,1,.7.8.9-.2.7.5.7,1s0,.9-.8.8c-1.1-.1-2.1,0-3.2,0-.5,0-.9,0-.9-.7s-.1-1.3.9-1.1C145.18,513.33,145.28,513.33,145.38,513.23Z" fill="#253f4e"/><path d="M56.68,253.13c.1-.1.3-.1.4-.2.5,0,.8-.2.8-.8s-.2-.7-.7-.7-.7-.3-.7-.8v-14.9a1.42,1.42,0,0,1,.2-.6c0,5,0,10,.1,14.9,0,.7-.1,1.3,1,1.2.8-.1.3.7.4,1.1s.2.9-.5.8Z" fill="#111219"/><path d="M151,505.13c.6-.2.4.3.4.6v12.4c0,.4,0,.8-.5.8-.7,0-1.1.2-1,1s.8.4,1.2.5h.2c-1.6.5-1.8.3-1.8-1.1,0-.5.2-.7.7-.6s.8,0,.8-.7v-12.5C151.18,505.33,151.08,505.23,151,505.13Z" fill="#253f4e"/><path d="M271.88,3.63c1.6-.4,1.7-.3,1.7,1.2v10.8c0,.6,0,1.2-.8,1.1-.6-.1-.9.1-.9.8s.5.6.9.6.7-.1,1,.2h-1.1c-1.1,0-1.5-.6-1.1-1.6.2-.6.7-.3,1-.3.6,0,.8-.1.8-.7V4.53C273.38,3.13,272.28,3.93,271.88,3.63Z" fill="#111219"/><path d="M318.68,120.83c1.7-.4,1.7-.4,1.7,1.1v3.6c0,.3.1.6-.4.6s-.3-.4-.3-.6v-3C319.68,121.73,319.78,120.93,318.68,120.83Z" fill="#12626a"/><path d="M283.68,65.83c1.7-.5,1.7-.5,1.7,1.1v3.6c0,.2.1.6-.4.6s-.4-.3-.4-.6v-3.2C284.68,66.53,284.58,66,283.68,65.83Z" fill="#085e66"/><path d="M102,65.93c1.7-.5,1.7-.5,1.7,1v3.3c0,.3.2.8-.3.8s-.4-.5-.4-.8v-3C103,66.73,103.28,65.83,102,65.93Z" fill="#085e66"/><path d="M136.88,120.83c1.8-.6,1.9-.6,1.9.8v3.7c0,.3.1.6-.4.6s-.4-.3-.4-.6v-3C138,121.73,138.28,120.83,136.88,120.83Z" fill="#085e66"/><path d="M310,89.83c1.7-.5,1.7-.5,1.7,1v3.6c0,.3.1.6-.4.6s-.3-.3-.4-.6v-3.1C311,90.73,311.18,89.93,310,89.83Z" fill="#12626a"/><path d="M128.38,89.83c1.7-.5,1.7-.5,1.7,1v3.6c0,.2.1.6-.4.6s-.4-.3-.4-.6v-3.2C129.38,90.63,129.38,89.93,128.38,89.83Z" fill="#085e66"/><path d="M127.08,150.73c1.1-.4,1.7-.3,1.6,1s0,2.4,0,3.6c0,.3.2.7-.3.7s-.4-.4-.4-.7v-3.1C128,151.63,128,151,127.08,150.73Z" fill="#12626a"/><path d="M308.68,150.83c1.1-.4,1.8-.4,1.6.9a21.63,21.63,0,0,0,0,3.6c0,.3.2.7-.3.8s-.4-.5-.4-.8v-3.1C309.58,151.53,309.78,150.83,308.68,150.83Z" fill="#085e66"/><path d="M298.78,12.53A14,14,0,0,1,299,16c0,.6-.5.5-.9.5a.73.73,0,0,0-.8.8c0,.6.4.7.9.7h2.9c.4,0,.8,0,.8-.6s0-.9-.7-.9-.8-.4-.8-.9-.2-1.2.2-1.7v1.4c0,.6,0,1.1.9,1s.5.7.6,1.1.1.9-.6.8a17.09,17.09,0,0,0-3.2,0c-.8,0-1.3,0-1.2-1.1.1-.7.2-.9.9-.8s.9-.2.9-.9A27.15,27.15,0,0,1,298.78,12.53Z" fill="#111219"/><path d="M279.78,83.23l4.8-8.1c.4.2.4.4.3.5-1.5,2.5-3,5-4.4,7.4-.1.2-.3.2-.5.3S279.78,83.33,279.78,83.23Z" fill="#85a9ac"/><path d="M143.38,238.63c.6.2.3.8.3,1.2a.63.63,0,0,0,.7.7c.5,0,.7-.2.8-.8.2-2.6.2-2.6-2.3-2.6H136c-.4,0-.8.1-1.1-.2,3.3,0,6.7,0,10-.1.5,0,.6.3.6.7v2c0,1.1-.4,1.5-1.6,1.2-.4-.1-.3-.4-.4-.6C143.48,239.63,143.38,239.13,143.38,238.63Z" fill="#111219"/><path d="M68.58,498.93c.4,0,.2.3.2.5v13.1c0,.3.1.7-.3.8C68.58,508.53,68.58,503.73,68.58,498.93Z" fill="#253f4e"/><path d="M192.18,512.43c-.4-.4-.2-.8-.2-1.2v-6.6c0-.8-.2-1.2-1.1-1.1h-.2c-1.1-.2-2,0-2,1.4-.1-1.7-.1-1.7,1.5-1.7,2.1,0,2.1,0,2.1,2.1C192.18,507.73,192.18,510,192.18,512.43Z" fill="#253f4e"/><path d="M138.48,253.13c1.8-.4,3.7-.1,5.6-.2.5,0,1.2.3,1.3-.4a5.33,5.33,0,0,0-.1-2.8c-.2-.4-.9,0-1.3-.4,1.7-.2,1.7-.2,1.7,1.5,0,2.3,0,2.3-2.3,2.3A40.05,40.05,0,0,1,138.48,253.13Z" fill="#111219"/><path d="M202.78,505.13c.5,0,.2.3.2.5v6.9c0,.6,0,1-.8,1-1.1,0-.5,1-.7,1.5-.5-1.3-.4-1.5.8-1.7.7-.1.4-.6.4-.9C202.78,510,202.78,507.63,202.78,505.13Z" fill="#253f4e"/><path d="M120.18,498.93h-11.6a74.86,74.86,0,0,1,11.6,0Z" fill="#253f4e"/><path d="M92.88,505.63c.4.6.2,1.4.2,2.1v4.4c0,.7.3,1.4-.9,1.5-.6.1-.2.9-.3,1.3-.1-.7-1-1.6.6-1.7.6,0,.4-.5.4-.8Z" fill="#253f4e"/><path d="M40.18,451.53c-.2.5-.8.5-1.2.6s-.5,0-.5-.4a.94.94,0,0,1,1-1C40,450.83,40.08,451.13,40.18,451.53Z" fill="#33767d"/><path d="M86.38,505.23c.2-.1.2.1.2.2v7.3c0,.2,0,.5-.3.6C86.38,510.63,86.38,507.93,86.38,505.23Z" fill="#253f4e"/><path d="M223.68,357.93a1.56,1.56,0,0,1,.9-1.8,4.45,4.45,0,0,1,.3,2.3C224.48,358,224.28,357.53,223.68,357.93Z" fill="#33767d"/><path d="M208.28,238.63c.2-.1.3-.2.5-.2.5,0,.7-.2.7-.7s-.4-.5-.8-.5h-3.8a1.85,1.85,0,0,1-.7-.2c1.6,0,3.1,0,4.7-.1.8,0,.9.3.9,1s-.2.9-.9.8Z" fill="#111219"/><path d="M95.08,513.33l-.2-.2a52.1,52.1,0,0,1,.1-7.9C95,507.93,95.08,510.63,95.08,513.33Z" fill="#253f4e"/><path d="M108.68,498.93v3c0,.5,0,.9.7.9s.8-.4.7-.9c0-.3-.1-.7.2-1v1c0,1.2-.3,1.5-1.5,1.2-.3-.1-.4-.1-.4-.4C108.58,501.43,108.28,500.13,108.68,498.93Z" fill="#253f4e"/><path d="M190.08,505.13h.1a31.37,31.37,0,0,1-.1,7.5Z" fill="#253f4e"/><path d="M138.58,241.43a5.66,5.66,0,0,1-.1-2.6c0-.3.1-.5.4-.5,1.5,0,3-.3,4.4.2-1.2,0-2.4.1-3.7,0-.7,0-1,.2-.9.9A12.12,12.12,0,0,1,138.58,241.43Z" fill="#111219"/><path d="M179.58,513.33l-.2-.2a45.56,45.56,0,0,1,.1-7.4Z" fill="#253f4e"/><path d="M145.38,505.93c.4.3.2.6.2,1v5.5c0,.3.1.7-.3,1Z" fill="#253f4e"/><path d="M171.38,504.13v1.7c0,.6,0,.9.6.9s.9-.2.8-.8c-.1-.2.1-.5.3-.6v.7c.1.8-.2,1-1,1s-1.1-.2-1-1S170.88,504.63,171.38,504.13Z" fill="#253f4e"/><path d="M319.88,166.33a2.25,2.25,0,0,1-1.5,2.2A4.82,4.82,0,0,1,319.88,166.33Z" fill="#c6c5c5"/><path d="M140.88,166.63a2,2,0,0,1-1.4,1.9A2.47,2.47,0,0,1,140.88,166.63Z" fill="#c6c5c5"/><path d="M153.08,503.53h-1.7c-1.3-.2-1.7.4-1.5,1.5-.6-1.5-.4-1.8,1.1-1.7C151.68,503.33,152.48,502.93,153.08,503.53Z" fill="#253f4e"/><path d="M152.58,397.73c.9.2,1.9-.5,2.6.5A4.68,4.68,0,0,1,152.58,397.73Z" fill="#33767d"/><path d="M143.78,251.33a8.11,8.11,0,0,1-4.1.1Z" fill="#111219"/><path d="M110.38,500.73c.9-.6,1.9-.2,2.8-.3v.2A27.15,27.15,0,0,0,110.38,500.73Z" fill="#253f4e"/><path d="M86.38,513.33c-.9.3-1.5.7-1.2,1.8C84.58,513.63,84.78,513.43,86.38,513.33Z" fill="#253f4e"/><path d="M180.68,515c.3-1.1-.3-1.5-1.2-1.8C181.18,513.43,181.28,513.63,180.68,515Z" fill="#253f4e"/><path d="M96.28,515c.3-1.1-.3-1.5-1.2-1.8C96.68,513.43,96.88,513.63,96.28,515Z" fill="#253f4e"/><path d="M68.68,513.23c-.9.3-1.5.7-1.2,1.8C66.88,513.63,67,513.43,68.68,513.23Z" fill="#253f4e"/><path d="M65,440.13q-1.05-.6,0-1.2Z" fill="#33767d"/><path d="M193.48,171.13c-.6,0-.8-.4-.7-1A1.83,1.83,0,0,1,193.48,171.13Z" fill="#c6c5c5"/><path d="M141.38,165.63c-.1.4.2.9-.5,1A.88.88,0,0,1,141.38,165.63Z" fill="#c6c5c5"/><path d="M118.58,503c.5-.4,1.1-.1,1.7-.2C119.78,503.23,119.08,502.93,118.58,503Z" fill="#253f4e"/><path d="M194.88,513.53a1.07,1.07,0,0,1-1.4.1h0Z" fill="#253f4e"/><path d="M192.28,169.73c-.5,0-.5-.4-.5-.7C192.08,169.13,192.18,169.43,192.28,169.73Z" fill="#c6c5c5"/><path d="M153.78,503.73c-.1.2-.2.5-.5.4s-.1-.3-.2-.5A.62.62,0,0,0,153.78,503.73Z" fill="#253f4e"/><path d="M320.38,165.63c0,.4,0,.7-.5.7A.75.75,0,0,1,320.38,165.63Z" fill="#c6c5c5"/><path d="M300.78,132.33a.75.75,0,0,1,.1-.5C301.28,132.13,301.08,132.23,300.78,132.33Z" fill="#d2d2d2"/><path d="M31.38,130.93a.84.84,0,0,1,.2.7A1,1,0,0,1,31.38,130.93Z" fill="#d2d2d2"/><path d="M155.18,398.23c.3.2.3.4.2.7Z" fill="#33767d"/><path d="M301.08,131.13l.1-.5A1.09,1.09,0,0,1,301.08,131.13Z" fill="#d2d2d2"/><path d="M122,131.13l.1-.5C122.18,130.73,122.08,130.93,122,131.13Z" fill="#d2d2d2"/><path d="M279.88,83.53c-.2.1-.5.1-.6-.1h0l.5-.1a.35.35,0,0,1,.1.2Z" fill="#85a9ac"/><path d="M210.48,130.83c.1.1.2.3.1.4Z" fill="#d2d2d2"/><path d="M193.28,513.53c-.2,0-.4,0-.5-.3C192.88,513.33,193.18,513.33,193.28,513.53Z" fill="#253f4e"/><path d="M195.38,513.33c-.1.2-.3.2-.5.2C195,513.33,195.08,513.33,195.38,513.33Z" fill="#253f4e"/><path d="M196.28,512.73c0,.3-.2.3-.5.3Z" fill="#253f4e"/><path d="M142.28,164.23l-.2.2Z" fill="#c6c5c5"/><path d="M141.78,164.93l-.2.2Z" fill="#c6c5c5"/><path d="M196.48,512.53l-.3.3Z" fill="#253f4e"/><path d="M320.88,164.93l-.2.2Z" fill="#c6c5c5"/><path d="M195.78,513l-.3.2Z" fill="#253f4e"/><path d="M321.28,164.23l-.2.2Z" fill="#c6c5c5"/><path d="M115.68,146.93h.2a9.26,9.26,0,0,1-2,4.1,41.26,41.26,0,0,1-8.2,9,48.68,48.68,0,0,1-10.6,6.7,51,51,0,0,1-7.8,2.6,27.22,27.22,0,0,1-7.5,1.1,53.42,53.42,0,0,1-8-.1,40.33,40.33,0,0,1-7.7-1.5c-2-.8-4.2-1.4-6.3-2.2A27.73,27.73,0,0,1,53,164c-2.1-1.4-4.2-3-6.2-4.6-.8-.6-1.3-1.5-2.1-2.1a40,40,0,0,1-7.5-10.3c0-.1.1-.2.1-.3,1.7,2,3.1,4.2,4.9,6.2a45,45,0,0,0,28,14.9c16,2.1,29.6-2.9,40.7-14.6A65.74,65.74,0,0,0,115.68,146.93Z" fill="#c6c5c5"/><path d="M74.18,109l2.5.2v.7a4.7,4.7,0,0,0,4.5,4.9h.1a6,6,0,0,0,4.4-1.6c.4,4.7-2.6,7.8-6.8,7.2a1.2,1.2,0,0,0-1.6-.6c-.6.1-.6.8-.6,1.3.2,1.5.2,3-1.1,4-1.7,1.4-3.2,3.1-5.7,3-1.3,0-2.6.4-3.9,0a3,3,0,0,1-2-3.1c.2-1.4.9-2,2.5-2,1,0,2.1.3,2.8-.9a7.48,7.48,0,0,0,3.2-1,4.67,4.67,0,0,0,2.3-4.6,3.94,3.94,0,0,0-3-3.6c-.1-.1-.3-.1-.4-.2C73.68,110.93,73.88,110.83,74.18,109Z" fill="#085e66"/><path d="M68.38,120.53c0-.6-.5-.9-.9-1.2a2.23,2.23,0,0,1-.8-3h0a1.17,1.17,0,0,0-.3-1.7c-.1,0-.1-.1-.2-.1a6.36,6.36,0,0,0-2.2-1.4c-.6-.1-.7-.7-.9-1.2a4,4,0,0,1,1.6-4.1c0,.9.7.7,1.2.7.7.1.6-.5.6-.9-.2-1.1.3-1.5,1.3-1.6a10.87,10.87,0,0,1,1.8-.1,2.35,2.35,0,0,1,2.4,2.3c.3,2.2-1.1,3.8-3.6,4-.5.1-1.2-.2-1.2.8s.7.7,1.2.8,1,.1,1.6.2a2.78,2.78,0,0,1,2.6,2.9C72.78,119.43,71.28,120.63,68.38,120.53Z" fill="#085e66"/><path d="M79,120.53c4.3.6,7.3-2.5,6.8-7.2a6,6,0,0,1-4.4,1.6,4.78,4.78,0,0,1-4.7-4.8v-.8c.5-3,2.4-4.8,5.2-5s4.8,1.5,5.6,4.4a14.38,14.38,0,0,1-.1,7.7c-1.2,4.1-4.2,6.2-8.5,5.9-.7,0-.9-.3-1-1C78,120.43,78.48,120.53,79,120.53Zm3.2-7.2c3.1,0,4.3-1.8,3.2-4.6a4.06,4.06,0,0,0-2.2-2.6,3.14,3.14,0,0,0-3.5.9,4.35,4.35,0,0,0-.6,4.4,3.17,3.17,0,0,0,3.1,1.9Z" fill="#fff"/><path d="M68.38,120.53c2.9.1,4.4-1.1,4.4-3.5a2.78,2.78,0,0,0-2.6-2.9c-.5-.1-1-.1-1.6-.2s-1.2.3-1.2-.8.6-.8,1.2-.8c2.5-.3,3.9-1.8,3.6-4a2.41,2.41,0,0,0-2.4-2.3,10.87,10.87,0,0,0-1.8.1c-1,.1-1.5.5-1.3,1.6.1.4.2.9-.6.9-.5,0-1.2.2-1.2-.7v-.5c0-2.2,0-2.2,2.2-2.8a10.9,10.9,0,0,1,2.6-.3c3,.2,4.5,1.7,4.6,4.7-.4,1.8-.5,1.9-2.8,3.9.1.1.3.1.4.2a3.94,3.94,0,0,1,3,3.6,4.85,4.85,0,0,1-2.3,4.6,7.08,7.08,0,0,1-3.2,1,19.4,19.4,0,0,1-3.4-.2c-1.5-.3-1.5-.3-1.3-2A9,9,0,0,0,68.38,120.53Z" fill="#fff"/><path d="M76.28,132H46.18c-.4,0-.5-.2-.5-.5s.1-.4.4-.4h60.1c.3,0,.5.1.5.5s-.1.5-.5.5l-29.9-.1Z" fill="#fff"/><path d="M71.28,145.93c-.8,2.1-1.6,4.3-2.5,6.4-.1.3-.1.8-.7.9s-.6-.5-.8-.9l-2.4-6.1h-.4v5.6a1,1,0,0,0,.1.3c.4,0,.8.1.6.6s-.7.3-1,.3h-1c-.3,0-.7.1-.7-.4s.2-.5.6-.5.4-.4.4-.7c.1-2,.1-4.1.2-6.1,0-.5-.1-.8-.6-.8-.3,0-.4-.2-.4-.5s.2-.4.5-.4c1.5-.3,2,0,2.5,1.4l2.4,6.3.8-2,1.6-4.2c.6-1.6.7-1.7,2.4-1.5.3,0,.6-.1.7.4.1.2,0,.4-.3.5h-.2c-.6,0-.5.4-.5.8,0,2,.1,4,.1,6,0,.5,0,.9.7.8.3,0,.4.2.4.5a.43.43,0,0,1-.4.4h-2.1c-.3,0-.5-.1-.5-.4s.1-.5.4-.5c.7,0,.5-.4.5-.8v-5.5Z" fill="#fff"/><path d="M86.38,147.83c2.4,0,2.4,0,2.3-2.4,0-.4,0-.8-.6-.8-.4,0-.5-.2-.4-.5s.3-.3.5-.4h2.2c.3,0,.5.1.5.4s-.1.5-.4.5c-.7,0-.6.4-.6.9v5.9c0,.4-.1.9.6.9.3,0,.4.2.4.5a.37.37,0,0,1-.4.4H88c-.2,0-.4-.1-.4-.3h0c0-.2,0-.5.2-.5,1.2,0,.8-.9.8-1.4,0-2,0-2-2-2h-.2c-2.4,0-2.4,0-2.4,2.4,0,.5-.2,1.1.7,1,.2,0,.3.1.3.4s-.1.5-.4.5h-2.2a.51.51,0,0,1-.5-.4v-.1c0-.3.1-.5.4-.4.7,0,.7-.4.7-.8v-5.9c0-.4,0-.9-.6-.9-.2,0-.4-.1-.4-.3v-.1c0-.4.3-.4.6-.4h2c.3,0,.5,0,.5.4s0,.5-.3.5c-.9-.1-.7.6-.7,1C84,147.83,84,147.83,86.38,147.83Z" fill="#fff"/><path d="M76.78,143.73H78c1.8.1,2.7.9,2.8,2.4a2.8,2.8,0,0,1-2.4,3.1h-.1c-.5.1-1.3-.2-1.4.3a9.66,9.66,0,0,0-.1,2.4c0,.4.4.3.7.3s.5.1.5.5-.3.4-.6.4h-2.2c-.3,0-.6,0-.6-.4s.2-.5.5-.5c.6,0,.5-.4.5-.7v-6.1c0-.4-.1-.8-.6-.8-.3,0-.4-.2-.4-.5s.3-.4.6-.4Zm0,2.8c0,1.9.6,2.4,2,1.6a1.92,1.92,0,0,0,.8-2.4c-.3-1.1-1.4-1.2-2.2-1.1-1,.1-.3,1.1-.5,1.6a.37.37,0,0,0-.1.3Z" fill="#fff"/><path d="M263.28,120.53c-1.1-1.7-2.8-1.6-3.6.3a6.71,6.71,0,0,1-5.4,3.9c-2.8.4-5.1-.9-6.9-3-.9-1.1-1-1-1.8.1-1,1.5-1.8,2.4-3.7,1.7a3.76,3.76,0,0,1-1.7-3v-5.4a8.81,8.81,0,0,0-.6-3.6,4.57,4.57,0,0,1-.1-2.6c.2-1.2,1.3-1.4,2.4-1.7v10.7c0,.8.1,1.1,1,1.1s1-.3,1-1.1c0-3.2,0-6.3.1-9.5h.4c.9,1.1,2,.7,3.1.5a30.94,30.94,0,0,0,.2,5.3c.9,3.7,3.9,5.8,7.7,4.3,2.4-.9,3.5-3.1,3.3-6.4a4.14,4.14,0,0,1,1.9-1.8,5.07,5.07,0,0,0,3.5,4.3,6,6,0,0,0,5.6-1.4C269.88,118,267.28,120.93,263.28,120.53Z" fill="#085e66"/><path d="M294.68,147.13a2.9,2.9,0,0,1-.5,1.8,34.7,34.7,0,0,1-5.2,6.9,50.24,50.24,0,0,1-8.6,7.4,42.8,42.8,0,0,1-9,4.7,46.37,46.37,0,0,1-6.4,1.7,63.21,63.21,0,0,1-10.6.9,46.72,46.72,0,0,1-7.4-.9,42.41,42.41,0,0,1-24.3-13.8,28.66,28.66,0,0,1-5.4-7.5,1.47,1.47,0,0,1-.2-1.1,60.25,60.25,0,0,0,4.4,5.6c7.8,8.6,17.4,13.8,28.9,14.9,18.5,1.8,33.3-5,44-20.3Q294.38,147.28,294.68,147.13Z" fill="#c6c5c5"/><path d="M255.18,131.13h30.2c.3,0,.4.2.4.5s0,.5-.4.5h-60.2c-.2,0-.4-.1-.4-.3v-.1c0-.3,0-.6.4-.6Z" fill="#fff"/><path d="M266.38,146l-2.4,6.3c-.1.3-.1.8-.7.8s-.6-.5-.7-.8l-2.5-6.3h-.4v5.7c0,.2,0,.4.3.4s.6.2.5.6-.4.3-.7.3h-1.4c-.3,0-.6,0-.6-.4s.1-.5.5-.5c.6,0,.5-.4.5-.7.1-2,.1-4,.2-6,0-.5,0-.9-.6-.9-.3,0-.4-.2-.4-.5s.2-.3.5-.4c1.5-.3,1.9-.1,2.5,1.4l2.3,5.9c0,.1.1.1.2.2l2.5-6.6a2.23,2.23,0,0,1,2.7-.8c.3.3.3.7-.2.8-.7.1-.6.5-.6.9,0,1.9.1,3.8.1,5.8,0,.5-.1,1,.7,1,.3,0,.4.2.4.5a.43.43,0,0,1-.4.4h-2.2a.43.43,0,0,1-.4-.4h0c0-.2,0-.5.2-.4.8,0,.6-.5.6-1V146Z" fill="#fff"/><path d="M258.58,112.23c.2,3.3-.9,5.5-3.3,6.4-3.8,1.5-6.8-.6-7.7-4.3a18.86,18.86,0,0,1-.2-5.3,21.46,21.46,0,0,1,1.1-3.6,7.59,7.59,0,0,1,7.9-4c.8.1.9.5.9,1.2,0,.9-.6.5-1,.4-4.2-.3-6.8,2.2-6.8,6.8.2.2.4,0,.5-.1C253.58,107.23,257.08,108.33,258.58,112.23Zm-2,1.6c0-2.3-1.2-3.7-3.2-3.7s-3.8,1.1-3.8,2.2c-.1,2.8,1.6,5.1,3.6,5.1a3.26,3.26,0,0,0,3.4-3.6Z" fill="#fff"/><path d="M263.28,120.53c4,.3,6.6-2.5,6.4-7.2a6,6,0,0,1-5.6,1.4,4.59,4.59,0,0,1-3.5-4.3,10.68,10.68,0,0,1,.3-2.5,5.14,5.14,0,0,1,4.6-3.7,4.94,4.94,0,0,1,5,2.3c2.3,3.5,1.7,10.3-1.2,13.4-1.9,2-4.2,2.4-6.8,2.2-.8-.1-.6-.6-.6-1s.2-.7.7-.6A.85.85,0,0,0,263.28,120.53Zm2.8-14.6c-2.7,0-4.2,2.8-3.1,5.4.7,1.7,2.5,2.4,4.7,1.6s2.4-1.4,1.8-3.6a6.25,6.25,0,0,0-1-2.2A3.3,3.3,0,0,0,266.08,105.93Z" fill="#fff"/><path d="M244,108.53c0,3.2-.1,6.3-.1,9.5,0,.8-.1,1.1-1,1.1s-1-.3-1-1.1v-10.7c.3-1-.2-1.2-1.1-1.1-.6.1-1.2.2-1.1-.8,0-.7.2-.8.8-.8h2.6c.6,0,.8.2.8.8C243.88,106.43,244,107.53,244,108.53Z" fill="#fff"/><path d="M247.08,148.63a13.25,13.25,0,0,1,1.6,2.5c.3.4.4,1.1,1.1,1.1.3,0,.3.2.3.4s-.1.4-.3.4c-.6,0-1.3.3-1.7-.6a26.94,26.94,0,0,0-1.6-2.9,1.21,1.21,0,0,0-1.2-.7c-.7.1-.3.7-.4,1.1v1.4c0,.4-.1.9.6.9.3,0,.4.1.4.4s-.2.4-.6.4h-2c-.3,0-.5-.1-.5-.5s.1-.4.4-.4c.6.1.6-.4.6-.8v-6c0-.4.1-.8-.6-.8-.3,0-.4-.2-.4-.5s.2-.4.5-.4a26.73,26.73,0,0,1,4,.1,2,2,0,0,1,1.7,1.8,2.29,2.29,0,0,1-1,2.4A1.5,1.5,0,0,1,247.08,148.63Zm-2.2-2.4c.4.5-.6,1.7.9,1.7s2.1-.6,2.2-1.7-.6-1.6-2.1-1.6-.8,1-1,1.6Z" fill="#fff"/><path d="M251.58,148.43v-2.6c0-.6.2-1.3-.8-1.3-.2,0-.3-.2-.3-.4a.46.46,0,0,1,.5-.4,25.41,25.41,0,0,1,3.9.1,2.27,2.27,0,0,1,1.8,2.3A2.7,2.7,0,0,1,255,149c-.2.1-.5.1-.7.2-.5.2-1.4-.2-1.5.3a5.45,5.45,0,0,0-.1,2.2c0,.6.4.5.8.5s.5.1.5.4-.1.5-.5.5h-2.3c-.3,0-.6-.1-.6-.4s.1-.5.4-.4c.7.1.6-.4.6-.9v-3Zm1.1-2v1.2c-.1.6.1.8.7.7a5.85,5.85,0,0,0,1.3-.2,2,2,0,0,0,.7-2.7,2,2,0,0,0-2.2-.9c-1,.3-.2,1.1-.5,1.6v.3Z" fill="#fff"/><path d="M217,147.13c-.6,0-.5-.4-.5-.8A1.37,1.37,0,0,1,217,147.13Z" fill="#c6c5c5"/><path d="M129.78,415.43V420h-.1v-4.5Z" fill="#085e66"/><path d="M64.58,443.23c.1-.8-.5-1.8.3-2.5C64.78,441.53,65.48,442.43,64.58,443.23Z" fill="#33767d"/><path d="M283.88,243.43v7.1c0,.6,0,1.1.8,1.1.6,0,.6.4.6.8s-.2.6-.7.6h-3.2a.53.53,0,0,1-.6-.6c0-.4.1-.8.6-.8.8.1.8-.4.8-1v-12.9c0-.6-.1-1-.8-1s-.6-.3-.6-.8.3-.6.8-.7c2.4-.2,2.4-.2,2.4,2.1Z" fill="#0e143a"/><path d="M173.78,246.63v4c0,.6.1,1,.8,1s.6.3.6.8-.2.6-.7.6h-3.2c-.4,0-.7-.2-.7-.6s0-.9.6-.8.9-.3.9-.9V244c0-.6,0-1.1-.8-1-.5,0-.6-.3-.6-.8s.3-.6.8-.7c2.4-.2,2.4-.2,2.4,2.2Z" fill="#0e143a"/><path d="M50.38,11.73v4c0,.6.1,1,.8,1s.6.3.6.8-.2.6-.7.6H48c-.4,0-.7-.1-.7-.6s0-.8.6-.8.8-.3.8-1V9c0-.6,0-1.1-.8-1-.5,0-.7-.3-.7-.8s.3-.6.8-.7c2.4-.2,2.4-.2,2.4,2.2Z" fill="#0e143a"/><path d="M82.18,113.33a3.17,3.17,0,0,1-3.1-1.9,4.13,4.13,0,0,1,.6-4.4,3.31,3.31,0,0,1,3.5-.9,3.84,3.84,0,0,1,2.2,2.6C86.48,111.53,85.28,113.23,82.18,113.33Z" fill="#075860"/><path d="M76.78,146.53v-.2c.2-.5-.5-1.5.5-1.6s1.9-.1,2.2,1.1a1.82,1.82,0,0,1-.8,2.4C77.38,148.93,76.78,148.43,76.78,146.53Z" fill="#085e66"/><path d="M256.58,113.83a3.31,3.31,0,0,1-3.4,3.6c-2,0-3.7-2.4-3.6-5.1,0-1.1,1.9-2.2,3.8-2.2S256.68,111.53,256.58,113.83Z" fill="#075860"/><path d="M266.08,105.93a2.81,2.81,0,0,1,2.4,1.3,6.25,6.25,0,0,1,1,2.2c.6,2.2.2,2.9-1.8,3.6s-4,.1-4.7-1.6C261.88,108.73,263.38,105.93,266.08,105.93Z" fill="#075860"/><path d="M244.88,146.23c.3-.6-.5-1.7.9-1.6s2.1.5,2.1,1.6-.8,1.6-2.2,1.7S245.18,146.73,244.88,146.23Z" fill="#12626a"/><path d="M252.68,146.43v-.2c.2-.5-.5-1.3.5-1.6a2,2,0,0,1,2.4,1.3,1.79,1.79,0,0,1-.9,2.2,1.91,1.91,0,0,1-1.3.2c-.6,0-.8-.2-.7-.7Z" fill="#085e66"/></g></g></g></g></svg>